<svg width="40" height="40" fill="none" xmlns="http://www.w3.org/2000/svg"><path d="M36.755 27.355l1.942 3.658c.22.42.406.87.51 1.335a5.693 5.693 0 01-5.536 7.007h-7.987a5.693 5.693 0 01-5.536-7.006c.104-.465.29-.917.51-1.336l1.62-3.052c.387.233.845.426 1.593.426 1.936 0 1.936-1.29 3.865-1.29 1.935 0 1.935 1.29 3.87 1.29 1.936 0 1.936-1.29 3.878-1.29.548 0 .948.103 1.271.258zm-23.852-2.839a.647.647 0 00-.645-.645.647.647 0 00-.645.645c0 .355.29.645.645.645.355 0 .645-.29.645-.645zm-9.677 9.032V16.774c1.935 0 1.935 1.29 3.87 1.29 1.936 0 1.936-1.29 3.871-1.29 1.936 0 1.936 1.29 3.871 1.29v15.484c0 1.6-.651 3.059-1.703 4.104a5.776 5.776 0 01-4.103 1.703 5.807 5.807 0 01-5.806-5.807zm2.58-5.16a.647.647 0 00-.645.644c0 .355.29.645.645.645.355 0 .645-.29.645-.645a.647.647 0 00-.645-.645zm1.29-1.291c.355 0 .646-.29.646-.645a.647.647 0 00-.645-.646.647.647 0 00-.646.646c0 .354.29.645.646.645zm1.936.645c0 .355.29.645.645.645.355 0 .645-.29.645-.645a.647.647 0 00-.645-.645.647.647 0 00-.645.645zm3.226 3.226a.647.647 0 00-.645-.645.647.647 0 00-.646.645c0 .355.291.645.646.645.354 0 .645-.29.645-.645zm-3.226 0a.647.647 0 00-.645-.645.647.647 0 00-.645.645c0 .355.29.645.645.645.355 0 .645-.29.645-.645z" fill="#96D659"/><path d="M39.835 32.206a6.085 6.085 0 00-.57-1.498l-5.072-9.578v-9.517a2.583 2.583 0 002.581-2.58 2.583 2.583 0 00-2.58-2.581H25.16a2.583 2.583 0 00-2.58 2.58 2.583 2.583 0 002.58 2.58v9.518l-5.07 9.579a6.11 6.11 0 00-.572 1.497c-.434 1.93.01 3.903 1.22 5.415A6.302 6.302 0 0025.684 40h7.985a6.302 6.302 0 004.946-2.38c1.209-1.512 1.653-3.484 1.22-5.414zm-2.227 4.609a5.016 5.016 0 01-3.939 1.895h-7.984c-1.54 0-2.975-.69-3.938-1.895-.963-1.205-1.316-2.781-.968-4.325.083-.374.236-.77.452-1.178l4.964-9.377h4.127v-1.29h-3.87v-1.29h2.58v-1.29h-2.58v-1.29h3.87v-1.291h-3.87v-1.29h2.58v-1.29h-2.58v-2.581h-1.29a1.292 1.292 0 010-2.581h9.031a1.292 1.292 0 010 2.58h-5.161v1.29h3.871v9.838l5.22 9.862c.217.408.37.804.453 1.178.348 1.544-.005 3.12-.968 4.325z" fill="#333"/><path d="M34.839 30.323a1.938 1.938 0 00-1.936 1.935c0 1.067.869 1.935 1.936 1.935a1.938 1.938 0 001.935-1.935 1.938 1.938 0 00-1.935-1.935zm0 2.58a.646.646 0 010-1.29.646.646 0 010 1.29zM32.258 5.161a1.938 1.938 0 001.935-1.935 1.938 1.938 0 00-1.935-1.936 1.938 1.938 0 00-1.936 1.936c0 1.067.869 1.935 1.936 1.935zm0-2.58a.646.646 0 010 1.29.646.646 0 010-1.29zm-6.451 1.29a1.938 1.938 0 001.935-1.936A1.938 1.938 0 0025.807 0a1.938 1.938 0 00-1.936 1.935c0 1.067.869 1.936 1.936 1.936zm0-2.58a.646.646 0 010 1.29.646.646 0 010-1.29zm4.515 32.257a1.938 1.938 0 00-1.935 1.936c0 1.067.868 1.935 1.935 1.935a1.938 1.938 0 001.936-1.935 1.938 1.938 0 00-1.936-1.936zm0 2.581a.646.646 0 010-1.29.646.646 0 010 1.29zm-6.451-3.226a1.938 1.938 0 00-1.935 1.936c0 1.067.868 1.935 1.935 1.935a1.938 1.938 0 001.936-1.935 1.938 1.938 0 00-1.936-1.936zm0 2.58a.646.646 0 11.002-1.291.646.646 0 01-.002 1.292zM8.387 33.548a1.938 1.938 0 00-1.936 1.936c0 1.067.869 1.935 1.936 1.935a1.938 1.938 0 001.935-1.935 1.938 1.938 0 00-1.935-1.936zm0 2.581a.646.646 0 11.001-1.292.646.646 0 01-.001 1.292zm21.291-5.161a1.938 1.938 0 00-1.936-1.936 1.938 1.938 0 00-1.935 1.936c0 1.067.868 1.935 1.935 1.935a1.938 1.938 0 001.936-1.935zm-1.936.645a.646.646 0 11.002-1.292.646.646 0 01-.002 1.292z" fill="#333"/><path d="M15.484 6.452H2.58A2.583 2.583 0 000 9.032a2.583 2.583 0 002.58 2.58v21.936A6.459 6.459 0 009.033 40a6.459 6.459 0 006.452-6.452V11.613a2.583 2.583 0 002.58-2.58 2.583 2.583 0 00-2.58-2.581zm0 3.87h-1.29v23.226a5.167 5.167 0 01-5.162 5.162 5.167 5.167 0 01-5.161-5.162V11.613h7.742v-1.29H2.58a1.291 1.291 0 010-2.581h12.903a1.291 1.291 0 010 2.58z" fill="#333"/><path d="M12.258 30.968a.645.645 0 11-1.29 0 .645.645 0 011.29 0zm-5.807-1.936a.645.645 0 11-1.29 0 .645.645 0 011.29 0zm3.871-1.29a.645.645 0 11-1.29 0 .645.645 0 011.29 0zm-1.289 3.226a.645.645 0 11-1.29 0 .645.645 0 011.29 0zm3.871-6.452a.645.645 0 11-1.29 0 .645.645 0 011.29 0zm-5.163 1.936a.645.645 0 11-1.29 0 .645.645 0 011.29 0z" fill="#333"/></svg>