<svg width="40" height="40" fill="none" xmlns="http://www.w3.org/2000/svg"><g clip-path="url(#clip0)"><path d="M16.13 31.124v8.387h-5.162v-8.387l2.58-2.58 2.581 2.58zm4.326-25.651a7.328 7.328 0 00-6.153-3.381h-.755c-5.336 0-9.677 4.341-9.677 9.677v5.161h.645a2.58 2.58 0 012.58-2.58v.24a3.467 3.467 0 015.39-2.884l1.063.708 1.061-.708A3.467 3.467 0 0120 14.59v-.241a2.58 2.58 0 012.58 2.58h.646v-6.792a5.283 5.283 0 00-2.77-4.665z" fill="#96D659"/><path d="M40 16.795v-6.18l-2.54-.605a11.617 11.617 0 00-.611-1.479l1.368-2.22-4.37-4.372-2.221 1.368c-.474-.235-.969-.44-1.48-.61l-.604-2.54h-6.18l-.605 2.54a11.62 11.62 0 00-1.479.61l-2.22-1.368-1.132 1.13c.379.218.734.474 1.069.756l.253-.253 1.98 1.22.328-.176a10.329 10.329 0 011.93-.797l.356-.107.539-2.265h4.142l.538 2.266.356.107c.677.203 1.327.47 1.93.796l.328.177 1.98-1.22 2.929 2.93-1.22 1.98.177.327c.325.603.593 1.252.796 1.93l.107.356 2.266.538v4.142l-2.267.538-.107.356c-.203.677-.47 1.327-.796 1.93l-.177.328 1.22 1.98-2.929 2.929-1.98-1.22-.328.177c-.602.325-1.251.593-1.929.796l-.356.107-.538 2.266H24.38l-.54-2.267-.355-.107a10.286 10.286 0 01-1.93-.796l-.327-.177-1.98 1.22-.644-.644a7.1 7.1 0 001.722-2.865 8.935 8.935 0 006.125 2.41c4.98 0 9.032-4.052 9.032-9.032 0-4.981-4.052-9.033-9.032-9.033a8.939 8.939 0 00-4.999 1.515c.328.291.612.619.855.977a7.664 7.664 0 014.144-1.201c4.269 0 7.741 3.473 7.741 7.742s-3.472 7.742-7.741 7.742c-1.8 0-3.492-.61-4.864-1.726a3.216 3.216 0 001.638-2.79 3.225 3.225 0 00-2.665-3.17 4.12 4.12 0 00-4.027-3.282c-.815 0-1.604.239-2.281.69l-.705.47-.704-.47a4.097 4.097 0 00-2.28-.69 4.119 4.119 0 00-4.029 3.282 3.225 3.225 0 00-2.664 3.17c0 1.648 1.248 2.996 2.846 3.186a7.114 7.114 0 002.96 4.044v1.336l-6.59 2.197A4.51 4.51 0 000 31.98v8.177h27.097V31.98a4.51 4.51 0 00-3.088-4.285l-6.59-2.197v-1.336l.196-.133 1.442 1.442 2.22-1.369c.473.236.969.44 1.48.61l.604 2.542h6.18l.605-2.54a11.627 11.627 0 001.48-.61l2.22 1.367 4.37-4.37-1.368-2.221c.236-.474.44-.969.61-1.48L40 16.796zm-18.064.135c0 .85-.555 1.566-1.318 1.826.014-.178.027-.355.027-.535v-3.107a1.93 1.93 0 011.29 1.816zm-16.775 0c0-.84.542-1.55 1.29-1.816v3.107c0 .18.014.357.028.535A1.932 1.932 0 015.16 16.93zm2.58 1.29v-3.63a2.825 2.825 0 014.387-2.347l1.42.947 1.42-.947a2.81 2.81 0 011.566-.474 2.825 2.825 0 012.82 2.821v3.63a5.813 5.813 0 01-5.806 5.807 5.813 5.813 0 01-5.806-5.806zm2.453 8.466l2.389 1.91-3.269 3.27-1.466-4.399 2.346-.781zm15.612 5.293v6.887h-3.225v-5.161h-1.29v5.16H5.805v-5.16h-1.29v5.16H1.29V31.98c0-1.391.887-2.62 2.206-3.06l3.129-1.043 2.126 6.378 4.797-4.798 4.798 4.798 2.127-6.378 3.128 1.042a3.222 3.222 0 012.205 3.06zm-6.558-4.512l-1.465 4.398-3.269-3.268 2.39-1.911 2.344.781zm-3.119-1.814l-2.58 2.065-2.581-2.065v-.828a7.05 7.05 0 002.58.492 7.05 7.05 0 002.581-.492v.828z" fill="#000"/><path d="M16.774 16.285a.645.645 0 100-1.29.645.645 0 000 1.29zm-6.451 0a.645.645 0 100-1.29.645.645 0 000 1.29zm5.807 3.226h-1.291a1.291 1.291 0 01-2.58 0h-1.291a2.583 2.583 0 002.58 2.58 2.583 2.583 0 002.581-2.58zm-1.936 11.613h-1.29v1.29h1.29v-1.29zm0 2.581h-1.29v1.29h1.29v-1.29zm0 2.58h-1.29v1.29h1.29v-1.29zM29.678 7.898h-5.161v1.29h5.16v-1.29zm1.935 2.581h-7.096v1.29h7.096v-1.29zm1.291 2.581h-8.387v1.29h8.387v-1.29zm-1.291 2.58h-7.096v1.29h7.096v-1.29zm-1.935 2.58h-5.161v1.291h5.16v-1.29z" fill="#000"/></g><defs><clipPath id="clip0"><path fill="#fff" d="M0 0h40v40H0z"/></clipPath></defs></svg>