<svg width="40" height="40" fill="none" xmlns="http://www.w3.org/2000/svg"><path d="M14.235 12.258a2.572 2.572 0 002.562-2.58 2.572 2.572 0 00-2.562-2.581 2.572 2.572 0 00-2.563 2.58 2.572 2.572 0 002.563 2.581zm3.843-4.516h9.61v5.806h-9.61V7.742z" fill="#96D659"/><path d="M21.922 0h-3.844c-6.005 0-10.89 4.92-10.89 10.968 0 3.984 2.154 7.661 5.621 9.596l.144.08v3.872h1.281V40h1.282V24.516h1.28v-3.87h6.407v3.87h1.281V40h1.282V24.516h1.28v-3.871l.145-.08a10.993 10.993 0 005.622-9.597C32.813 4.92 27.927 0 21.922 0zm-6.406 23.226h-1.282v-2.58h1.282v2.58zm8.968 0v-2.58h1.282v2.58h-1.282zm2.228-3.871H13.288a9.7 9.7 0 01-4.82-8.387c0-5.336 4.312-9.678 9.61-9.678h3.844c5.299 0 9.61 4.342 9.61 9.678a9.7 9.7 0 01-4.82 8.387z" fill="#333"/><path d="M14.235 7.097a2.574 2.574 0 00-2.563 2.58 2.575 2.575 0 002.563 2.581v-1.29a1.287 1.287 0 01-1.281-1.29c0-.712.574-1.29 1.28-1.29.707 0 1.282.578 1.282 1.29h1.281a2.574 2.574 0 00-2.562-2.581zm3.843 0h9.61v1.29h-9.61v-1.29zm0 2.58h9.61v1.29h-9.61v-1.29zm8.328 2.581h1.282v1.29h-1.282v-1.29zm-5.766 0h4.485v1.29h-4.484v-1.29zm-2.562 0h1.281v1.29h-1.28v-1.29z" fill="#333"/></svg>