<svg width="40" height="40" fill="none" xmlns="http://www.w3.org/2000/svg"><path d="M12.523 15.625H6.875a6.257 6.257 0 00-6.25 6.25 6.257 6.257 0 006.25 6.25h6.494l-.846-12.5zM32.5 36.25h6.25V32.5H32.5c-.69 0-1.25.56-1.25 1.25V35c0 .69.56 1.25 1.25 1.25z" fill="#96D659"/><path d="M6.875 25.625a3.754 3.754 0 003.75-3.75 3.754 3.754 0 00-3.75-3.75 3.754 3.754 0 00-3.75 3.75 3.754 3.754 0 003.75 3.75zm0-6.25c1.379 0 2.5 1.121 2.5 2.5s-1.121 2.5-2.5 2.5a2.503 2.503 0 01-2.5-2.5c0-1.379 1.121-2.5 2.5-2.5z" fill="#333"/><path d="M36.875 25.625v-3.75h-2.5v-2.5H37.5V17.5c0-2.876-2.17-5.25-4.958-5.582a3.018 3.018 0 00-.893-.495l-5.443-2.177a3.11 3.11 0 00.044-.496c0-1.33-.839-2.46-2.012-2.911A9.614 9.614 0 0015.66.625h-.5a9.736 9.736 0 00-4.14.93l-1.85.877L6.617 1.41a3.122 3.122 0 00-3.955 1.975 3.09 3.09 0 00.129 2.28 5.966 5.966 0 00.496 9.567l1.021.682-.02.277a6.198 6.198 0 011.284-.428l.56-7.826 5.39 2.156 1.56 23.031h-8.67l.316-5.388a6.262 6.262 0 01-1.216-.603l-.354 6.051A3.127 3.127 0 00.625 36.25v3.125h16.25V36.25a3.127 3.127 0 00-2.537-3.066L12.81 10.61l13.634 5.454c-.122.46-.193.94-.193 1.437v1.875h3.125v2.5h-8.75v3.75h-2.5v5h7.5v2.5h-6.25v6.25h20v-13.75h-2.5zM15.625 36.25v1.875H1.875V36.25c0-1.034.841-1.875 1.875-1.875h10c1.034 0 1.875.841 1.875 1.875zm20-10.625h-2.5v-2.5h2.5v2.5zm-10 0v-2.5h2.5v2.5h-2.5zm3.75-2.5h2.5v2.5h-2.5v-2.5zM25 8.75l-.001.012-3.237-1.294A1.87 1.87 0 0125 8.75zM11.554 2.686a8.466 8.466 0 013.605-.811h.5a8.365 8.365 0 017.025 3.782 3.115 3.115 0 00-2.13 1.328l-9.8-3.92.8-.38zM3.847 3.78a1.872 1.872 0 012.34-1.197l10.16 4.067-1.55 3.41-9.765-3.905a1.862 1.862 0 01-1.084-.94 1.863 1.863 0 01-.101-1.433zm.564 10.7l-.431-.288a4.715 4.715 0 01-2.105-3.932c0-1.387.607-2.69 1.646-3.582.314.29.68.514 1.082.648l.31.124-.502 7.03zm11.549-3.957l1.55-3.41 12.614 5.044a5.648 5.648 0 00-3.23 2.739L15.96 10.524zM27.5 17.5a4.38 4.38 0 014.375-4.375A4.38 4.38 0 0136.25 17.5v.625H27.5V17.5zm3.125 1.875h2.5v2.5h-2.5v-2.5zm-8.75 3.75h2.5v2.5h-2.5v-2.5zm-2.5 3.75h18.75v2.5h-18.75v-2.5zm18.75 11.25h-17.5v-3.75h6.25v-3.75h11.25v7.5z" fill="#333"/><path d="M24.375 35.625h1.25v1.25h-1.25v-1.25zm-2.5 0h1.25v1.25h-1.25v-1.25zm5 0h1.25v1.25h-1.25v-1.25zm-16.84-28.82l.463-1.161 1.161.463-.464 1.162-1.16-.464zM5.393 4.952l.463-1.162 1.161.464-.464 1.161-1.16-.463zm2.323.938l.465-1.16 1.16.464-.465 1.16-1.16-.465z" fill="#333"/></svg>