<svg width="207" height="98" fill="none" xmlns="http://www.w3.org/2000/svg"><g clip-path="url(#clip0)" fill="#fff"><path fill-rule="evenodd" clip-rule="evenodd" d="M13.76 12.728h33.53L34.466.143H.936v32.905L13.76 45.633V12.728zm40.453 0h33.53v32.905l12.824-12.585V.143h-33.53L54.213 12.728zm33.53 39.699v32.905h-33.53l12.824 12.585h33.53V65.012L87.743 52.427zM47.29 85.332H13.76V52.427L.937 65.012v32.905h33.53L47.29 85.332z"/><path d="M104.146.675h3.208v.679h-1.258v3.77h-.692v-3.77h-1.258V.675zm6.089 3.312l1.503-3.312h.77v4.448h-.692V2.201l-1.33 2.922h-.502l-1.33-2.922v2.922h-.692V.675h.77l1.503 3.312z"/><path fill-rule="evenodd" clip-rule="evenodd" d="M133.202 85.765c2.22 0 4.021 1.984 4.021 4.429 0 2.445-1.801 4.43-4.021 4.43-2.221 0-4.022-1.985-4.022-4.43 0-2.445 1.801-4.43 4.022-4.43zm0-3.375c4.423 0 8.01 3.495 8.01 7.804 0 4.31-3.587 7.804-8.01 7.804-4.424 0-8.011-3.495-8.011-7.804s3.587-7.804 8.011-7.804zm18.734 3.375c1.373 0 2.664.603 3.39 1.76l2.631-2.477a8.082 8.082 0 00-6.021-2.658c-4.423 0-8.011 3.495-8.011 7.804 0 4.31 3.588 7.804 8.011 7.804a8.08 8.08 0 006.122-2.773l-2.734-2.297c-.73 1.12-2.041 1.695-3.388 1.695-2.22 0-4.022-1.984-4.022-4.429 0-2.445 1.802-4.43 4.022-4.43zm26.479 5.453h11.506c.044-.335.066-.677.066-1.024 0-4.309-3.46-7.804-7.726-7.804-4.267 0-7.727 3.495-7.727 7.804 0 4.31 3.46 7.804 7.727 7.804 2.433 0 5.231-.406 6.647-2.182l-1.759-2.498c-.883 1.245-3.217 1.592-4.707 1.592-1.969 0-3.617-1.58-4.027-3.692zm.088-2.426c.522-1.919 2.089-3.314 3.939-3.314s3.417 1.395 3.939 3.314h-7.878zm-18.122-6.045h12.383v3.348h-4.279v11.546h-3.824V86.095h-4.28v-3.348zm35.935 7.216l-5.212-7.216h4.605l3.119 4.61 3.12-4.61h4.605l-5.213 7.216 5.449 7.678h-4.45l-3.511-4.985-3.51 4.985h-4.45l5.448-7.678zm2.512-1.908l-.017.03h.035l-.018-.03zm-82.939-7.265c1.661 0 3.008 1.322 3.008 2.952s-1.347 2.951-3.008 2.951h-5.069V80.79h5.069zm-9.269-3.504h10.134c3.633 0 6.579 2.89 6.579 6.456 0 3.565-2.946 6.456-6.579 6.456h-5.934v7.443h-4.2V77.286z"/></g><defs><clipPath id="clip0"><path fill="#fff" transform="translate(.937 .143)" d="M0 0h205.852v97.855H0z"/></clipPath></defs></svg>