<svg width="197" height="86" fill="none" xmlns="http://www.w3.org/2000/svg"><g clip-path="url(#clip0)" fill="#fff"><path d="M139.371 7.741v3.123h27.282c1.817 0 4.553 0 6.375 1.784 1.821 1.787 1.821 4.465 1.821 6.252v26.778c0 1.787 0 4.468-1.821 6.248-1.822 1.788-4.558 1.788-6.375 1.788h-13.186c-2.271 0-5.234 0-6.371-2.455-1.126-2.459.453-4.692 1.826-6.472l17.731-23.216h-27.281L128.45 35.857c-1.829 2.39-3.41 4.468-3.41 7.143 0 2.678 1.47 4.608 3.41 7.146l2.728 3.568c2.732 3.568 5.456 7.15 9.1 8.93 3.642 1.777 7.954 1.777 13.876 1.777h11.814c6.828 0 17.059 0 23.891-6.69 6.818-6.695 6.818-16.515 6.818-20.09V26.93c0-3.576 0-13.393-6.818-20.087-6.832-6.7-17.063-6.683-23.891-6.69l-18.872-.01c-1.811 0-4.097 0-5.918 1.79-1.807 1.789-1.807 4.02-1.807 5.808z"/><path d="M106.618 21.571h27.296l-32.761 42.85H73.864l32.754-42.85zM.177 29.163c0-1.784 0-4.016 1.82-5.808 1.814-1.784 4.098-1.784 5.914-1.784h45.72c5.91 0 10.228 0 13.872 1.784 3.629 1.792 6.363 5.363 9.086 8.935l2.734 3.568c1.944 2.534 3.42 4.468 3.42 7.143 0 2.677-1.596 4.751-3.42 7.146L68.409 64.42H41.117l17.735-23.205c1.363-1.788 2.962-4.013 1.819-6.475-1.13-2.451-4.089-2.451-6.362-2.451H32.927v53.567H11.095V32.29H.177v-3.126z"/></g><defs><clipPath id="clip0"><path fill="#fff" transform="translate(.177 .143)" d="M0 0h196.5v85.714H0z"/></clipPath></defs></svg>