<svg width="153" height="104" fill="none" xmlns="http://www.w3.org/2000/svg"><g clip-path="url(#clip0)" fill="#fff"><path d="M58.504 69.353l.127.05c.046.015.092.028.139.037a5.45 5.45 0 001.56.24h27.51L69.8 51.928h-.01c-3.337 3.255-5.542 5.396-7.167 6.994a556.64 556.64 0 00-3.342 3.29 1252.561 1252.561 0 01-1.92 1.881 3.348 3.348 0 00-.907 2.292c-.002.64.192 1.266.558 1.795.366.53.887.938 1.493 1.173z"/><path d="M56.451 66.4a3.348 3.348 0 01.906-2.292s.772-.744 1.92-1.881a493.09 493.09 0 013.343-3.29c1.625-1.59 3.83-3.74 7.167-6.994h.01l3.251-3.172.065-.063c5.401-5.27 13.082-12.777 24.363-23.8L72.706.571l-14.03 13.78c-4.191 4.114-3.624 6.804-3.624 12.33v37.806c0 1.06.33 2.094.946 2.964a5.273 5.273 0 002.5 1.902 3.228 3.228 0 01-1.486-1.167 3.136 3.136 0 01-.561-1.786zm62.999 23.165h-4.128l-4.929 4.893v-4.893h-3.491v13.482h3.491v-5.573l5.012 5.573h4.211l-6.482-7.23 6.316-6.252zM8.82 84.02H.011v19.027h3.656v-6.633h5.151c4.376 0 7.258-2.201 7.258-6.196 0-3.995-2.882-6.198-7.258-6.198zm-.103 9.188h-5.05v-5.98h5.05c2.548 0 3.71 1.196 3.71 2.99 0 1.794-1.17 2.99-3.71 2.99zm15.611-4.023c-3.767 0-7.506 2.391-7.506 7.12 0 4.731 3.739 7.122 7.506 7.122 3.767 0 7.506-2.391 7.506-7.121s-3.739-7.12-7.506-7.12zm0 11.034c-2.05 0-3.96-1.44-3.96-3.907 0-2.468 1.91-3.908 3.96-3.908s3.96 1.442 3.96 3.907c0 2.466-1.91 3.908-3.96 3.908zm16.415 0c-2.104 0-3.655-1.489-3.655-3.907 0-2.42 1.605-3.908 3.655-3.908 1.246 0 2.326.571 3.185 1.85l2.992-1.686c-.997-2.093-3.159-3.37-6.148-3.37-3.906 0-7.23 2.827-7.23 7.121 0 4.294 3.157 7.121 7.23 7.121 2.934 0 4.9-1.303 6.287-3.616l-2.888-1.56c-.825 1.14-1.706 1.955-3.428 1.955zM77.9 97.203c-.167 2.065-.582 2.528-1.303 2.528a3.551 3.551 0 01-1.06-.141l.018 3.489a4.77 4.77 0 001.238.13c2.963 0 4.07-1.876 4.347-5.87l.334-4.702h3.932v10.384h3.49V89.565H78.489l-.588 7.638zm-9.899-8.018c-3.981 0-7.227 2.853-7.227 7.12 0 4.269 3.24 7.122 7.062 7.122 3.019 0 4.93-1.117 6.314-3.424l-2.77-1.36c-.857 1.06-1.632 1.849-3.489 1.849-2.05 0-3.545-1.302-3.767-3.371h10.572v-1.197c0-3.94-2.76-6.739-6.695-6.739zm-3.822 5.327c.499-1.522 1.885-2.718 3.712-2.718 1.938 0 3.24 1.032 3.572 2.718H64.18zm33.9-5.327c-3.982 0-7.23 2.853-7.23 7.12 0 4.269 3.24 7.122 7.063 7.122 3.018 0 4.929-1.117 6.315-3.424l-2.77-1.36c-.859 1.06-1.634 1.849-3.49 1.849-2.05 0-3.546-1.302-3.767-3.371h10.581v-1.197c0-3.94-2.77-6.739-6.702-6.739zm-3.823 5.327c.499-1.522 1.883-2.718 3.71-2.718 1.94 0 3.241 1.032 3.575 2.718h-7.285zm-46.113-1.957h4.1v10.492h3.49V92.555h4.099v-2.99H48.143v2.99z"/><path d="M126.544 89.185c-3.767 0-7.506 2.391-7.506 7.12 0 4.731 3.739 7.122 7.506 7.122 3.768 0 7.506-2.391 7.506-7.121s-3.74-7.12-7.506-7.12zm0 11.036c-2.049 0-3.96-1.442-3.96-3.908 0-2.465 1.911-3.907 3.96-3.907 2.05 0 3.961 1.442 3.961 3.907 0 2.466-1.911 3.917-3.961 3.917v-.009zm21.391-10.658l-3.787 9.44-3.788-9.44h-4.561v13.458h3.318v-8.52l3.676 8.52h2.709l3.676-8.52v8.52h3.318V89.563h-4.561z"/></g><defs><clipPath id="clip0"><path fill="#fff" transform="translate(.012 .571)" d="M0 0h152.484v102.857H0z"/></clipPath></defs></svg>