<svg width="214" height="104" fill="none" xmlns="http://www.w3.org/2000/svg"><path d="M67.156 67.162h13.261v4.252H74.11v29.877h-6.953V67.162zm21.122 21.317l1.192-17.065h.4l1.19 17.065h-2.782zM80.58 101.29h6.807l.645-9.063h3.278l.647 9.063h6.804l-3.626-34.129h-10.93l-3.626 34.129zm28.138-11.944v6.434c0 .868.684 1.12 1.083 1.12.656 0 1.112-.532 1.112-1.12v-7.945c0-1.063-.2-2.237-2.794-2.237h-2.822v-3.75h2.936c1.967 0 2.68-.447 2.68-2.545v-6.77c0-.587-.456-1.119-1.112-1.119-.399 0-1.083.224-1.083 1.12V78.1h-6.956v-4.84c0-2.377.285-6.098 5.16-6.098h5.758c4.875 0 5.188 3.72 5.188 6.099v5.455c0 3.72-2.651 4.727-4.732 4.644v.335c4.675-.112 4.732 3.413 4.732 4.616v6.882c0 2.406-.313 6.098-5.188 6.098h-5.758c-4.875 0-5.16-3.692-5.16-6.098v-5.847h6.956zm13.711-22.184h16.106v34.129h-6.955V71.414h-2.195v29.877h-6.956V67.162zm27.622 18.771V71.414h.912c.741 0 1.283.616 1.283 1.707v11.106c0 1.09-.542 1.706-1.283 1.706h-.912zm-6.955 15.358h6.955v-11.61h3.991c4.846 0 5.159-3.692 5.159-6.098V73.261c0-2.378-.313-6.099-5.159-6.099h-10.946v34.129zm29.817-5.511c0 .588-.456 1.12-1.112 1.12-.399 0-1.083-.252-1.083-1.12V72.533c0-.895.684-1.119 1.083-1.119.656 0 1.112.532 1.112 1.12V95.78zm-9.15-.587c0 2.406.313 6.098 5.159 6.098h5.787c4.846 0 5.16-3.692 5.16-6.098V73.26c0-2.378-.314-6.099-5.16-6.099h-5.787c-4.846 0-5.159 3.72-5.159 6.099v21.932zm38.739-28.031h9.065v34.129h-6.955v-21.4h-.257l-3.591 21.4h-5.559l-3.563-21.4h-.257v21.4h-6.955V67.162h9.036l4.533 24.002 4.503-24.002zM58.142 20.5c-2.13-9.147-7.466-16.589-8.201-17.792-1.163 1.707-5.419 8.28-7.583 15.554-2.363 8.141-2.71 15.358-1.895 22.436.81 7.106 3.868 14.407 3.868 14.407 1.625 3.805 4.06 7.917 5.644 9.931 2.323-2.965 7.663-11.805 9.327-23.33.927-6.435.967-12.058-1.16-21.206zm-8.201 42.242c-1.046-1.93-2.671-5.595-2.825-11.301-.04-5.484 2.204-10.211 2.86-11.19.584.979 2.516 5.091 2.747 10.714.157 5.483-1.702 9.82-2.782 11.777zm7.583-26.716c-.08 3.497-.505 7.19-1.047 9.4.194-3.805-.27-9.148-1.16-13.344-.89-4.168-3.406-11.162-5.416-14.38-1.856 3.078-4.142 9.12-5.34 14.352-1.202 5.231-1.236 11.581-1.236 13.484-.32-1.595-1.118-7.33-.893-13.064.189-4.728 1.317-9.624 1.936-11.862 2.36-7.469 5.031-12.253 5.533-13.008.502.755 3.865 6.658 5.61 12.84 1.736 6.183 2.087 12.113 2.013 15.582z" fill="#fff"/><path d="M53.553 67.162H37.364v10.659c.015 0 .026-.028.04-.028 3.814-3.749 10-3.749 13.817 0 3.814 3.72 3.814 9.79 0 13.54-.017.028-.034.028-.051.055-.02 0-.04.028-.057.056-3.806 3.693-8.777 5.54-13.749 5.54-4.994 0-9.988-1.847-13.796-5.596a18.874 18.874 0 01-2.392-24.226 19.455 19.455 0 012.392-2.853c3.808-3.749 8.802-5.595 13.796-5.595V33.089c-19.19 0-34.746 15.246-34.746 34.073 0 18.827 15.556 34.102 34.746 34.102 10.006 0 19.02-4.169 25.36-10.799V67.162h-9.171z" fill="#fff"/></svg>