<svg width="28" height="34" fill="none" xmlns="http://www.w3.org/2000/svg"><path d="M24 33.667H4a3.333 3.333 0 01-3.333-3.334V3.667A3.333 3.333 0 014 .333h11.666a.175.175 0 01.045 0h.01a.247.247 0 00.049.01c.147.01.292.038.431.085h.07c.031.022.06.046.087.072.182.08.347.194.488.333l10 10c.14.142.253.307.334.489.015.036.026.071.038.11l.017.046c.046.14.074.284.082.43a.169.169 0 00.011.049v.01a.12.12 0 01.005.033v18.333A3.334 3.334 0 0124 33.667zm-5.96-13.334v8.334h1.567v-3.4h2.433V23.87h-2.433v-2.135h2.726v-1.402H18.04zm-6.167 0v8.334h2.01a2.785 2.785 0 002.22-.934 3.833 3.833 0 00.81-2.581v-1.35a3.813 3.813 0 00-.833-2.544 2.727 2.727 0 00-2.155-.925h-2.052zm-6.206 0v8.334h1.566v-2.932h1.044a2.47 2.47 0 001.873-.71c.473-.53.719-1.224.683-1.933a2.875 2.875 0 00-.687-1.99 2.334 2.334 0 00-1.838-.769H5.667zm10-16.666V12H24l-8.334-8.333zM13.91 27.27h-.47v-5.535h.57c.405-.024.794.16 1.033.487.245.505.35 1.067.304 1.626v1.449a2.819 2.819 0 01-.334 1.535 1.275 1.275 0 01-1.103.438zm-5.602-2.937H7.231v-2.598h1.092a.792.792 0 01.667.378c.18.298.267.643.25.99a1.49 1.49 0 01-.245.917.833.833 0 01-.687.313z" fill="#67A030"/></svg>