<svg width="192" height="110" fill="none" xmlns="http://www.w3.org/2000/svg"><path fill-rule="evenodd" clip-rule="evenodd" d="M95.568.134c0 .085-1.103.134-3.022.134-1.92 0-3.023.048-3.023.133 0 .083-.72.134-1.87.134-1.152 0-1.872.052-1.872.134 0 .193-.536.165-.636-.033-.067-.134-.1-.134-.167 0-.056.11-.424.167-1.08.167-.568 0-.995.057-.995.134 0 .078-.48.134-1.152.134-.672 0-1.151.055-1.151.133 0 .074-.254.134-.564.134-.316 0-.596.074-.637.167-.055.127-.113.119-.239-.033-.125-.152-.183-.16-.238-.033-.04.092-.262.167-.493.167-.231 0-.42.06-.42.134 0 .076-.432.133-1.008.133-.575 0-1.007.058-1.007.134 0 .074-.13.134-.288.134-.158 0-.288.06-.288.134 0 .074-.384.134-.863.134-.48 0-.864.06-.864.134 0 .076-.432.133-1.007.133-.576 0-1.008.058-1.008.134 0 .074-.194.134-.432.134-.237 0-.431.06-.431.134 0 .074-.384.134-.864.134s-.864.06-.864.133c0 .074-.323.134-.72.134-.395 0-.719.06-.719.134 0 .074-.259.134-.576.134-.316 0-.575.06-.575.134 0 .074-.384.134-.864.134s-.863.059-.863.133c0 .074-.195.134-.432.134-.238 0-.432.06-.432.134 0 .074-.259.134-.576.134-.316 0-.575.06-.575.134 0 .073-.13.134-.288.134-.159 0-.288.06-.288.133 0 .074-.194.134-.432.134-.237 0-.432.06-.432.134 0 .074-.18.134-.4.134-.234 0-.485.11-.607.267-.145.187-.373.268-.752.268-.299 0-.544.06-.544.134 0 .074-.194.134-.431.134-.238 0-.432.06-.432.134 0 .073-.13.133-.288.133-.158 0-.288.06-.288.134 0 .074-.13.134-.288.134-.158 0-.288.06-.288.134 0 .073-.194.134-.431.134-.238 0-.432.06-.432.133 0 .074-.13.134-.288.134-.158 0-.288.06-.288.134 0 .074-.13.134-.288.134-.158 0-.288.06-.288.134 0 .073-.194.134-.431.134-.238 0-.432.06-.432.133 0 .074-.13.134-.288.134-.158 0-.288.06-.288.134 0 .074-.194.134-.432.134-.237 0-.431.06-.431.134 0 .073-.13.133-.288.133-.159 0-.288.06-.288.134 0 .074-.13.134-.288.134-.158 0-.288.06-.288.134 0 .074-.13.134-.288.134-.158 0-.288.06-.288.134 0 .073-.129.133-.287.133-.159 0-.288.06-.288.134 0 .074-.168.134-.374.134-.23 0-.53.155-.778.402-.248.246-.547.401-.777.401-.206 0-.374.06-.374.134 0 .073-.115.134-.256.134-.141 0-.35.12-.464.267-.122.157-.372.268-.607.268-.22 0-.4.06-.4.134 0 .073-.115.133-.256.133-.141 0-.35.121-.464.268-.114.147-.322.268-.463.268-.141 0-.256.06-.256.134 0 .073-.13.133-.288.133-.159 0-.288.06-.288.134 0 .074-.13.134-.288.134-.158 0-.288.06-.288.134 0 .074-.115.134-.256.134-.14 0-.35.12-.463.267-.115.148-.323.268-.464.268-.14 0-.256.06-.256.134 0 .073-.13.134-.288.134-.158 0-.288.06-.288.133 0 .074-.115.134-.256.134-.14 0-.35.12-.463.268-.115.147-.323.268-.464.268-.14 0-.256.06-.256.133 0 .074-.13.134-.288.134-.158 0-.288.06-.288.134 0 .074-.115.134-.256.134-.14 0-.35.12-.464.268-.114.147-.322.267-.463.267-.14 0-.256.06-.256.134 0 .073-.104.134-.23.134-.127 0-.412.18-.634.401-.221.221-.48.402-.572.402-.094 0-.419.24-.723.535-.304.294-.63.535-.723.535-.093 0-.35.18-.572.402-.222.22-.48.401-.571.401-.092 0-.483.301-.869.67-.385.367-.776.668-.868.668-.092 0-.35.181-.571.402-.222.22-.48.401-.573.401-.093 0-.418.241-.722.536-.305.294-.626.535-.716.535-.089 0-.609.421-1.155.937-.547.515-1.062.936-1.146.936-.196 0-9.217 8.386-9.217 8.569 0 .076-.648.737-1.44 1.468-.791.73-1.439 1.408-1.439 1.505 0 .096-.13.262-.288.368-.158.106-.287.276-.287.378 0 .101-.195.353-.432.559-.238.206-.432.447-.432.535 0 .089-.194.33-.432.536-.237.206-.432.47-.432.589 0 .117-.064.214-.143.214-.08 0-.145.096-.145.213 0 .118-.194.383-.431.59-.238.206-.432.445-.432.532 0 .087-.26.389-.576.672-.316.283-.575.61-.575.725 0 .116-.065.212-.144.212-.08 0-.144.096-.144.214 0 .117-.195.382-.432.589-.238.206-.432.457-.432.559 0 .101-.13.271-.288.377-.158.106-.288.3-.288.431s-.064.238-.144.238c-.079 0-.143.096-.143.214s-.195.383-.432.59c-.238.205-.432.457-.432.559 0 .101-.13.27-.288.377-.158.106-.288.3-.288.431 0 .13-.065.238-.144.238-.079 0-.144.12-.144.268 0 .147-.064.267-.144.267-.079 0-.143.107-.143.238s-.13.325-.288.431c-.159.107-.288.3-.288.431s-.065.239-.144.239c-.08 0-.144.12-.144.267 0 .147-.065.268-.144.268-.08 0-.144.12-.144.268 0 .147-.065.267-.144.267-.079 0-.144.18-.144.402 0 .22-.065.401-.144.401-.079 0-.144.12-.144.268 0 .147-.064.267-.144.267-.079 0-.143.12-.143.268 0 .147-.065.268-.144.268-.08 0-.144.167-.144.372a.713.713 0 01-.288.564.713.713 0 00-.288.565c0 .205-.065.372-.144.372-.08 0-.144.167-.144.372a.713.713 0 01-.288.565.713.713 0 00-.288.565c0 .204-.064.372-.144.372-.079 0-.143.167-.143.371a.713.713 0 01-.288.565c-.2.135-.288.347-.288.699 0 .278-.065.506-.144.506-.08 0-.144.12-.144.267 0 .148-.065.268-.144.268-.08 0-.144.12-.144.268 0 .147-.065.267-.144.267-.079 0-.144.18-.144.402 0 .22-.064.401-.144.401-.079 0-.144.12-.144.268 0 .147-.064.267-.143.267-.08 0-.144.12-.144.268 0 .147-.065.268-.144.268-.08 0-.144.18-.144.401 0 .221-.065.402-.144.402-.08 0-.144.12-.144.267 0 .148-.065.268-.144.268-.08 0-.144.213-.144.474 0 .574.53 1.132 1.073 1.132.201 0 .366.06.366.134 0 .073.13.133.288.133.158 0 .288.06.288.134 0 .074.103.134.23.134s.412.18.634.402c.221.22.506.4.633.4s.23.061.23.135c0 .073.18.134.4.134.235 0 .486.11.608.267.114.148.372.268.575.268.203 0 .462.12.576.267.114.148.323.268.464.268.14 0 .256.06.256.134 0 .074.115.134.256.134.14 0 .35.12.463.267.114.148.323.268.464.268.14 0 .256.06.256.134 0 .073.13.134.288.134.158 0 .288.06.288.133 0 .074.13.134.288.134.158 0 .287.06.287.134 0 .074.195.134.432.134.336 0 .432.06.432.268 0 .178.096.267.288.267.158 0 .288.06.288.134 0 .074.13.134.287.134.159 0 .288.06.288.134 0 .073.13.134.288.134.159 0 .288.06.288.133 0 .074.13.134.288.134.158 0 .288.06.288.134 0 .074.115.134.256.134.14 0 .35.12.463.267.122.158.373.268.608.268.22 0 .4.06.4.134 0 .073.115.134.256.134.14 0 .35.12.464.267.114.148.322.268.463.268.14 0 .256.06.256.134 0 .073.18.134.4.134.235 0 .486.11.608.267.114.148.308.268.431.268.124 0 .318.12.432.268.114.147.323.267.464.267.14 0 .256.06.256.134 0 .074.13.134.288.134.158 0 .288.06.288.134 0 .073.18.134.4.134.235 0 .485.11.607.267.114.147.309.268.432.268s.318.12.432.267c.114.148.322.268.463.268.141 0 .256.06.256.134 0 .073.195.134.432.134.238 0 .432.06.432.133 0 .074.13.134.288.134.158 0 .288.06.288.134 0 .074.115.134.256.134.14 0 .35.12.463.268.114.147.323.267.464.267.14 0 .256.06.256.134 0 .074.115.134.256.134.14 0 .35.12.463.267.115.148.323.268.464.268.14 0 .256.06.256.134 0 .074.116.134.256.134.141 0 .35.12.464.268.114.147.323.267.463.267.141 0 .256.06.256.134 0 .073.13.134.288.134.159 0 .288.06.288.134 0 .073.13.133.288.133.158 0 .288.06.288.134 0 .074.13.134.288.134.158 0 .288.06.288.134 0 .073.13.134.287.134.159 0 .288.06.288.133 0 .074.13.134.288.134.159 0 .288.06.288.134 0 .074.115.134.256.134.141 0 .35.12.464.268.114.147.372.267.575.267.204 0 .462.12.576.268.114.147.323.267.464.267.14 0 .256.06.256.134 0 .074.13.134.288.134.158 0 .287.06.287.134 0 .074.116.134.256.134.141 0 .35.12.464.267.114.148.323.268.464.268.14 0 .256.06.256.134 0 .073.13.134.288.134.158 0 .287.06.287.133 0 .074.13.134.288.134.159 0 .288.06.288.134 0 .074.115.134.256.134.141 0 .35.12.464.268.114.147.322.267.463.267.141 0 .256.06.256.134 0 .074.13.134.288.134.159 0 .288.06.288.134 0 .073.13.133.288.133.158 0 .288.06.288.134 0 .074.13.134.288.134.158 0 .288.06.288.134 0 .074.13.134.287.134.159 0 .288.06.288.134 0 .073.116.133.256.133.141 0 .35.12.464.268.114.147.323.268.464.268.14 0 .256.06.256.134 0 .073.13.133.287.133.159 0 .288.06.288.134 0 .074.13.134.288.134.158 0 .288.06.288.134 0 .073.13.134.288.134.158 0 .288.06.288.133 0 .074.13.134.288.134.158 0 .287.06.287.134 0 .074.116.134.257.134.14 0 .349.12.463.268.114.147.323.267.464.267.14 0 .256.06.256.134 0 .074.13.134.288.134.158 0 .287.06.287.134 0 .073.116.133.257.133.14 0 .349.12.463.268.114.147.323.268.464.268.14 0 .256.06.256.134 0 .073.13.133.287.133.159 0 .288.06.288.134 0 .074.13.134.288.134.159 0 .288.06.288.134 0 .074.13.134.288.134.158 0 .288.06.288.134 0 .073.13.133.288.133.158 0 .287.06.287.134 0 .074.13.134.288.134.159 0 .288.06.288.134 0 .073.115.134.256.134.141 0 .35.12.464.267.114.148.372.268.576.268.203 0 .46.12.575.267.114.148.323.268.464.268.14 0 .256.06.256.134 0 .074.13.134.288.134.158 0 .288.06.288.134 0 .073.115.133.256.133.14 0 .35.12.463.268.114.147.323.268.464.268.14 0 .256.06.256.134 0 .073.13.133.288.133.158 0 .288.06.288.134 0 .074.13.134.288.134.158 0 .287.06.287.134 0 .073.13.134.288.134.159 0 .288.06.288.134 0 .073.13.133.288.133.158 0 .288.06.288.134 0 .074.13.134.288.134.158 0 .288.06.288.134 0 .073.103.134.23.134.126 0 .411.18.633.401.222.22.507.401.633.401.127 0 .23.06.23.134 0 .074.13.134.288.134.159 0 .288.06.288.134 0 .074.13.134.288.134.159 0 .288.06.288.134 0 .073.18.133.4.133.235 0 .486.11.608.268.114.147.322.268.463.268.14 0 .256.06.256.133 0 .074.13.134.288.134.158 0 .288.06.288.134 0 .074.13.134.288.134.158 0 .288.06.288.134 0 .073.115.134.256.134.14 0 .35.12.463.267.114.147.323.268.464.268.14 0 .256.06.256.134 0 .073.168.133.374.133.23 0 .53.155.777.402.222.22.507.401.634.401.126 0 .23.06.23.134 0 .074.13.134.288.134.158 0 .288.06.288.134 0 .073.13.134.287.134.159 0 .288.06.288.133 0 .074.13.134.288.134.159 0 .288.06.288.134 0 .074.13.134.288.134.158 0 .288.06.288.134 0 .073.13.134.288.134.158 0 .287.06.287.133 0 .074.116.134.257.134.14 0 .349.12.463.268.114.147.323.268.464.268.14 0 .256.06.256.133 0 .074.13.134.288.134.158 0 .287.06.287.134 0 .074.13.134.288.134.159 0 .288.06.288.134 0 .073.13.133.288.133.158 0 .288.06.288.134 0 .074.115.134.256.134.14 0 .35.12.464.268.114.147.322.267.463.267.14 0 .256.06.256.134 0 .074.13.134.288.134.158 0 .288.06.288.134 0 .073.115.134.256.134.14 0 .35.12.464.267.114.148.322.268.463.268.14 0 .256.06.256.134 0 .073.18.134.4.134.235 0 .486.11.608.267.114.147.308.268.431.268.124 0 .318.12.432.268.114.147.323.267.464.267.14 0 .256.06.256.134 0 .074.18.134.4.134.235 0 .485.11.607.267.114.148.323.268.464.268.14 0 .256.06.256.134 0 .074.13.134.288.134.158 0 .288.06.288.134 0 .073.115.133.256.133.14 0 .35.121.463.268.115.148.373.268.576.268.203 0 .461.12.576.267.114.147.322.268.463.268.141 0 .256.06.256.134 0 .073.18.134.4.134.235 0 .486.11.608.267.114.147.323.268.464.268.14 0 .255.06.255.134 0 .073.13.133.288.133.159 0 .288.061.288.134 0 .074.116.134.256.134.141 0 .35.121.464.268.114.147.323.267.464.267.14 0 .255.061.255.134 0 .074.13.134.288.134.159 0 .288.06.288.134 0 .073.116.134.256.134.141 0 .35.12.464.267.114.148.323.268.464.268.14 0 .256.06.256.134 0 .073.115.134.256.134.14 0 .349.12.463.267.114.147.323.268.464.268.14 0 .256.06.256.134 0 .073.13.134.288.134.158 0 .288.06.288.133 0 .074.13.134.287.134.159 0 .288.06.288.134 0 .074.115.134.256.134.141 0 .35.12.464.267.114.148.323.268.464.268.14 0 .256.06.256.134 0 .074.129.134.287.134.159 0 .288.06.288.134 0 .073.195.133.432.133s.432.061.432.134c0 .074.13.134.288.134.158 0 .288-.06.288-.134 0-.073.194-.134.431-.134.238 0 .432-.06.432-.133 0-.074.13-.134.288-.134.158 0 .288-.06.288-.134 0-.074.13-.134.288-.134.158 0 .287-.06.287-.134 0-.073.18-.134.4-.134.235 0 .486-.11.608-.267.122-.157.373-.268.608-.268.22 0 .4-.06.4-.134 0-.073.115-.133.255-.133.141 0 .35-.121.464-.268.122-.157.373-.268.608-.268.22 0 .4-.06.4-.134 0-.073.129-.133.287-.133.159 0 .288-.061.288-.134 0-.074.13-.134.288-.134.159 0 .288-.06.288-.134 0-.073.13-.134.288-.134.158 0 .288-.06.288-.133 0-.074.115-.134.256-.134.141 0 .349-.121.463-.268.122-.157.373-.268.608-.268.22 0 .4-.06.4-.133 0-.074.129-.134.288-.134.158 0 .288-.06.288-.134 0-.074.129-.134.287-.134.159 0 .288-.06.288-.134 0-.073.13-.134.288-.134.158 0 .288-.06.288-.133 0-.074.115-.134.256-.134.141 0 .35-.121.464-.268.114-.147.372-.267.575-.267.203 0 .462-.12.576-.268.114-.147.323-.268.464-.268.14 0 .256-.06.256-.134 0-.073.129-.133.288-.133.158 0 .287-.061.287-.134 0-.074.195-.134.432-.134.238 0 .432-.06.432-.134 0-.073.13-.134.288-.134.158 0 .288-.06.288-.133 0-.074.129-.134.288-.134.158 0 .287-.06.287-.134 0-.074.13-.134.288-.134.159 0 .288-.06.288-.134 0-.073.13-.134.288-.134.158 0 .288-.06.288-.133 0-.074.129-.134.288-.134.158 0 .288-.06.288-.134 0-.074.129-.134.287-.134.159 0 .288-.06.288-.134 0-.073.13-.133.288-.133.158 0 .288-.061.288-.134 0-.074.13-.134.288-.134.158 0 .288-.06.288-.134 0-.074.129-.134.288-.134.158 0 .287-.06.287-.134 0-.073.13-.133.288-.133.159 0 .288-.061.288-.134 0-.074.13-.134.288-.134.158 0 .288-.06.288-.134 0-.073.129-.134.288-.134.158 0 .288-.06.288-.133 0-.074.18-.134.4-.134.234 0 .485-.11.607-.268.114-.147.323-.268.464-.268.14 0 .256-.06.256-.133 0-.074.129-.134.288-.134.158 0 .287-.06.287-.134 0-.074.13-.134.288-.134.159 0 .288-.06.288-.134 0-.073.13-.133.288-.133.158 0 .288-.06.288-.134 0-.074.115-.134.256-.134.141 0 .349-.12.463-.268.115-.147.373-.267.576-.267.203 0 .461-.12.576-.268.114-.147.323-.268.463-.268.141 0 .257-.06.257-.134 0-.073.259-.133.575-.133.317 0 .576-.06.576-.134 0-.074.13-.134.288-.134.158 0 .288-.06.288-.134 0-.073.115-.134.256-.134.141 0 .349-.12.463-.267.114-.147.323-.268.464-.268.141 0 .256-.06.256-.134 0-.073.18-.134.4-.134.235 0 .486-.11.607-.267.115-.147.323-.268.464-.268.141 0 .256-.06.256-.134 0-.073.18-.133.4-.133.235 0 .486-.111.608-.268.114-.147.322-.268.463-.268.141 0 .256-.06.256-.134 0-.073.18-.133.4-.133.235 0 .486-.11.608-.268.114-.147.322-.268.463-.268.141 0 .256-.06.256-.134 0-.073.18-.133.4-.133.235 0 .486-.11.608-.268.114-.147.323-.268.463-.268.141 0 .257-.06.257-.133 0-.074.18-.134.399-.134.235 0 .486-.11.608-.268.114-.147.323-.267.464-.267.14 0 .256-.06.256-.134 0-.074.129-.134.288-.134.158 0 .287-.06.287-.134 0-.074.13-.134.288-.134.159 0 .288-.06.288-.134 0-.073.13-.133.288-.133.158 0 .288-.06.288-.134 0-.074.129-.134.288-.134.158 0 .287-.06.287-.134 0-.074.195-.134.432-.134.238 0 .432-.06.432-.133 0-.074.13-.134.288-.134.158 0 .288-.06.288-.134 0-.074.129-.134.288-.134.158 0 .287-.06.287-.134 0-.073.116-.134.257-.134.14 0 .349-.12.463-.267.122-.157.373-.268.608-.268.22 0 .4-.06.4-.134 0-.073.129-.134.287-.134.159 0 .288-.06.288-.133 0-.074.18-.134.4-.134.235 0 .486-.11.608-.268.114-.147.323-.267.463-.267.141 0 .256-.06.256-.134 0-.074.181-.134.4-.134.235 0 .486-.11.608-.268.114-.147.323-.267.464-.267.14 0 .256-.06.256-.134 0-.074.129-.134.287-.134.159 0 .288-.06.288-.134 0-.073.13-.134.288-.134.158 0 .288-.06.288-.133 0-.074.115-.134.256-.134.141 0 .35-.12.464-.268.122-.157.372-.268.607-.268.22 0 .4-.06.4-.133 0-.074.115-.134.256-.134.141 0 .35-.12.464-.268.114-.147.322-.267.463-.267.141 0 .256-.06.256-.134 0-.074.195-.134.432-.134.238 0 .432-.06.432-.134 0-.074.194-.134.432-.134.237 0 .432-.06.432-.134 0-.073.129-.133.287-.133.159 0 .288-.06.288-.134 0-.074.116-.134.256-.134.141 0 .35-.12.464-.268.114-.147.323-.267.464-.267.14 0 .256-.06.256-.134 0-.074.129-.134.287-.134.159 0 .288-.06.288-.134 0-.073.13-.134.288-.134.158 0 .288-.06.288-.133 0-.074.194-.134.432-.134.237 0 .432-.06.432-.134 0-.074.115-.134.256-.134.141 0 .349-.12.463-.268.115-.147.373-.267.576-.267.203 0 .461-.12.576-.268.122-.157.372-.267.607-.267.22 0 .4-.06.4-.134 0-.074.115-.134.256-.134.141 0 .35-.12.464-.268.114-.147.322-.267.463-.267.141 0 .256-.06.256-.134 0-.074.13-.134.288-.134.159 0 .288-.06.288-.134 0-.073.13-.134.288-.134.158 0 .288-.06.288-.133 0-.074.129-.134.288-.134.158 0 .288-.06.288-.134 0-.074.129-.134.287-.134.159 0 .288-.06.288-.134 0-.073.13-.134.288-.134.158 0 .288-.06.288-.133 0-.074.13-.134.288-.134.158 0 .288-.06.288-.134 0-.074.129-.134.288-.134.158 0 .287-.06.287-.134 0-.073.195-.134.432-.134.238 0 .432-.06.432-.133 0-.074.129-.134.288-.134.158 0 .288-.06.288-.134 0-.074.129-.134.288-.134.158 0 .287-.06.287-.134 0-.073.13-.133.288-.133.159 0 .288-.06.288-.134 0-.074.13-.134.288-.134.158 0 .288-.06.288-.134 0-.073.129-.134.288-.134.158 0 .288-.06.288-.133 0-.074.129-.134.287-.134.159 0 .288-.06.288-.134 0-.074.13-.134.288-.134.158 0 .288-.06.288-.134 0-.073.129-.134.288-.134.158 0 .288-.06.288-.133 0-.074.129-.134.288-.134.158 0 .287-.06.287-.134 0-.074.18-.134.4-.134.235 0 .486-.11.608-.267.114-.148.323-.268.463-.268.141 0 .257-.06.257-.134 0-.074.18-.134.399-.134.235 0 .486-.11.608-.267.114-.148.373-.268.576-.268.203 0 .461-.12.575-.268.115-.147.323-.267.464-.267.141 0 .256-.06.256-.134 0-.074.115-.134.256-.134.141 0 .35-.12.464-.268.14-.181.372-.267.719-.267s.579-.087.72-.268c.122-.157.373-.268.608-.268.219 0 .399-.06.399-.133 0-.074.116-.134.257-.134.14 0 .349-.12.463-.268.114-.147.323-.267.464-.267.14 0 .256-.06.256-.134 0-.074.18-.134.4-.134.235 0 .485-.11.607-.268.114-.147.323-.267.464-.267.141 0 .256-.06.256-.134 0-.074.18-.134.4-.134.235 0 .485-.11.607-.268.122-.157.373-.267.608-.267.22 0 .4-.06.4-.134 0-.074.129-.134.288-.134.158 0 .288-.06.288-.134 0-.073.129-.134.287-.134.159 0 .288-.06.288-.133 0-.074.13-.134.288-.134.159 0 .288-.06.288-.134 0-.074.115-.134.256-.134.141 0 .35-.12.464-.267.122-.158.372-.268.607-.268.22 0 .4-.06.4-.134 0-.074.13-.134.288-.134.158 0 .288-.06.288-.134 0-.073.18-.133.4-.133.235 0 .485-.111.607-.268.115-.147.323-.268.464-.268.141 0 .256-.06.256-.134 0-.073.13-.133.288-.133.158 0 .288-.06.288-.134 0-.074.194-.134.432-.134.237 0 .431-.06.431-.134 0-.073.116-.134.256-.134.141 0 .35-.12.464-.267a.775.775 0 01.54-.268c.455 0 1.331-.834 1.331-1.267 0-.186-.065-.339-.144-.339-.079 0-.144-.12-.144-.267 0-.148-.065-.268-.144-.268-.079 0-.144-.18-.144-.401 0-.221-.064-.402-.144-.402-.079 0-.144-.12-.144-.268 0-.147-.064-.267-.143-.267-.08 0-.144-.18-.144-.402 0-.22-.065-.401-.144-.401-.08 0-.144-.18-.144-.402 0-.22-.065-.401-.144-.401-.079 0-.144-.18-.144-.402 0-.22-.065-.401-.144-.401-.079 0-.144-.12-.144-.268 0-.147-.065-.267-.144-.267-.079 0-.144-.181-.144-.402 0-.22-.065-.401-.144-.401-.079 0-.144-.18-.144-.402 0-.22-.064-.401-.144-.401-.079 0-.144-.12-.144-.268 0-.147-.064-.267-.143-.267-.08 0-.144-.181-.144-.402 0-.22-.065-.401-.144-.401-.08 0-.144-.181-.144-.402 0-.22-.065-.401-.144-.401-.079 0-.144-.12-.144-.268 0-.147-.065-.267-.144-.267-.079 0-.144-.181-.144-.402 0-.22-.065-.401-.144-.401-.079 0-.144-.12-.144-.268 0-.147-.065-.268-.144-.268-.079 0-.144-.12-.144-.267 0-.148-.064-.268-.144-.268-.079 0-.144-.24-.144-.535 0-.295-.064-.536-.143-.536-.08 0-.144-.167-.144-.371a.713.713 0 00-.288-.565.713.713 0 01-.288-.565c0-.205-.065-.372-.144-.372-.079 0-.144-.12-.144-.268 0-.147-.065-.267-.144-.267-.079 0-.144-.12-.144-.268 0-.147-.065-.268-.144-.268-.079 0-.144-.107-.144-.238 0-.13-.129-.325-.288-.43-.158-.107-.287-.288-.287-.402 0-.115-.13-.295-.288-.402-.159-.106-.288-.286-.288-.401 0-.115-.13-.295-.288-.402-.158-.106-.288-.3-.288-.43 0-.132-.065-.239-.144-.239-.079 0-.144-.107-.144-.238 0-.13-.129-.325-.288-.43-.158-.107-.287-.288-.287-.402 0-.115-.13-.296-.288-.402-.159-.106-.288-.287-.288-.401 0-.115-.13-.295-.288-.402-.158-.106-.288-.286-.288-.401 0-.115-.129-.295-.288-.401-.158-.107-.288-.287-.288-.402 0-.115-.129-.295-.287-.401-.159-.107-.288-.287-.288-.402 0-.115-.13-.295-.288-.401-.158-.107-.288-.287-.288-.402 0-.114-.129-.295-.288-.401-.158-.106-.288-.3-.288-.431s-.064-.238-.144-.238c-.079 0-.144-.108-.144-.238 0-.131-.129-.325-.287-.431-.159-.107-.288-.276-.288-.378 0-.101-.195-.353-.432-.56-.238-.205-.432-.457-.432-.559 0-.101-.129-.27-.288-.377-.158-.106-.288-.276-.288-.377 0-.102-.194-.353-.431-.56-.238-.206-.432-.447-.432-.535 0-.088-.194-.329-.432-.535-.237-.206-.432-.443-.432-.526 0-.083-.777-.87-1.727-1.75-.95-.878-1.727-1.664-1.727-1.745 0-.082-.259-.38-.576-.663-.316-.283-.575-.58-.575-.662 0-.082-.842-.928-1.871-1.88-1.029-.953-1.871-1.795-1.871-1.872 0-.185-3.553-3.481-3.753-3.481-.086 0-.405-.241-.709-.536-.305-.294-.63-.535-.723-.535-.093 0-.351-.18-.573-.401-.221-.221-.507-.402-.633-.402-.127 0-.23-.06-.23-.134 0-.073-.104-.133-.23-.133-.127 0-.412-.181-.634-.402-.222-.22-.492-.401-.601-.401-.109 0-.292-.12-.406-.268-.114-.147-.309-.268-.432-.268s-.318-.12-.432-.267c-.114-.148-.297-.268-.406-.268-.109 0-.38-.18-.601-.401-.222-.221-.507-.402-.634-.402-.126 0-.23-.06-.23-.134 0-.073-.103-.133-.23-.133s-.412-.181-.633-.402c-.222-.22-.493-.401-.602-.401-.109 0-.292-.12-.406-.268-.114-.147-.297-.268-.406-.268-.109 0-.38-.18-.601-.401-.222-.22-.493-.402-.602-.402-.109 0-.292-.12-.406-.267-.114-.147-.323-.268-.464-.268-.14 0-.256-.06-.256-.134 0-.073-.103-.133-.23-.133-.126 0-.411-.181-.633-.402-.222-.22-.493-.401-.602-.401-.109 0-.291-.12-.406-.268-.114-.147-.322-.268-.463-.268-.141 0-.256-.06-.256-.133 0-.074-.104-.134-.23-.134-.127 0-.412-.181-.634-.402-.222-.22-.493-.401-.601-.401-.11 0-.292-.12-.406-.268-.114-.147-.323-.268-.464-.268-.141 0-.256-.06-.256-.133 0-.074-.115-.134-.256-.134-.141 0-.349-.12-.464-.268-.114-.147-.372-.268-.575-.268-.203 0-.462-.12-.576-.267-.122-.157-.373-.268-.608-.268-.219 0-.4-.06-.4-.134 0-.073-.18-.133-.4-.133-.234 0-.485-.11-.607-.268-.114-.147-.323-.268-.464-.268-.14 0-.256-.06-.256-.133 0-.074-.129-.134-.288-.134-.158 0-.287-.06-.287-.134 0-.074-.13-.134-.288-.134-.159 0-.288-.06-.288-.134 0-.073-.13-.134-.288-.134-.158 0-.288-.06-.288-.133 0-.074-.129-.134-.288-.134-.158 0-.288-.06-.288-.134 0-.074-.129-.134-.287-.134-.159 0-.288-.06-.288-.134 0-.073-.13-.134-.288-.134-.158 0-.288-.06-.288-.133 0-.074-.129-.134-.288-.134-.158 0-.288-.06-.288-.134 0-.074-.129-.134-.288-.134-.158 0-.287-.06-.287-.134 0-.073-.18-.133-.4-.133-.235 0-.486-.111-.608-.268-.122-.157-.372-.268-.607-.268-.22 0-.4-.06-.4-.134 0-.073-.195-.133-.432-.133-.238 0-.432-.06-.432-.134 0-.074-.115-.134-.256-.134-.141 0-.349-.12-.464-.268-.144-.186-.372-.267-.751-.267-.299 0-.544-.06-.544-.134 0-.074-.194-.134-.432-.134-.237 0-.431-.06-.431-.134 0-.073-.195-.134-.432-.134-.238 0-.432-.06-.432-.133 0-.074-.194-.134-.432-.134-.237 0-.432-.06-.432-.134 0-.074-.194-.134-.431-.134-.238 0-.432-.06-.432-.134 0-.073-.259-.133-.576-.133-.317 0-.576-.06-.576-.134 0-.074-.259-.134-.575-.134-.317 0-.576-.06-.576-.134 0-.074-.194-.134-.432-.134-.237 0-.432-.06-.432-.134 0-.073-.259-.133-.575-.133-.317 0-.576-.06-.576-.134 0-.074-.13-.134-.288-.134-.158 0-.288-.06-.288-.134 0-.073-.324-.134-.719-.134-.396 0-.72-.06-.72-.134 0-.073-.324-.133-.72-.133-.395 0-.719-.06-.719-.134 0-.074-.13-.134-.288-.134-.158 0-.288-.06-.288-.134 0-.073-.259-.134-.576-.134-.316 0-.575-.06-.575-.133 0-.074-.324-.134-.72-.134-.396 0-.72-.06-.72-.134 0-.074-.129-.134-.288-.134-.158 0-.287-.06-.287-.134 0-.076-.432-.134-1.008-.134-.576 0-1.007-.057-1.007-.133 0-.08-.528-.134-1.296-.134-.767 0-1.295-.055-1.295-.134 0-.074-.324-.134-.72-.134-.396 0-.719-.06-.719-.134 0-.08-.624-.133-1.584-.133-.959 0-1.583-.053-1.583-.134 0-.077-.432-.134-1.007-.134-.576 0-1.008-.057-1.008-.134 0-.076-.432-.134-1.007-.134-.576 0-1.008-.057-1.008-.134 0-.082-.719-.133-1.871-.133-1.151 0-1.87-.052-1.87-.134 0-.083-.817-.134-2.16-.134-1.343 0-2.159.05-2.159.134zm4.606 5.888c0 .078.48.134 1.151.134.672 0 1.152.056 1.152.134 0 .074.384.133.863.133.48 0 .864.06.864.134 0 .081.624.134 1.583.134.96 0 1.583.053 1.583.134 0 .074.384.134.864.134s.863.06.863.133c0 .074.324.134.72.134.396 0 .72.06.72.134 0 .08.575.134 1.439.134.864 0 1.439.053 1.439.134 0 .073.195.134.432.134.238 0 .432.06.432.133 0 .08.576.134 1.439.134.864 0 1.439.054 1.439.134 0 .074.259.134.576.134.317 0 .576.06.576.134 0 .073.129.133.288.133.158 0 .288.06.288.134 0 .074.323.134.719.134.396 0 .72.06.72.134 0 .074.194.134.432.134.237 0 .431.06.431.134 0 .073.195.133.432.133.238 0 .432.06.432.134 0 .074.259.134.576.134.316 0 .575.06.575.134 0 .073.259.134.576.134.317 0 .576.06.576.133 0 .074.194.134.432.134.237 0 .431.06.431.134 0 .074.13.134.288.134.159 0 .288.06.288.134 0 .073.259.134.576.134.316 0 .576.06.576.133 0 .074.129.134.287.134.159 0 .288.06.288.134 0 .074.259.134.576.134.317 0 .576.06.576.134 0 .073.194.133.431.133.238 0 .432.06.432.134 0 .074.13.134.288.134.158 0 .288.06.288.134 0 .074.194.134.432.134.237 0 .432.06.432.134 0 .073.129.133.287.133.159 0 .288.06.288.134 0 .074.13.134.288.134.158 0 .288.06.288.134 0 .074.194.134.432.134.237 0 .432.06.432.133 0 .074.129.134.287.134.159 0 .288.06.288.134 0 .074.195.134.432.134s.432.06.432.134c0 .073.194.134.432.134.237 0 .431.06.431.133 0 .074.13.134.288.134.159 0 .288.06.288.134 0 .074.194.134.432.134.237 0 .432.06.432.134 0 .073.129.134.287.134.159 0 .288.06.288.133 0 .074.13.134.288.134.159 0 .288.06.288.134 0 .074.18.134.4.134.235 0 .486.11.608.268.114.147.322.267.463.267.141 0 .256.06.256.134 0 .073.18.134.4.134.235 0 .486.11.608.267.114.148.308.268.431.268.124 0 .318.12.432.268.114.147.323.267.464.267.141 0 .256.06.256.134 0 .074.129.134.288.134.158 0 .288.06.288.134 0 .073.115.134.256.134.141 0 .349.12.463.267.122.157.373.268.608.268.22 0 .4.06.4.134 0 .073.115.134.256.134.141 0 .349.12.463.267.115.147.323.268.464.268.141 0 .256.06.256.134 0 .073.115.133.256.133.141 0 .35.12.464.268.114.147.322.268.463.268.141 0 .256.06.256.134 0 .073.13.133.288.133.158 0 .288.06.288.134 0 .074.104.134.23.134.127 0 .412.18.634.401.221.221.48.402.575.402.095 0 .354.18.576.401.222.221.481.402.576.402.095 0 .354.18.575.401.222.221.507.402.634.402.134 0 .23.111.23.267 0 .179.096.268.288.268.158 0 .288.06.288.134 0 .073.102.134.227.134s.476.24.78.535c.304.294.63.535.723.535.093 0 .351.18.573.402.221.22.492.401.601.401.109 0 .292.12.406.268.114.147.293.267.398.267.105 0 .703.482 1.329 1.071.627.589 1.207 1.07 1.29 1.07.197 0 8.353 7.584 8.353 7.767 0 .077.519.617 1.152 1.2.633.582 1.151 1.151 1.151 1.265 0 .117.125.206.288.206.166 0 .288.09.288.212 0 .116.259.442.576.725.316.283.575.583.575.666 0 .084.389.507.864.94.475.434.863.882.863.996 0 .12.124.209.288.209.192 0 .288.089.288.267 0 .147.065.268.144.268.079 0 .144.12.144.267 0 .148.065.268.144.268.079 0 .144.12.144.268 0 .147.065.267.144.267.079 0 .144.12.144.268 0 .147.065.268.144.268.079 0 .144.107.144.238 0 .13.129.325.287.43.159.107.288.3.288.432 0 .13.065.238.144.238.079 0 .144.12.144.267 0 .148.065.268.144.268.079 0 .144.12.144.268 0 .147.065.267.144.267.079 0 .144.107.144.238s.129.325.288.431c.158.107.288.3.288.431s.064.239.144.239c.079 0 .143.167.143.371 0 .219.119.452.288.565.159.106.288.3.288.431s.065.238.144.238c.079 0 .144.108.144.238 0 .132.13.325.288.431.158.107.288.3.288.431s.065.239.144.239c.079 0 .144.167.144.372 0 .218.119.451.287.564a.713.713 0 01.288.565c0 .205.065.372.144.372.079 0 .144.18.144.401 0 .221.065.402.144.402.079 0 .144.12.144.268 0 .147.065.267.144.267.079 0 .144.12.144.268 0 .147.065.267.144.267.079 0 .144.121.144.268 0 .147.065.268.144.268.079 0 .144.12.144.267 0 .148.064.268.144.268.079 0 .143.12.143.268 0 .147.065.267.144.267.08 0 .144.181.144.402 0 .22.065.401.144.401.079 0 .144.12.144.268 0 .147.065.268.144.268.079 0 .144.18.144.401 0 .22.065.401.144.401.079 0 .144.12.144.268 0 .147.065.268.144.268.079 0 .144.12.144.267 0 .148.065.268.144.268.079 0 .144.12.144.268 0 .147.064.267.144.267.079 0 .143.181.143.402 0 .22.065.401.144.401.08 0 .144.336.144.746 0 .767-.203 1.128-.637 1.128-.124 0-.226.06-.226.134 0 .073-.116.133-.256.133-.141 0-.35.12-.464.268-.114.147-.323.268-.463.268-.141 0-.257.06-.257.134 0 .073-.129.133-.287.133-.159 0-.288.06-.288.134 0 .074-.13.134-.288.134-.158 0-.288.06-.288.134 0 .073-.194.134-.432.134-.237 0-.432.06-.432.133 0 .074-.194.134-.431.134-.238 0-.432.06-.432.134 0 .074-.13.134-.288.134-.192 0-.288-.09-.288-.268 0-.147-.065-.267-.144-.267-.079 0-.144-.12-.144-.268 0-.147-.064-.268-.144-.268-.079 0-.144-.18-.144-.401 0-.221-.064-.402-.143-.402-.08 0-.144-.18-.144-.401 0-.22-.065-.401-.144-.401-.079 0-.144-.121-.144-.268 0-.147-.065-.268-.144-.268-.079 0-.144-.18-.144-.401 0-.221-.065-.402-.144-.402-.079 0-.144-.18-.144-.401 0-.221-.065-.402-.144-.402-.079 0-.144-.12-.144-.267 0-.148-.065-.268-.144-.268-.079 0-.144-.18-.144-.401 0-.221-.064-.402-.144-.402-.079 0-.144-.227-.144-.506 0-.352-.087-.564-.287-.698-.201-.135-.288-.347-.288-.699 0-.278-.065-.506-.144-.506-.079 0-.144-.167-.144-.371a.713.713 0 00-.288-.565.721.721 0 01-.288-.536.721.721 0 00-.288-.535c-.158-.106-.288-.3-.288-.431 0-.13-.064-.238-.143-.238-.08 0-.144-.12-.144-.268 0-.147-.065-.267-.144-.267-.079 0-.144-.108-.144-.238 0-.131-.13-.325-.288-.431-.158-.106-.288-.287-.288-.402 0-.114-.129-.295-.288-.401-.158-.106-.288-.3-.288-.431s-.064-.238-.144-.238c-.079 0-.143-.108-.143-.238 0-.131-.13-.325-.288-.431-.159-.107-.288-.3-.288-.432 0-.13-.065-.238-.144-.238-.079 0-.144-.107-.144-.238 0-.13-.13-.325-.288-.43-.158-.107-.288-.3-.288-.432 0-.13-.065-.238-.144-.238-.079 0-.144-.096-.144-.214 0-.117-.194-.383-.431-.589-.238-.206-.432-.458-.432-.56 0-.1-.13-.27-.288-.377-.158-.106-.288-.3-.288-.43 0-.131-.065-.239-.144-.239-.079 0-.144-.107-.144-.238 0-.13-.129-.325-.288-.43-.158-.107-.287-.288-.287-.402 0-.115-.13-.295-.288-.402-.159-.106-.288-.3-.288-.43 0-.131-.065-.239-.144-.239-.079 0-.144-.096-.144-.214 0-.117-.194-.382-.432-.589-.237-.206-.432-.443-.432-.527 0-.084-.583-.69-1.295-1.346-.712-.657-1.295-1.258-1.295-1.335 0-.078-1.49-1.524-3.311-3.215-1.82-1.69-3.31-3.165-3.31-3.276 0-.114-.127-.203-.288-.203-.192 0-.288-.09-.288-.268 0-.156-.096-.268-.23-.268-.126 0-.411-.18-.633-.401-.222-.22-.507-.402-.634-.402-.134 0-.23-.111-.23-.267 0-.156-.096-.268-.23-.268-.127 0-.412-.18-.633-.401-.222-.221-.479-.402-.571-.402-.092 0-.483-.3-.869-.669-.385-.368-.788-.669-.894-.669-.107 0-.287-.12-.401-.268-.114-.147-.295-.267-.403-.267-.107 0-.444-.241-.748-.535-.305-.295-.629-.536-.72-.536-.092 0-.415-.24-.72-.535-.304-.294-.641-.535-.748-.535-.108 0-.289-.12-.403-.268-.114-.147-.297-.268-.406-.268-.109 0-.38-.18-.602-.401-.221-.22-.492-.402-.601-.402-.109 0-.292-.12-.406-.267-.114-.147-.309-.268-.432-.268s-.318-.12-.432-.267c-.114-.148-.308-.268-.432-.268-.123 0-.317-.12-.431-.268-.114-.147-.323-.267-.464-.267-.141 0-.256-.06-.256-.134 0-.074-.18-.134-.4-.134-.235 0-.486-.11-.607-.268-.115-.147-.309-.267-.432-.267-.124 0-.318-.12-.432-.268-.114-.147-.323-.267-.464-.267-.14 0-.256-.06-.256-.134 0-.074-.18-.134-.4-.134-.235 0-.485-.11-.607-.268-.114-.147-.323-.267-.464-.267-.141 0-.256-.06-.256-.134 0-.074-.129-.134-.288-.134-.158 0-.288-.06-.288-.134 0-.073-.129-.134-.287-.134-.159 0-.288-.06-.288-.134 0-.073-.13-.133-.288-.133-.158 0-.288-.06-.288-.134 0-.074-.129-.134-.288-.134-.158 0-.288-.06-.288-.134 0-.073-.129-.134-.287-.134-.159 0-.288-.06-.288-.133 0-.074-.18-.134-.4-.134-.235 0-.486-.11-.608-.268-.114-.147-.323-.268-.463-.268-.141 0-.256-.06-.256-.133 0-.074-.195-.134-.432-.134-.238 0-.432-.06-.432-.134 0-.074-.13-.134-.288-.134-.158 0-.288-.06-.288-.134 0-.073-.129-.133-.288-.133-.158 0-.287-.06-.287-.134 0-.074-.195-.134-.432-.134-.238 0-.432-.06-.432-.134 0-.073-.13-.134-.288-.134-.158 0-.288-.06-.288-.134 0-.073-.324-.133-.719-.133-.396 0-.72-.06-.72-.134 0-.074-.13-.134-.288-.134-.158 0-.288-.06-.288-.134 0-.073-.194-.134-.432-.134-.237 0-.431-.06-.431-.134 0-.073-.259-.133-.576-.133-.317 0-.576-.06-.576-.134 0-.074-.129-.134-.288-.134-.158 0-.287-.06-.287-.134 0-.073-.26-.134-.576-.134-.317 0-.576-.06-.576-.133 0-.074-.129-.134-.288-.134-.158 0-.288-.06-.288-.134 0-.074-.259-.134-.575-.134-.317 0-.576-.06-.576-.134 0-.073-.259-.133-.576-.133-.316 0-.575-.06-.575-.134 0-.074-.26-.134-.576-.134-.317 0-.576-.06-.576-.134 0-.074-.129-.134-.288-.134-.158 0-.288-.06-.288-.134 0-.073-.259-.133-.575-.133-.317 0-.576-.06-.576-.134 0-.074-.194-.134-.432-.134-.237 0-.432-.06-.432-.134 0-.074-.194-.134-.431-.134-.238 0-.432-.06-.432-.133 0-.074-.324-.134-.72-.134-.396 0-.719-.06-.719-.134 0-.074-.324-.134-.72-.134-.396 0-.72-.06-.72-.134 0-.08-.527-.134-1.295-.134-.768 0-1.295-.054-1.295-.134 0-.078-.48-.133-1.152-.133-.672 0-1.151-.056-1.151-.134 0-.08-.528-.134-1.296-.134-.767 0-1.295-.054-1.295-.134 0-.082-.672-.134-1.727-.134-1.056 0-1.727-.052-1.727-.133 0-.08-.528-.134-1.296-.134-.767 0-1.295-.055-1.295-.134 0-.085-1.007-.134-2.735-.134-1.727 0-2.734.05-2.734.134 0 .083-.768.134-2.015.134-1.248 0-2.015.05-2.015.134s-.96.133-2.59.133c-1.632 0-2.592.05-2.592.134 0 .08-.575.134-1.439.134-.864 0-1.44.054-1.44.134 0 .074-.323.134-.719.134-.396 0-.72.06-.72.133 0 .075-.383.134-.863.134s-.864.06-.864.134c0 .074-.259.134-.575.134-.317 0-.576.06-.576.134 0 .073-.26.134-.576.134-.316 0-.575.06-.575.133 0 .075-.384.134-.864.134s-.864.06-.864.134c0 .074-.194.134-.431.134-.238 0-.432.06-.432.134 0 .073-.324.134-.72.134-.396 0-.72.06-.72.133 0 .075-.383.134-.863.134s-.864.06-.864.134c0 .074-.194.134-.431.134-.238 0-.432.06-.432.134 0 .073-.26.133-.576.133-.317 0-.576.06-.576.134 0 .074-.13.134-.287.134-.159 0-.288.06-.288.134 0 .073-.26.134-.576.134-.317 0-.576.06-.576.134 0 .073-.194.133-.431.133-.238 0-.432.06-.432.134 0 .074-.13.134-.288.134-.158 0-.288.06-.288.134 0 .073-.194.134-.432.134-.237 0-.431.06-.431.133 0 .074-.245.134-.544.134-.38 0-.607.081-.752.268-.144.186-.372.268-.751.268-.3 0-.544.06-.544.133 0 .074-.13.134-.288.134-.158 0-.288.06-.288.134 0 .074-.13.134-.288.134-.158 0-.288.06-.288.134 0 .073-.245.134-.544.134-.378 0-.606.08-.751.267-.145.187-.373.268-.752.268-.298 0-.543.06-.543.134 0 .073-.18.133-.4.133-.235 0-.486.111-.608.268-.114.147-.323.268-.464.268-.14 0-.255.06-.255.134 0 .073-.18.133-.4.133-.235 0-.486.11-.608.268-.114.147-.323.268-.464.268-.14 0-.256.06-.256.133 0 .074-.18.134-.4.134-.235 0-.485.11-.607.268-.114.147-.323.268-.464.268-.14 0-.256.06-.256.133 0 .074-.18.134-.4.134-.235 0-.485.11-.607.268-.114.147-.309.268-.432.268s-.318.12-.432.267c-.122.157-.373.268-.607.268-.22 0-.4.06-.4.134 0 .073-.116.133-.256.133-.141 0-.35.12-.464.268-.122.157-.373.268-.607.268-.22 0-.4.06-.4.134 0 .073-.116.133-.257.133-.14 0-.349.12-.463.268-.114.147-.323.268-.464.268-.14 0-.256.06-.256.133 0 .074-.115.134-.256.134-.14 0-.35.12-.463.268-.114.147-.297.267-.406.267-.11 0-.38.181-.602.402-.222.22-.492.401-.602.401-.109 0-.291.12-.405.268-.114.147-.323.268-.464.268-.14 0-.256.06-.256.134 0 .073-.104.133-.23.133-.127 0-.412.181-.634.402-.221.22-.492.401-.601.401-.11 0-.292.12-.406.268-.114.147-.297.268-.406.268-.109 0-.38.18-.602.401-.221.22-.492.401-.601.401-.11 0-.292.12-.406.268-.114.147-.293.268-.397.268-.105 0-.768.542-1.474 1.204-.706.663-1.384 1.204-1.506 1.204a.217.217 0 00-.221.21c0 .271-.347.593-.638.593-.13 0-.226.114-.226.268 0 .15-.096.268-.217.268-.241 0-7.267 6.474-7.267 6.697 0 .077-.454.556-1.008 1.064s-1.007.99-1.007 1.07c0 .082-.454.563-1.008 1.071s-1.007 1.004-1.007 1.102c0 .098-.13.264-.288.37-.158.107-.288.275-.288.375 0 .1-.259.413-.575.696-.317.283-.576.61-.576.725 0 .117-.065.212-.144.212-.08 0-.144.107-.144.238 0 .13-.13.325-.288.43-.158.107-.288.288-.288.402 0 .115-.13.296-.288.402-.158.106-.287.286-.287.401 0 .115-.13.296-.288.402-.159.106-.288.286-.288.401 0 .115-.13.295-.288.402-.158.106-.288.3-.288.43 0 .131-.065.239-.144.239-.079 0-.144.107-.144.238 0 .13-.13.325-.288.43-.158.107-.288.288-.288.402 0 .115-.129.296-.287.402a.713.713 0 00-.288.565c0 .204-.065.371-.144.371-.08 0-.144.181-.144.402 0 .22-.065.401-.144.401-.08 0-.144.108-.144.238 0 .131-.13.325-.288.431a.713.713 0 00-.288.565c0 .205-.064.372-.144.372-.079 0-.143.12-.143.268 0 .147-.065.267-.144.267-.08 0-.144.12-.144.268 0 .147-.065.268-.144.268-.08 0-.144.12-.144.267 0 .148-.065.268-.144.268-.08 0-.144.12-.144.268 0 .147-.065.267-.144.267-.08 0-.144.12-.144.268 0 .147-.065.268-.144.268-.079 0-.144.167-.144.371a.713.713 0 01-.288.565.713.713 0 00-.287.565c0 .205-.065.372-.144.372-.08 0-.144.18-.144.402 0 .22-.065.401-.144.401-.08 0-.144.12-.144.268 0 .147-.065.267-.144.267-.08 0-.144.095-.144.21 0 .116-.093.297-.206.402-.232.216-1.233.263-1.233.057 0-.073-.13-.134-.288-.134-.159 0-.288-.06-.288-.133 0-.074-.13-.134-.288-.134-.158 0-.288-.06-.288-.134 0-.073-.103-.134-.23-.134-.126 0-.412-.18-.633-.401-.222-.221-.541-.402-.71-.402-.416 0-1.593-1.112-1.593-1.505 0-.17.13-.396.288-.502.158-.106.288-.287.288-.401 0-.115.13-.296.287-.402a.713.713 0 00.288-.565c0-.204.065-.372.144-.372.08 0 .144-.107.144-.238 0-.13.13-.325.288-.43a.713.713 0 00.288-.566c0-.204.065-.371.144-.371.079 0 .144-.12.144-.268 0-.147.064-.268.144-.268.079 0 .143-.12.143-.267 0-.148.065-.268.144-.268.08 0 .144-.12.144-.268 0-.147.065-.267.144-.267.08 0 .144-.168.144-.372 0-.219.12-.452.288-.565.158-.106.288-.3.288-.431s.065-.238.144-.238c.079 0 .144-.168.144-.372 0-.218.119-.452.288-.565.158-.106.287-.287.287-.401 0-.115.13-.296.288-.402.159-.106.288-.3.288-.43 0-.132.065-.239.144-.239.08 0 .144-.12.144-.267 0-.148.065-.268.144-.268.08 0 .144-.12.144-.268 0-.147.065-.267.144-.267.079 0 .144-.12.144-.268 0-.147.065-.268.144-.268.079 0 .144-.107.144-.238 0-.13.13-.325.288-.43.158-.107.287-.3.287-.432 0-.13.065-.238.144-.238.08 0 .144-.096.144-.214 0-.117.194-.383.432-.589.237-.206.432-.447.432-.535 0-.088.194-.33.432-.535.237-.207.431-.459.431-.56 0-.101.13-.271.288-.377.159-.106.288-.287.288-.402 0-.114.13-.295.288-.401.158-.106.288-.275.288-.375 0-.1.259-.413.576-.696.316-.282.575-.585.575-.671 0-.087.194-.327.432-.533.238-.206.432-.447.432-.535 0-.088.194-.33.432-.536.237-.206.431-.47.431-.589 0-.117.065-.213.144-.213.08 0 .144-.097.144-.215 0-.117.195-.382.432-.588.238-.207.432-.445.432-.531 0-.086.324-.45.72-.808.395-.358.72-.716.72-.795 0-.188 3.547-3.487 3.75-3.487.23 0 .567-.352.567-.593 0-.115.102-.21.226-.21.29 0 .637-.322.637-.593 0-.115.102-.21.227-.21.29 0 .637-.322.637-.592 0-.116.1-.21.223-.21.122 0 .67-.422 1.216-.937.547-.516 1.065-.937 1.151-.937.237 0 .864-.627.864-.864 0-.114.116-.207.256-.207.141 0 .35-.12.464-.267.114-.148.323-.268.464-.268.16 0 .256-.1.256-.268 0-.167.096-.267.256-.267.14 0 .35-.12.463-.268.114-.147.297-.268.406-.268.11 0 .38-.18.602-.4.221-.222.507-.402.633-.402.127 0 .23-.06.23-.134 0-.074.116-.134.256-.134.141 0 .35-.12.464-.268.114-.147.297-.267.406-.267.109 0 .38-.181.601-.402.222-.22.481-.401.576-.401.095 0 .354-.18.576-.402.222-.22.492-.401.602-.401.109 0 .291-.12.405-.268.114-.147.297-.267.406-.267.11 0 .38-.181.602-.402.222-.22.492-.401.602-.401.109 0 .291-.12.405-.268.114-.147.323-.268.464-.268.14 0 .256-.06.256-.133 0-.074.13-.134.288-.134.158 0 .288-.06.288-.134 0-.074.115-.134.256-.134.14 0 .35-.12.463-.268.114-.147.297-.267.406-.267.11 0 .38-.18.602-.402.222-.22.492-.401.601-.401.11 0 .292-.12.406-.268.115-.147.323-.267.464-.267.14 0 .256-.06.256-.134 0-.074.18-.134.4-.134.235 0 .486-.11.608-.268.114-.147.322-.267.463-.267.14 0 .256-.06.256-.134 0-.074.194-.134.432-.134.237 0 .432-.06.432-.134 0-.073.13-.134.288-.134.158 0 .287-.06.287-.133 0-.074.13-.134.288-.134.159 0 .288-.06.288-.134 0-.074.13-.134.288-.134.158 0 .288-.06.288-.134 0-.073.13-.133.288-.133.158 0 .288-.06.288-.134 0-.074.13-.134.287-.134.159 0 .288-.06.288-.134 0-.074.18-.134.4-.134.235 0 .486-.11.608-.267.114-.148.372-.268.575-.268.203 0 .462-.12.576-.268.122-.157.373-.267.608-.267.22 0 .4-.06.4-.134 0-.074.18-.134.4-.134.235 0 .485-.11.607-.268.114-.147.323-.267.464-.267.14 0 .256-.06.256-.134 0-.074.18-.134.4-.134.235 0 .485-.11.607-.268.122-.157.373-.267.608-.267.22 0 .4-.06.4-.134 0-.074.259-.134.575-.134.317 0 .576-.06.576-.134 0-.073.194-.133.432-.133.237 0 .432-.06.432-.134 0-.074.259-.134.575-.134.317 0 .576-.06.576-.134 0-.073.13-.134.288-.134.158 0 .288-.06.288-.134 0-.073.194-.133.432-.133.237 0 .431-.06.431-.134 0-.074.26-.134.576-.134.317 0 .576-.06.576-.134 0-.074.194-.134.432-.134.237 0 .431-.06.431-.133 0-.074.195-.134.432-.134.238 0 .432-.06.432-.134 0-.074.324-.134.72-.134.395 0 .72-.06.72-.134 0-.073.129-.134.287-.134.159 0 .288-.06.288-.133 0-.074.26-.134.576-.134.316 0 .575-.06.575-.134 0-.074.324-.134.72-.134.396 0 .72-.06.72-.134 0-.073.13-.134.288-.134.158 0 .287-.06.287-.133 0-.074.26-.134.576-.134.317 0 .576-.06.576-.134 0-.078.48-.134 1.151-.134.672 0 1.152-.056 1.152-.134 0-.073.259-.133.575-.133.317 0 .576-.06.576-.134 0-.077.432-.134 1.008-.134.575 0 1.007-.057 1.007-.134 0-.074.384-.134.864-.134s.863-.06.863-.134c0-.073.324-.133.72-.133.396 0 .72-.06.72-.134 0-.08.527-.134 1.295-.134.768 0 1.295-.054 1.295-.134 0-.082.72-.134 1.871-.134 1.152 0 1.871-.051 1.871-.133 0-.085.96-.134 2.591-.134 1.631 0 2.59-.05 2.59-.134 0-.085 1.056-.134 2.88-.134 1.822 0 2.878.05 2.878.134zm2.015 11.776c0 .083.816.134 2.159.134s2.159.05 2.159.134c0 .073.194.134.432.134.237 0 .431.06.431.133 0 .075.384.134.864.134s.863.06.863.134c0 .074.384.134.864.134s.864.06.864.134c0 .073.194.133.431.133.238 0 .432.06.432.134 0 .078.48.134 1.152.134.671 0 1.151.056 1.151.134 0 .073.324.134.72.134.395 0 .719.06.719.134 0 .073.195.133.432.133.238 0 .432.06.432.134 0 .074.259.134.576.134.316 0 .575.06.575.134 0 .073.259.134.576.134.317 0 .576.06.576.133 0 .074.129.134.288.134.158 0 .287.06.287.134 0 .074.324.134.72.134.396 0 .72.06.72.134 0 .073.194.134.431.134.238 0 .432.06.432.133 0 .074.13.134.288.134.158 0 .288.06.288.134 0 .074.259.134.576.134.316 0 .575.06.575.134 0 .073.13.134.288.134.159 0 .288.06.288.133 0 .074.259.134.576.134.316 0 .576.06.576.134 0 .074.259.134.575.134.317 0 .576.06.576.134 0 .073.129.133.288.133.158 0 .288.06.288.134 0 .074.194.134.431.134.238 0 .432.06.432.134 0 .073.13.134.288.134.158 0 .288.06.288.134 0 .073.129.133.288.133.158 0 .288.06.288.134 0 .074.129.134.288.134.158 0 .287.06.287.134 0 .073.13.134.288.134.159 0 .288.06.288.133 0 .074.13.134.288.134.158 0 .288.06.288.134 0 .074.129.134.288.134.158 0 .288.06.288.134 0 .073.115.133.256.133.14 0 .349.121.463.268.115.148.373.268.576.268.203 0 .461.12.576.267.114.148.322.268.463.268.141 0 .256.06.256.134 0 .074.195.134.432.134s.432.06.432.134c0 .073.115.133.256.133.141 0 .349.12.463.268.115.147.323.268.464.268.141 0 .256.06.256.134 0 .073.13.133.288.133.158 0 .288.06.288.134 0 .074.115.134.256.134.141 0 .349.12.463.268.115.147.323.267.464.267.141 0 .256.06.256.134 0 .074.13.134.288.134.158 0 .288.06.288.134 0 .073.115.133.256.133.141 0 .349.12.463.268.115.147.323.268.464.268.141 0 .256.06.256.134 0 .073.115.133.256.133.141 0 .35.12.464.268.114.147.296.268.406.268.109 0 .379.18.601.401.222.22.48.402.573.402.093 0 .418.24.723.535.304.294.655.535.78.535s.227.06.227.134c0 .074.104.134.23.134.127 0 .412.18.634.401.221.221.507.402.633.402.127 0 .23.06.23.133 0 .074.13.134.288.134.164 0 .288.09.288.207 0 .268.641.864.929.864.122 0 .222.06.222.134 0 .073.102.133.226.133.123 0 .54.302.926.67.385.368.774.669.863.669.09 0 .478.3.864.669.385.368.771.669.856.669.24 0 3.174 2.781 3.174 3.01 0 .11.099.202.219.202.248 0 1.508 1.12 1.508 1.34 0 .078.583.68 1.295 1.336.713.657 1.296 1.26 1.296 1.34 0 .081.388.502.863.935.475.433.864.868.864.967 0 .098.129.265.288.371.158.106.288.3.288.431s.064.238.143.238c.08 0 .144.108.144.238 0 .131.13.325.288.431.159.107.288.287.288.402 0 .114.13.295.288.401.158.106.288.287.288.402 0 .114.129.295.288.401.158.106.288.287.288.402 0 .114.129.295.287.401.159.106.288.3.288.431s.065.238.144.238c.079 0 .144.107.144.238s.13.325.288.431c.158.106.288.276.288.378 0 .101.194.353.432.56.237.205.431.47.431.588s.065.214.144.214c.079 0 .144.107.144.238s.13.325.288.431c.158.106.288.3.288.431s.065.238.144.238c.079 0 .144.107.144.238s.129.325.288.431c.158.106.288.3.288.431s.064.238.143.238c.08 0 .144.181.144.402 0 .22.065.401.144.401.079 0 .144.12.144.268 0 .147.065.268.144.268.079 0 .144.18.144.401 0 .22.065.401.144.401.079 0 .144.168.144.372 0 .219.119.452.288.565a.713.713 0 01.288.565c0 .205.064.372.144.372.079 0 .144.18.144.401 0 .221.064.402.143.402.08 0 .144.12.144.267 0 .148.065.268.144.268.079 0 .144.18.144.402 0 .22.065.401.144.401.079 0 .144.12.144.268 0 .147.065.267.144.267.079 0 .144.12.144.268 0 .147.065.268.144.268.079 0 .144.18.144.401 0 .22.065.402.144.402.079 0 .144.12.144.267 0 .147.064.268.144.268.079 0 .144.18.144.401 0 .221.064.402.143.402.08 0 .144.18.144.401 0 .221.065.402.144.402.079 0 .144.213.144.472 0 .362-.118.583-.499.937-.274.255-.598.464-.719.464-.122 0-.221.06-.221.134 0 .074-.13.134-.288.134-.158 0-.288.06-.288.134 0 .073-.129.133-.288.133-.158 0-.287.06-.287.134 0 .074-.13.134-.288.134-.159 0-.288.06-.288.134 0 .073-.168.134-.374.134-.23 0-.53.154-.778.401-.248.247-.547.402-.777.402-.206 0-.374.06-.374.133 0 .074-.13.134-.288.134-.158 0-.288.06-.288.134 0 .074-.129.134-.288.134-.158 0-.287.06-.287.134 0 .073-.169.134-.375.134-.23 0-.529.154-.777.401-.222.22-.507.402-.633.402-.127 0-.23.06-.23.133 0 .074-.13.134-.288.134-.159 0-.288.06-.288.134 0 .074-.13.134-.288.134-.158 0-.288.06-.288.134 0 .073-.129.133-.288.133-.158 0-.288.06-.288.134 0 .074-.18.134-.4.134-.234 0-.485.11-.607.268-.114.147-.323.267-.464.267-.14 0-.256.06-.256.134 0 .074-.18.134-.4.134-.235 0-.485.11-.607.268-.122.157-.373.267-.608.267-.22 0-.4.06-.4.134 0 .074-.115.134-.256.134-.141 0-.349.12-.463.267-.115.148-.323.268-.464.268-.141 0-.256.06-.256.134 0 .074-.18.134-.4.134-.235 0-.486.11-.608.268-.114.147-.322.267-.463.267-.141 0-.256.06-.256.134 0 .073-.18.134-.4.134-.235 0-.486.11-.608.267-.114.148-.322.268-.463.268-.141 0-.256.06-.256.134 0 .073-.13.134-.288.134-.158 0-.288.06-.288.133 0 .074-.13.134-.288.134-.158 0-.288.06-.288.134 0 .074-.129.134-.288.134-.158 0-.287.06-.287.134 0 .073-.116.134-.256.134-.141 0-.35.12-.464.267-.114.148-.373.268-.576.268-.203 0-.461.12-.575.267-.115.148-.323.268-.464.268-.141 0-.256.06-.256.134 0 .074-.18.134-.4.134-.235 0-.486.11-.608.267-.114.148-.322.268-.463.268-.141 0-.256.06-.256.134 0 .073-.18.134-.4.134-.235 0-.486.11-.608.267-.122.157-.372.268-.607.268-.22 0-.4.06-.4.134 0 .073-.116.134-.256.134-.141 0-.35.12-.464.267-.114.148-.373.268-.576.268-.203 0-.461.12-.575.267-.114.148-.323.268-.464.268-.141 0-.256.06-.256.134 0 .074-.194.134-.432.134-.237 0-.432.06-.432.134 0 .073-.129.133-.287.133-.159 0-.288.06-.288.134 0 .074-.13.134-.288.134-.158 0-.288.06-.288.134 0 .074-.115.134-.256.134-.141 0-.349.12-.464.267-.121.157-.372.268-.607.268-.22 0-.4.06-.4.134 0 .073-.13.134-.288.134-.158 0-.288.06-.288.133 0 .074-.129.134-.288.134-.158 0-.288.06-.288.134 0 .074-.129.134-.287.134-.159 0-.288.06-.288.134 0 .073-.116.134-.256.134-.141 0-.35.12-.464.267-.122.157-.372.268-.607.268-.22 0-.4.06-.4.134 0 .073-.13.133-.288.133-.159 0-.288.06-.288.134 0 .074-.13.134-.288.134-.158 0-.288.06-.288.134 0 .074-.129.134-.288.134-.158 0-.287.06-.287.134 0 .073-.13.133-.288.133-.159 0-.288.06-.288.134 0 .074-.13.134-.288.134-.158 0-.288.06-.288.134 0 .074-.129.134-.288.134-.158 0-.288.06-.288.134 0 .073-.129.133-.287.133-.159 0-.288.06-.288.134 0 .074-.13.134-.288.134-.159 0-.288.06-.288.134 0 .073-.13.134-.288.134-.158 0-.288.06-.288.133 0 .074-.129.134-.288.134-.158 0-.287.06-.287.134 0 .074-.13.134-.288.134-.159 0-.288.06-.288.134 0 .073-.13.133-.288.133-.158 0-.288.06-.288.134 0 .074-.129.134-.288.134-.158 0-.288.06-.288.134 0 .074-.129.134-.287.134-.159 0-.288.06-.288.134 0 .073-.18.133-.4.133-.235 0-.486.111-.608.268-.114.147-.323.268-.463.268-.141 0-.256.06-.256.134 0 .073-.181.133-.4.133-.235 0-.486.11-.608.268-.114.147-.323.268-.464.268-.14 0-.256.06-.256.134 0 .073-.129.133-.287.133-.159 0-.288.06-.288.134 0 .074-.13.134-.288.134-.158 0-.288.06-.288.134 0 .073-.13.134-.288.134-.158 0-.288.06-.288.133 0 .074-.129.134-.288.134-.158 0-.287.06-.287.134 0 .074-.13.134-.288.134-.159 0-.288.06-.288.134 0 .073-.18.133-.4.133-.235 0-.486.111-.608.268-.114.147-.322.268-.463.268-.141 0-.256.06-.256.134 0 .073-.13.133-.288.133-.158 0-.288.06-.288.134 0 .074-.13.134-.288.134-.158 0-.288.06-.288.134 0 .074-.18.134-.4.134-.235 0-.485.11-.607.267-.114.147-.323.268-.464.268-.141 0-.256.06-.256.134 0 .073-.18.134-.4.134-.235 0-.485.11-.607.267-.114.147-.323.268-.464.268-.141 0-.256.06-.256.134 0 .073-.18.133-.4.133-.235 0-.486.111-.607.268-.122.157-.373.268-.608.268-.22 0-.4.06-.4.134 0 .073-.115.133-.256.133-.141 0-.349.12-.464.268-.114.147-.322.268-.463.268-.141 0-.256.06-.256.133 0 .074-.18.134-.4.134-.235 0-.486.11-.608.268-.122.157-.372.268-.607.268-.22 0-.4.06-.4.133 0 .074-.116.134-.256.134-.141 0-.35.12-.464.268-.122.157-.373.268-.607.268-.22 0-.4.06-.4.133 0 .074-.116.134-.256.134-.141 0-.35.12-.464.268-.114.147-.373.267-.576.267-.203 0-.461.12-.575.268-.115.147-.323.268-.464.268-.141 0-.256.06-.256.134 0 .073-.18.133-.4.133-.235 0-.486.11-.608.268-.122.157-.372.268-.607.268-.22 0-.4.06-.4.133 0 .074-.115.134-.256.134-.141 0-.35.121-.464.268-.144.186-.372.268-.751.268-.299 0-.544.06-.544.133 0 .074-.13.134-.288.134-.158 0-.288.06-.288.134 0 .074-.13.134-.288.134-.158 0-.288.06-.288.134 0 .073-.194.134-.431.134-.336 0-.432.059-.432.267 0 .208-.096.268-.432.268-.237 0-.432.06-.432.134 0 .073-.13.133-.288.133-.158 0-.287.061-.287.134 0 .074-.13.134-.288.134-.159 0-.288.06-.288.134 0 .074-.194.134-.432.134-.237 0-.432.06-.432.134 0 .073-.323.133-.72.133-.395 0-.719-.06-.719-.133 0-.074-.115-.134-.256-.134-.14 0-.35-.121-.464-.268-.114-.147-.322-.268-.463-.268-.14 0-.256-.06-.256-.133 0-.074-.18-.134-.4-.134-.235 0-.486-.111-.608-.268-.114-.147-.322-.267-.463-.267-.141 0-.256-.061-.256-.134 0-.074-.116-.134-.256-.134-.141 0-.35-.121-.464-.268-.114-.147-.323-.267-.464-.267-.14 0-.256-.061-.256-.134 0-.074-.115-.134-.256-.134-.14 0-.35-.12-.463-.268-.115-.147-.373-.267-.576-.267-.203 0-.461-.12-.576-.268-.114-.147-.322-.268-.463-.268-.141 0-.256-.06-.256-.133 0-.074-.116-.134-.256-.134-.141 0-.35-.12-.464-.268-.114-.147-.323-.267-.464-.267-.14 0-.256-.06-.256-.134 0-.074-.13-.134-.287-.134-.159 0-.288-.06-.288-.134 0-.074-.13-.134-.288-.134-.159 0-.288-.06-.288-.134 0-.073-.13-.133-.288-.133-.158 0-.288-.06-.288-.134 0-.074-.115-.134-.256-.134-.14 0-.35-.12-.463-.268-.115-.147-.373-.267-.576-.267-.203 0-.461-.12-.576-.268-.114-.147-.323-.268-.463-.268-.141 0-.256-.06-.256-.133 0-.074-.116-.134-.257-.134-.14 0-.349-.12-.463-.268a.821.821 0 00-.576-.268c-.203 0-.461-.12-.576-.267-.114-.147-.322-.268-.463-.268-.14 0-.256-.06-.256-.134 0-.073-.13-.133-.288-.133-.158 0-.288-.06-.288-.134 0-.074-.115-.134-.256-.134-.14 0-.35-.12-.464-.268-.114-.147-.322-.267-.463-.267-.14 0-.256-.06-.256-.134 0-.074-.13-.134-.288-.134-.158 0-.288-.06-.288-.134 0-.074-.13-.134-.288-.134-.158 0-.288-.06-.288-.134 0-.073-.115-.133-.256-.133-.14 0-.35-.12-.463-.268-.122-.157-.373-.268-.608-.268-.22 0-.4-.06-.4-.133 0-.074-.115-.134-.256-.134-.14 0-.35-.12-.463-.268-.114-.147-.323-.267-.464-.267-.14 0-.256-.06-.256-.134 0-.074-.115-.134-.256-.134-.14 0-.35-.12-.464-.268-.114-.147-.372-.267-.575-.267-.203 0-.462-.12-.576-.268-.114-.147-.323-.268-.464-.268-.14 0-.256-.06-.256-.133 0-.074-.115-.134-.256-.134-.14 0-.35-.12-.463-.268-.122-.157-.373-.268-.608-.268-.22 0-.4-.06-.4-.133 0-.074-.115-.134-.256-.134-.14 0-.35-.12-.463-.268-.115-.147-.323-.268-.464-.268-.14 0-.256-.06-.256-.133 0-.074-.115-.134-.256-.134-.141 0-.35-.12-.464-.268-.114-.147-.322-.267-.463-.267-.141 0-.256-.06-.256-.134 0-.074-.18-.134-.4-.134-.235 0-.486-.11-.608-.268-.114-.147-.308-.267-.432-.267-.123 0-.317-.12-.431-.268-.115-.147-.323-.268-.464-.268-.14 0-.256-.06-.256-.133 0-.074-.18-.134-.4-.134-.235 0-.486-.11-.608-.268-.114-.147-.322-.268-.463-.268-.14 0-.256-.06-.256-.133 0-.074-.13-.134-.288-.134-.158 0-.288-.06-.288-.134 0-.074-.115-.134-.256-.134-.14 0-.35-.12-.464-.267-.114-.148-.372-.268-.575-.268-.203 0-.462-.12-.576-.268-.114-.147-.323-.267-.464-.267-.14 0-.256-.06-.256-.134 0-.074-.115-.134-.256-.134-.14 0-.35-.12-.463-.268-.115-.147-.373-.267-.576-.267-.203 0-.461-.12-.576-.268-.114-.147-.322-.268-.463-.268-.141 0-.256-.06-.256-.133 0-.074-.13-.134-.288-.134-.159 0-.288-.06-.288-.134 0-.074-.115-.134-.256-.134-.141 0-.35-.12-.464-.268-.114-.147-.372-.267-.575-.267-.204 0-.462-.12-.576-.268-.114-.147-.323-.267-.464-.267-.14 0-.256-.06-.256-.134 0-.074-.115-.134-.256-.134-.14 0-.35-.12-.463-.268-.114-.147-.323-.267-.464-.267-.14 0-.256-.06-.256-.134 0-.074-.13-.134-.288-.134-.158 0-.288-.06-.288-.134 0-.073-.13-.134-.288-.134-.158 0-.288-.06-.288-.133 0-.074-.129-.134-.287-.134-.159 0-.288-.06-.288-.134 0-.074-.13-.134-.288-.134-.158 0-.288-.06-.288-.134 0-.073-.13-.134-.288-.134-.158 0-.288-.06-.288-.133 0-.074-.13-.134-.288-.134-.158 0-.287-.06-.287-.134 0-.074-.116-.134-.256-.134-.141 0-.35-.12-.464-.268-.114-.147-.308-.267-.432-.267-.123 0-.317-.12-.431-.268-.115-.147-.323-.267-.464-.267-.14 0-.256-.06-.256-.134 0-.074-.18-.134-.4-.134-.235 0-.486-.11-.608-.268-.114-.147-.322-.267-.463-.267-.141 0-.256-.06-.256-.134 0-.074-.116-.134-.256-.134-.141 0-.35-.12-.464-.268-.114-.147-.323-.267-.464-.267-.14 0-.256-.06-.256-.134 0-.074-.13-.134-.287-.134-.159 0-.288-.06-.288-.134 0-.073-.13-.133-.288-.133-.158 0-.288-.06-.288-.134 0-.074-.115-.134-.256-.134-.141 0-.35-.12-.464-.268-.114-.147-.322-.267-.463-.267-.141 0-.256-.06-.256-.134 0-.074-.13-.134-.288-.134-.158 0-.288-.06-.288-.134 0-.073-.13-.134-.288-.134-.158 0-.288-.06-.288-.134 0-.073-.13-.133-.288-.133-.158 0-.287-.06-.287-.134 0-.074-.13-.134-.288-.134-.159 0-.288-.06-.288-.134 0-.073-.115-.134-.256-.134-.141 0-.35-.12-.464-.267-.114-.148-.322-.268-.463-.268-.141 0-.256-.06-.256-.134 0-.073-.13-.134-.288-.134-.159 0-.288-.06-.288-.133 0-.074-.13-.134-.288-.134-.158 0-.288-.06-.288-.134 0-.074-.115-.134-.256-.134-.14 0-.35-.12-.464-.267-.114-.148-.322-.268-.463-.268-.14 0-.256-.06-.256-.134 0-.074-.115-.134-.256-.134-.141 0-.35-.12-.464-.267-.122-.157-.372-.268-.607-.268-.22 0-.4-.06-.4-.134 0-.073-.116-.134-.256-.134-.141 0-.35-.12-.464-.267-.114-.147-.308-.268-.432-.268-.123 0-.317-.12-.431-.268-.122-.157-.373-.267-.608-.267-.22 0-.4-.06-.4-.134 0-.074-.13-.134-.288-.134-.158 0-.288-.06-.288-.134 0-.073-.13-.133-.288-.133-.158 0-.287-.06-.287-.134 0-.074-.104-.134-.23-.134-.127 0-.412-.18-.634-.402-.248-.246-.547-.401-.777-.401-.206 0-.374-.06-.374-.134 0-.073-.116-.134-.256-.134-.141 0-.35-.12-.464-.267-.114-.148-.323-.268-.464-.268-.14 0-.256-.06-.256-.134 0-.073-.13-.134-.287-.134-.159 0-.288-.06-.288-.133 0-.074-.13-.134-.288-.134-.159 0-.288-.06-.288-.134 0-.074-.115-.134-.256-.134-.141 0-.35-.12-.464-.268-.144-.186-.372-.267-.751-.267-.539 0-.544-.005-.544-.535 0-.295.065-.536.144-.536.079 0 .144-.18.144-.401 0-.221.065-.402.144-.402.079 0 .144-.18.144-.401 0-.221.064-.402.144-.402.079 0 .143-.12.143-.267 0-.148.065-.268.144-.268.08 0 .144-.12.144-.267 0-.148.065-.268.144-.268.08 0 .144-.168.144-.372 0-.219.12-.452.288-.565a.713.713 0 00.288-.565c0-.204.065-.372.144-.372.079 0 .144-.12.144-.267 0-.148.064-.268.144-.268.079 0 .144-.12.144-.268 0-.147.064-.267.144-.267.079 0 .143-.12.143-.268 0-.147.065-.267.144-.267.08 0 .144-.168.144-.372 0-.219.12-.452.288-.565.159-.106.288-.3.288-.431s.065-.238.144-.238c.08 0 .144-.12.144-.268 0-.147.065-.268.144-.268.079 0 .144-.12.144-.267 0-.148.064-.268.144-.268.079 0 .144-.167.144-.372 0-.218.119-.451.288-.565a.713.713 0 00.287-.565c0-.204.065-.371.144-.371.08 0 .144-.108.144-.238 0-.132.13-.325.288-.431a.712.712 0 00.288-.565c0-.205.065-.372.144-.372.079 0 .144-.107.144-.238s.13-.325.288-.431c.158-.106.287-.287.287-.402 0-.114.13-.295.288-.401.159-.106.288-.276.288-.378 0-.1.194-.353.432-.559.237-.206.432-.458.432-.56 0-.1.13-.27.288-.377.158-.106.287-.287.287-.401 0-.115.13-.295.288-.402.159-.106.288-.273.288-.372 0-.1.324-.473.72-.832.396-.359.72-.746.72-.861 0-.115.064-.21.143-.21.08 0 .144-.092.144-.205 0-.114.583-.744 1.296-1.4.712-.657 1.295-1.287 1.295-1.4 0-.117.125-.206.288-.206.16 0 .288-.09.288-.202 0-.226 7.252-7.025 7.493-7.025.084 0 .469-.3.855-.669.41-.392.828-.669 1.009-.669.172 0 .554-.237.862-.535.304-.294.629-.535.722-.535.093 0 .351-.18.573-.402.222-.22.48-.401.576-.401.094 0 .354-.18.575-.402.222-.22.48-.401.573-.401.093 0 .419-.241.723-.535.304-.295.64-.536.748-.536.108 0 .289-.12.403-.267.114-.148.309-.268.432-.268s.318-.12.432-.268c.114-.147.372-.267.575-.267.203 0 .462-.12.576-.268.114-.147.323-.268.464-.268.14 0 .256-.06.256-.133 0-.074.13-.134.288-.134.158 0 .288-.06.288-.134 0-.074.115-.134.256-.134.14 0 .349-.12.463-.267.115-.148.373-.268.576-.268.203 0 .461-.12.576-.268.114-.147.308-.267.431-.267.124 0 .318-.12.432-.268.114-.147.323-.268.464-.268.14 0 .256-.06.256-.133 0-.074.13-.134.288-.134.158 0 .288-.06.288-.134 0-.074.129-.134.287-.134.159 0 .288-.06.288-.134 0-.073.13-.134.288-.134.158 0 .288-.06.288-.133 0-.074.13-.134.288-.134.158 0 .288-.06.288-.134 0-.074.115-.134.256-.134.14 0 .35-.12.463-.268.145-.186.373-.267.752-.267.299 0 .544-.06.544-.134 0-.073.18-.134.4-.134.235 0 .485-.11.607-.267.122-.158.373-.268.608-.268.22 0 .4-.06.4-.134 0-.073.13-.134.288-.134.158 0 .287-.06.287-.133 0-.074.195-.134.432-.134.238 0 .432-.06.432-.134 0-.074.194-.134.432-.134.237 0 .431-.06.431-.134 0-.073.13-.134.288-.134.159 0 .288-.06.288-.133 0-.074.195-.134.432-.134s.432-.06.432-.134c0-.074.13-.134.288-.134.158 0 .287-.06.287-.134 0-.073.195-.133.432-.133.238 0 .432-.06.432-.134 0-.074.194-.134.432-.134.237 0 .432-.06.432-.134 0-.074.194-.134.431-.134.238 0 .432-.06.432-.134 0-.073.13-.133.288-.133.158 0 .288-.06.288-.134 0-.074.324-.134.72-.134.395 0 .72-.06.72-.134 0-.073.129-.134.287-.134.158 0 .288-.06.288-.134 0-.073.259-.133.576-.133.316 0 .575-.06.575-.134 0-.075.384-.134.864-.134s.863-.06.863-.134c0-.073.13-.134.288-.134.159 0 .288-.06.288-.133 0-.074.26-.134.576-.134.317 0 .576-.06.576-.134 0-.075.383-.134.863-.134s.864-.06.864-.134c0-.073.13-.134.288-.134.158 0 .287-.06.287-.133 0-.077.432-.134 1.008-.134.576 0 1.007-.058 1.007-.134 0-.083.768-.134 2.015-.134 1.248 0 2.015-.05 2.015-.134 0-.073.195-.133.432-.133.238 0 .432-.06.432-.134 0-.085 1.007-.134 2.735-.134 1.727 0 2.734-.05 2.734-.134 0-.087 1.871-.134 5.326-.134 3.454 0 5.325.047 5.325.134zM79.916 36.332c-.138.145-.18 1.572-.18 6.15 0 3.885-.05 5.96-.144 5.96-.08 0-.144.358-.144.804 0 .446.064.803.144.803.08 0 .144.3.144.669 0 .368-.065.669-.144.669-.086 0-.144.535-.144 1.338s.058 1.338.144 1.338c.08 0 .144.12.144.268 0 .147-.065.267-.144.267-.09 0-.144.74-.144 1.95 0 1.512-.046 1.993-.205 2.142-.177.164-3.452.19-23.111.19-19.66 0-22.934.028-23.11.192-.165.153-.206.719-.206 2.81v2.62h2.734c1.727 0 2.735.049 2.735.133 0 .074.194.134.432.134.237 0 .431-.06.431-.134 0-.08.576-.134 1.44-.134.863 0 1.439.054 1.439.134 0 .076.432.134 1.008.134.575 0 1.007-.058 1.007-.134 0-.074.13-.134.288-.134.158 0 .288.06.288.134 0 .087 1.967.134 5.613.134 3.646 0 5.613.047 5.613.134 0 .073.194.133.432.133.237 0 .432-.06.432-.133 0-.074.324-.134.72-.134.395 0 .719.06.719.134 0 .088 3.406.133 9.931.133 6.525 0 9.931.046 9.931.134 0 .074.13.134.288.134.192 0 .288.09.288.268 0 .147.065.267.144.267.085 0 .144.491.144 1.205 0 .713.058 1.204.143 1.204.08 0 .144.18.144.402 0 .22-.064.401-.144.401-.09 0-.143.848-.143 2.275 0 1.428-.054 2.275-.144 2.275-.08 0-.144.24-.144.535 0 .295.065.535.144.535.092 0 .144 1.205.144 3.346s-.052 3.346-.144 3.346c-.08 0-.144.24-.144.535 0 .294.065.535.144.535.085 0 .144.49.144 1.204s-.059 1.205-.144 1.205c-.088 0-.144.624-.144 1.606 0 1.516.016 1.606.288 1.606.158 0 .287.06.287.133 0 .212 5.136.179 5.242-.033.067-.134.1-.134.168 0 .06.118.526.167 1.593.167 1.556 0 1.921-.112 1.921-.593 0-.115.065-.21.144-.21.094 0 .144-3.3.144-9.635 0-6.334.05-9.635.144-9.635.094 0 .144-2.364.144-6.825 0-4.46.05-6.825.144-6.825.092 0 .144-1.382.144-3.88s.05-3.881.144-3.881c.093 0 .143-1.81.143-5.162 0-4.295-.034-5.193-.205-5.352-.304-.283-8.846-.274-9.114.009zm23.892.535c-.133.14-.18 1.01-.18 3.34 0 2.011-.052 3.15-.144 3.15-.094 0-.144 2.186-.144 6.29s-.05 6.29-.144 6.29c-.079 0-.144.3-.144.669 0 .368.065.669.144.669.08 0 .144.357.144.803 0 .446-.064.803-.144.803-.093 0-.144 2.007-.144 5.754 0 3.747-.05 5.754-.143 5.754-.094 0-.144 1.874-.144 5.353 0 3.48-.051 5.353-.144 5.353s-.144 1.293-.144 3.613v3.613h3.742c2.399 0 3.742.048 3.742.134 0 .208 1.288.16 1.521-.057.143-.132.206-.505.206-1.205 0-.586.061-1.013.144-1.013.094 0 .144-1.829.144-5.219 0-3.39.05-5.219.144-5.219.092 0 .144-1.338.144-3.747s.051-3.747.144-3.747c.083 0 .144-.427.144-1.013 0-.7.063-1.072.205-1.204.171-.159 1.061-.192 5.182-.192 3.221 0 4.976.048 4.976.134 0 .08.527.134 1.295.134.767 0 1.295-.054 1.295-.134 0-.073.259-.134.576-.134.317 0 .576.06.576.134 0 .086 1.391.134 3.886.134 2.494 0 3.886.048 3.886.134 0 .088 3.838.134 11.226.134 7.388 0 11.227.046 11.227.133 0 .213 1.572.163 1.809-.057.158-.147.206-.612.206-2.007 0-1.122.055-1.816.143-1.816.229 0 .175-1.462-.061-1.682-.169-.157-.927-.192-4.174-.192-2.55 0-3.968-.048-3.968-.134 0-.085-1.392-.133-3.886-.133-2.495 0-3.887-.048-3.887-.134 0-.087-1.871-.134-5.325-.134s-5.325-.047-5.325-.134c0-.073-.324-.134-.72-.134-.396 0-.719.06-.719.134 0 .074-.13.134-.288.134-.159 0-.288-.06-.288-.134 0-.085-1.104-.134-3.023-.134s-3.022-.048-3.022-.133c0-.087-1.919-.134-5.469-.134-3.551 0-5.47-.047-5.47-.134 0-.074-.129-.134-.288-.134-.28 0-.287-.09-.287-3.613 0-2.32.051-3.613.144-3.613.207 0 .177-.499-.036-.591-.144-.063-.144-.094 0-.156.137-.06.179-.981.179-3.937s.042-3.877.18-3.937c.144-.062.144-.093 0-.156-.213-.092-.245-.858-.036-.858.092 0 .144-1.026.144-2.81v-2.81h-2.446c-1.536 0-2.447-.05-2.447-.135 0-.083-.848-.131-2.267-.128-1.772.004-2.306.046-2.447.195z" fill="#fff"/></svg>