<svg width="126" height="72" fill="none" xmlns="http://www.w3.org/2000/svg"><path fill-rule="evenodd" clip-rule="evenodd" d="M62.717.088c0 .055-.724.087-1.984.087S58.75.207 58.75.263c0 .054-.473.087-1.228.087-.756 0-1.228.034-1.228.088 0 .126-.352.108-.417-.022-.044-.088-.067-.088-.11 0-.037.072-.279.11-.709.11-.373 0-.653.037-.653.087 0 .051-.315.088-.756.088-.44 0-.755.036-.755.087 0 .048-.167.088-.37.088-.208 0-.391.048-.418.11-.036.082-.075.077-.157-.022-.082-.1-.12-.105-.157-.022-.026.06-.172.11-.323.11-.152 0-.276.039-.276.087 0 .05-.283.087-.66.087-.379 0-.662.038-.662.088 0 .048-.085.087-.189.087s-.189.04-.189.088c0 .049-.252.088-.567.088-.314 0-.566.039-.566.087 0 .05-.283.088-.661.088-.378 0-.661.037-.661.087 0 .049-.128.088-.284.088-.156 0-.283.04-.283.088 0 .048-.252.087-.567.087-.315 0-.567.04-.567.088 0 .048-.212.087-.472.087s-.472.04-.472.088c0 .048-.17.088-.378.088s-.378.039-.378.087c0 .049-.252.088-.566.088-.315 0-.567.039-.567.087 0 .049-.128.088-.284.088-.155 0-.283.04-.283.088 0 .048-.17.087-.378.087s-.378.04-.378.088c0 .048-.085.087-.188.087-.104 0-.19.04-.19.088 0 .048-.127.087-.283.087-.156 0-.283.04-.283.088 0 .048-.118.088-.263.088a.532.532 0 00-.398.175c-.095.122-.245.175-.493.175-.197 0-.357.04-.357.088 0 .048-.128.087-.284.087-.156 0-.283.04-.283.088 0 .048-.085.087-.189.087s-.189.04-.189.088c0 .048-.085.088-.189.088s-.189.039-.189.087c0 .048-.127.088-.283.088-.156 0-.283.04-.283.087 0 .049-.085.088-.19.088-.103 0-.188.04-.188.088 0 .048-.085.087-.19.087-.103 0-.188.04-.188.088 0 .048-.128.087-.283.087-.156 0-.284.04-.284.088 0 .048-.085.087-.189.087s-.189.04-.189.088c0 .048-.127.088-.283.088-.156 0-.283.04-.283.087 0 .048-.085.088-.19.088-.103 0-.188.04-.188.087 0 .049-.085.088-.189.088s-.189.04-.189.088c0 .048-.085.087-.189.087s-.189.04-.189.088c0 .048-.085.087-.189.087-.103 0-.188.04-.188.088 0 .048-.11.088-.246.088-.15 0-.347.1-.51.262-.163.162-.36.263-.51.263-.135 0-.246.04-.246.088 0 .048-.075.087-.168.087-.092 0-.23.08-.304.175a.532.532 0 01-.399.176c-.144 0-.262.04-.262.087 0 .048-.076.088-.168.088-.093 0-.23.079-.304.175-.075.096-.212.175-.305.175-.092 0-.168.04-.168.088 0 .048-.085.087-.189.087s-.189.04-.189.088c0 .048-.085.088-.189.088-.103 0-.188.039-.188.087 0 .048-.076.088-.168.088-.093 0-.23.079-.305.175-.075.096-.211.175-.304.175-.092 0-.168.04-.168.088 0 .048-.085.087-.189.087s-.189.04-.189.088c0 .048-.075.087-.168.087-.092 0-.23.08-.304.176-.075.096-.212.175-.304.175-.093 0-.168.04-.168.087 0 .049-.085.088-.19.088-.103 0-.188.04-.188.088 0 .048-.076.087-.168.087-.093 0-.23.079-.304.175-.075.097-.212.176-.305.176-.092 0-.168.039-.168.087 0 .048-.067.088-.15.088-.084 0-.27.118-.416.262-.146.145-.315.263-.376.263s-.275.158-.474.35c-.2.193-.413.351-.474.351-.062 0-.23.118-.376.263-.146.144-.315.263-.375.263s-.317.197-.57.438c-.253.24-.51.438-.57.438-.06 0-.229.118-.375.262-.145.145-.314.263-.375.263s-.275.158-.475.35c-.2.193-.41.35-.469.35s-.4.277-.758.614c-.36.337-.697.613-.752.613-.129 0-6.049 5.489-6.049 5.609 0 .05-.425.482-.945.96-.52.479-.944.922-.944.985 0 .064-.085.172-.189.242s-.189.18-.189.247c0 .066-.127.23-.283.366-.156.135-.284.293-.284.35 0 .058-.127.216-.283.35-.156.136-.283.309-.283.386 0 .077-.043.14-.095.14-.052 0-.094.063-.094.14 0 .077-.128.25-.284.386-.155.135-.283.291-.283.348 0 .057-.17.255-.378.44s-.378.399-.378.475c0 .076-.042.138-.094.138s-.094.063-.094.14c0 .077-.128.25-.284.386-.156.135-.283.3-.283.366s-.085.177-.19.247c-.103.07-.188.196-.188.282 0 .086-.043.156-.094.156-.052 0-.095.063-.095.14 0 .077-.127.25-.283.385-.156.135-.284.3-.284.366 0 .067-.085.178-.189.247-.103.07-.188.197-.188.283 0 .085-.043.155-.095.155-.052 0-.094.08-.094.176 0 .096-.043.175-.095.175-.052 0-.094.07-.094.156 0 .085-.085.212-.19.282-.103.07-.188.196-.188.282 0 .085-.043.156-.095.156-.051 0-.094.078-.094.175 0 .096-.042.175-.094.175s-.095.079-.095.175c0 .097-.042.175-.094.175s-.095.119-.095.263c0 .145-.042.263-.094.263s-.095.079-.095.175c0 .096-.042.175-.094.175s-.095.08-.095.175c0 .097-.042.176-.094.176s-.095.11-.095.243a.466.466 0 01-.188.37.466.466 0 00-.19.37c0 .133-.042.243-.094.243s-.094.11-.094.243a.466.466 0 01-.19.37.466.466 0 00-.188.37c0 .134-.043.243-.094.243-.052 0-.095.11-.095.244a.466.466 0 01-.189.37c-.131.087-.189.226-.189.457 0 .182-.042.33-.094.33s-.095.08-.095.176c0 .096-.042.175-.094.175s-.095.079-.095.175c0 .097-.042.175-.094.175s-.094.119-.094.263c0 .145-.043.263-.095.263-.052 0-.094.079-.094.175 0 .096-.043.175-.095.175-.052 0-.094.08-.094.175 0 .097-.043.176-.095.176-.052 0-.094.118-.094.262 0 .145-.043.263-.095.263-.052 0-.094.08-.094.175 0 .097-.043.176-.095.176-.051 0-.094.14-.094.31 0 .375.347.74.704.74.132 0 .24.04.24.088 0 .049.086.088.19.088.103 0 .188.04.188.087 0 .049.068.088.151.088.083 0 .27.118.416.263.146.144.333.263.416.263.083 0 .15.039.15.087 0 .048.119.088.263.088.154 0 .319.072.399.175a.536.536 0 00.378.175c.133 0 .302.079.378.175.074.097.211.175.304.175.092 0 .168.04.168.088 0 .048.075.088.168.088.092 0 .23.078.304.175.075.096.212.175.304.175.093 0 .168.04.168.088 0 .048.085.087.19.087.103 0 .188.04.188.088 0 .048.085.087.19.087.103 0 .188.04.188.088 0 .048.127.088.283.088.22 0 .284.038.284.175 0 .117.063.175.189.175.103 0 .189.04.189.088 0 .048.085.087.188.087.104 0 .19.04.19.088 0 .048.084.087.188.087s.19.04.19.088c0 .048.084.087.188.087s.189.04.189.088c0 .048.076.088.168.088.092 0 .23.078.304.175.08.103.245.175.399.175.144 0 .262.04.262.088 0 .048.076.087.168.087.093 0 .23.08.305.175.075.097.211.176.304.176.092 0 .168.039.168.087 0 .048.118.088.262.088.155 0 .32.072.4.175.074.096.202.175.282.175.081 0 .209.079.284.175.075.097.211.175.304.175.092 0 .168.04.168.088 0 .048.085.088.189.088s.189.04.189.087c0 .049.118.088.262.088.154 0 .319.072.399.175.075.096.202.175.283.175.081 0 .209.08.284.175.075.097.212.176.304.176s.168.039.168.087c0 .048.128.088.283.088.156 0 .284.04.284.087 0 .049.085.088.189.088s.189.04.189.088c0 .048.075.087.168.087.092 0 .229.079.304.175.075.097.212.175.304.175s.168.04.168.088c0 .048.076.088.168.088.093 0 .23.079.304.175.075.096.212.175.305.175.092 0 .168.04.168.088 0 .048.075.087.168.087.092 0 .229.08.304.175.075.097.212.176.304.176.093 0 .168.04.168.087 0 .048.085.088.189.088s.189.04.189.087c0 .049.085.088.189.088s.189.04.189.088c0 .048.085.087.189.087.103 0 .189.04.189.088 0 .048.085.087.189.087.103 0 .188.04.188.088 0 .048.085.088.19.088.103 0 .188.039.188.087 0 .048.076.088.168.088.093 0 .23.079.304.175a.537.537 0 00.378.175c.134 0 .303.079.378.175.075.097.212.175.304.175.093 0 .168.04.168.088 0 .048.085.088.19.088.103 0 .188.04.188.087 0 .048.076.088.168.088.093 0 .23.079.304.175.075.096.212.175.305.175.092 0 .168.04.168.088 0 .048.085.087.189.087s.189.04.189.088c0 .048.084.088.188.088s.19.039.19.087c0 .048.075.088.167.088.093 0 .23.079.305.175.075.096.211.175.304.175.092 0 .168.04.168.088 0 .048.085.087.189.087s.189.04.189.088c0 .048.085.087.189.087.103 0 .188.04.188.088 0 .048.085.088.19.088.103 0 .188.04.188.087 0 .048.085.088.19.088.103 0 .188.04.188.087 0 .049.076.088.168.088.093 0 .23.079.304.175.075.097.212.175.305.175.092 0 .168.04.168.088 0 .048.085.088.189.088.103 0 .188.039.188.087 0 .048.085.088.19.088.103 0 .188.04.188.087 0 .048.085.088.19.088.103 0 .188.04.188.088 0 .048.085.087.189.087s.189.04.189.088c0 .048.076.087.168.087.092 0 .23.08.304.175.075.097.212.176.304.176.093 0 .168.04.168.087 0 .048.085.088.19.088.103 0 .188.04.188.087 0 .049.076.088.168.088.093 0 .23.079.304.175.075.097.212.175.305.175.092 0 .168.04.168.088 0 .048.085.088.189.088.103 0 .188.039.188.087 0 .048.085.088.19.088.103 0 .188.04.188.087 0 .048.085.088.19.088.103 0 .188.04.188.087 0 .049.085.088.189.088s.189.04.189.088c0 .048.085.087.189.087s.189.04.189.088c0 .048.075.087.168.087.092 0 .23.08.304.176a.537.537 0 00.378.175c.133 0 .303.078.378.175.075.096.211.175.304.175.092 0 .168.04.168.088 0 .048.085.087.189.087s.189.04.189.088c0 .048.075.088.168.088.092 0 .23.078.304.175.075.096.212.175.304.175.093 0 .168.04.168.087 0 .049.085.088.19.088.103 0 .188.04.188.088 0 .048.085.087.189.087s.189.04.189.088c0 .048.085.087.189.087s.189.04.189.088c0 .048.085.088.189.088.103 0 .188.04.188.087 0 .048.086.088.19.088.103 0 .188.04.188.087 0 .049.068.088.151.088.083 0 .27.118.416.263.146.144.333.263.416.263.083 0 .15.039.15.087 0 .048.086.088.19.088.104 0 .188.04.188.087 0 .048.085.088.19.088.103 0 .188.04.188.087 0 .049.118.088.263.088.154 0 .319.072.398.175.075.097.212.176.305.176.092 0 .168.039.168.087 0 .048.085.088.189.088s.189.04.189.087c0 .049.085.088.188.088.104 0 .19.04.19.087 0 .049.075.088.167.088.093 0 .23.079.305.175.075.097.211.175.304.175.092 0 .168.04.168.088 0 .048.11.088.245.088.151 0 .348.1.51.262.146.145.333.263.416.263.083 0 .151.04.151.088 0 .048.085.087.19.087.103 0 .188.04.188.088 0 .048.085.088.189.088s.189.039.189.087c0 .048.085.088.189.088s.189.04.189.087c0 .049.085.088.189.088.103 0 .188.04.188.087 0 .049.085.088.19.088.103 0 .188.04.188.088 0 .048.076.087.168.087.093 0 .23.08.305.175.075.097.211.176.304.176.092 0 .168.039.168.087 0 .048.085.088.189.088s.189.04.189.087c0 .049.085.088.189.088s.189.04.189.088c0 .048.085.087.188.087.104 0 .19.04.19.088 0 .048.075.087.167.087.093 0 .23.08.305.175.075.097.211.176.304.176.092 0 .168.04.168.087 0 .049.085.088.189.088s.189.04.189.087c0 .049.075.088.168.088.092 0 .229.079.304.175.075.097.212.175.304.175s.168.04.168.088c0 .048.118.088.263.088a.53.53 0 01.398.175c.075.096.203.175.284.175.08 0 .208.079.283.175.075.096.212.175.304.175.093 0 .168.04.168.088 0 .048.119.088.263.088.154 0 .319.072.398.175.075.096.212.175.305.175.092 0 .168.04.168.088 0 .048.085.087.189.087s.189.04.189.088c0 .048.075.087.168.087.092 0 .229.08.304.175a.537.537 0 00.378.176c.133 0 .302.078.377.175.075.096.212.175.305.175.092 0 .168.04.168.088 0 .048.118.087.262.087.154 0 .319.073.399.175.075.097.212.175.304.175.093 0 .168.04.168.088 0 .048.085.088.189.088s.189.04.189.087c0 .049.076.088.168.088.092 0 .23.079.304.175.075.096.212.175.304.175.093 0 .169.04.169.088 0 .048.085.087.188.087.104 0 .19.04.19.088 0 .048.075.088.167.088.093 0 .23.079.305.175.075.096.211.175.304.175.092 0 .168.04.168.088 0 .048.075.087.168.087.092 0 .23.079.304.175.075.097.212.175.304.175.093 0 .168.04.168.088 0 .048.085.088.19.088.103 0 .188.04.188.087 0 .048.085.088.19.088.103 0 .188.04.188.088 0 .048.076.087.168.087.093 0 .23.079.304.175.075.097.212.175.305.175.092 0 .168.04.168.088 0 .048.084.088.188.088s.19.039.19.087c0 .048.127.088.283.088.156 0 .283.04.283.087 0 .049.085.088.189.088s.189-.04.189-.088c0-.048.127-.087.283-.087.156 0 .284-.04.284-.088 0-.048.085-.087.188-.087.104 0 .19-.04.19-.088 0-.048.084-.088.188-.088s.19-.039.19-.087c0-.048.117-.088.262-.088a.532.532 0 00.398-.175.532.532 0 01.399-.175c.144 0 .263-.04.263-.088 0-.048.075-.087.168-.087.092 0 .229-.08.304-.175a.532.532 0 01.398-.176c.145 0 .263-.04.263-.087 0-.048.085-.088.189-.088s.189-.04.189-.087c0-.049.085-.088.189-.088s.189-.04.189-.088c0-.048.085-.087.188-.087.104 0 .19-.04.19-.088 0-.048.075-.087.167-.087.093 0 .23-.08.305-.176a.532.532 0 01.398-.175c.145 0 .263-.04.263-.087 0-.048.085-.088.189-.088s.189-.04.189-.088c0-.048.085-.087.189-.087.103 0 .188-.04.188-.088 0-.048.085-.087.19-.087.103 0 .188-.04.188-.088 0-.048.076-.088.168-.088.093 0 .23-.078.305-.175a.536.536 0 01.377-.175.536.536 0 00.378-.175c.075-.096.212-.175.304-.175.093 0 .168-.04.168-.088 0-.048.085-.087.19-.087.103 0 .188-.04.188-.088 0-.048.128-.088.284-.088.155 0 .283-.039.283-.087 0-.048.085-.088.189-.088s.189-.04.189-.087c0-.049.085-.088.189-.088.103 0 .189-.04.189-.087 0-.049.084-.088.188-.088s.19-.04.19-.088c0-.048.084-.087.188-.087s.19-.04.19-.088c0-.048.084-.087.188-.087s.189-.04.189-.088c0-.048.085-.088.189-.088s.189-.04.189-.087c0-.048.085-.088.189-.088s.189-.04.189-.087c0-.049.085-.088.189-.088.103 0 .188-.04.188-.088 0-.048.085-.087.19-.087.103 0 .188-.04.188-.088 0-.048.085-.087.19-.087.103 0 .188-.04.188-.088 0-.048.085-.088.189-.088s.189-.039.189-.087c0-.048.085-.088.189-.088s.189-.04.189-.087c0-.049.118-.088.262-.088a.532.532 0 00.399-.175c.075-.097.212-.175.304-.175s.168-.04.168-.088c0-.048.085-.088.189-.088s.189-.039.189-.087c0-.048.085-.088.189-.088s.189-.04.189-.087c0-.048.085-.088.189-.088.103 0 .189-.04.189-.087 0-.049.075-.088.168-.088.092 0 .229-.079.304-.175a.536.536 0 01.378-.175.536.536 0 00.377-.176c.075-.096.212-.175.305-.175.092 0 .168-.04.168-.087 0-.048.17-.088.377-.088.208 0 .378-.04.378-.087 0-.049.085-.088.19-.088.103 0 .188-.04.188-.088 0-.048.076-.087.168-.087.093 0 .23-.08.304-.175.075-.097.212-.176.305-.176.092 0 .168-.04.168-.087 0-.048.118-.088.262-.088a.532.532 0 00.399-.175c.075-.096.212-.175.304-.175s.168-.04.168-.088c0-.048.118-.087.263-.087a.532.532 0 00.398-.176c.075-.096.212-.175.305-.175.092 0 .167-.04.167-.087 0-.048.119-.088.263-.088a.532.532 0 00.399-.175c.075-.096.211-.175.304-.175.092 0 .168-.04.168-.088 0-.048.118-.087.262-.087a.532.532 0 00.4-.176c.074-.096.21-.175.303-.175s.168-.04.168-.087c0-.049.118-.088.263-.088a.532.532 0 00.398-.175c.075-.097.212-.175.305-.175.092 0 .168-.04.168-.088 0-.048.085-.088.189-.088s.189-.039.189-.087c0-.048.085-.088.189-.088.103 0 .188-.04.188-.087 0-.048.085-.088.19-.088.103 0 .188-.04.188-.088 0-.048.085-.087.19-.087.103 0 .188-.04.188-.088 0-.048.128-.087.283-.087.156 0 .284-.04.284-.088 0-.048.085-.088.189-.088s.189-.039.189-.087c0-.048.085-.088.188-.088.104 0 .19-.04.19-.087 0-.049.075-.088.167-.088.093 0 .23-.079.305-.175a.532.532 0 01.398-.175c.145 0 .263-.04.263-.088 0-.048.085-.087.189-.087s.189-.04.189-.088c0-.048.118-.088.262-.088a.532.532 0 00.399-.175c.075-.096.212-.175.304-.175s.168-.04.168-.088c0-.048.118-.087.263-.087a.532.532 0 00.398-.175c.075-.097.212-.175.305-.175.092 0 .167-.04.167-.088 0-.048.085-.088.19-.088.103 0 .188-.04.188-.087 0-.049.085-.088.19-.088.103 0 .188-.04.188-.087 0-.049.076-.088.168-.088.093 0 .23-.079.304-.175a.532.532 0 01.4-.175c.143 0 .261-.04.261-.088 0-.048.076-.088.169-.088.092 0 .229-.078.304-.175.075-.096.212-.175.304-.175s.168-.04.168-.088c0-.048.128-.087.283-.087.156 0 .284-.04.284-.088 0-.048.127-.087.283-.087.156 0 .284-.04.284-.088 0-.048.085-.088.188-.088.104 0 .19-.039.19-.087 0-.048.075-.088.167-.088.093 0 .23-.078.305-.175.075-.096.211-.175.304-.175.092 0 .168-.04.168-.088 0-.048.085-.087.189-.087s.189-.04.189-.088c0-.048.085-.087.189-.087.103 0 .188-.04.188-.088 0-.048.128-.088.284-.088.156 0 .283-.039.283-.087 0-.048.076-.088.168-.088.093 0 .23-.079.304-.175a.54.54 0 01.378-.175.535.535 0 00.378-.175.533.533 0 01.399-.175c.144 0 .262-.04.262-.088 0-.048.076-.088.168-.088.093 0 .23-.078.305-.175.074-.096.211-.175.304-.175.092 0 .168-.04.168-.088 0-.048.085-.087.189-.087s.189-.04.189-.088c0-.048.085-.087.188-.087.104 0 .189-.04.189-.088 0-.048.085-.088.189-.088s.189-.039.189-.087c0-.048.085-.088.189-.088s.189-.04.189-.087c0-.049.085-.088.189-.088s.189-.04.189-.088c0-.048.085-.087.189-.087s.189-.04.189-.088c0-.048.085-.087.189-.087.103 0 .188-.04.188-.088 0-.048.128-.087.284-.087.156 0 .283-.04.283-.088 0-.048.085-.088.189-.088s.189-.04.189-.087c0-.049.085-.088.189-.088s.189-.04.189-.087c0-.049.085-.088.189-.088s.189-.04.189-.088c0-.048.085-.087.189-.087.103 0 .188-.04.188-.088 0-.048.085-.087.189-.087s.189-.04.189-.088c0-.048.085-.088.189-.088s.189-.039.189-.087c0-.048.085-.088.189-.088s.189-.04.189-.087c0-.049.085-.088.189-.088s.189-.04.189-.088c0-.048.085-.087.189-.087.103 0 .188-.04.188-.088 0-.048.119-.087.263-.087a.533.533 0 00.399-.175c.075-.097.211-.176.304-.176.092 0 .168-.04.168-.087 0-.049.118-.088.262-.088a.532.532 0 00.399-.175.537.537 0 01.378-.175.537.537 0 00.378-.175c.075-.097.211-.176.304-.176.092 0 .168-.04.168-.087 0-.048.076-.088.168-.088.092 0 .229-.079.304-.175.092-.119.245-.175.472-.175.228 0 .38-.057.473-.175a.53.53 0 01.398-.175c.145 0 .263-.04.263-.088 0-.048.076-.088.168-.088.092 0 .229-.079.304-.175.075-.096.212-.175.304-.175.093 0 .168-.04.168-.088 0-.048.119-.087.263-.087a.533.533 0 00.399-.175c.075-.097.211-.176.304-.176.092 0 .168-.04.168-.087 0-.048.118-.088.262-.088a.532.532 0 00.399-.175.533.533 0 01.399-.175c.144 0 .262-.04.262-.088 0-.048.085-.087.189-.087s.189-.04.189-.088c0-.048.085-.088.189-.088s.189-.039.189-.087c0-.048.085-.088.189-.088s.189-.04.189-.087c0-.048.075-.088.168-.088.092 0 .229-.079.304-.175a.532.532 0 01.399-.175c.144 0 .262-.04.262-.088 0-.048.085-.087.189-.087s.189-.04.189-.088c0-.048.118-.088.262-.088a.532.532 0 00.399-.175c.075-.096.212-.175.304-.175.093 0 .168-.04.168-.088 0-.048.085-.087.189-.087s.189-.04.189-.088c0-.048.128-.087.283-.087.156 0 .284-.04.284-.088 0-.048.076-.088.168-.088.092 0 .229-.078.304-.175a.511.511 0 01.355-.175c.298 0 .873-.546.873-.83 0-.121-.043-.221-.094-.221-.052 0-.095-.079-.095-.175 0-.097-.042-.175-.094-.175s-.095-.119-.095-.263c0-.145-.042-.263-.094-.263s-.095-.079-.095-.175c0-.096-.042-.175-.094-.175s-.095-.119-.095-.263c0-.145-.042-.263-.094-.263s-.095-.118-.095-.263c0-.144-.042-.262-.094-.262s-.094-.119-.094-.263c0-.145-.043-.263-.095-.263-.052 0-.094-.079-.094-.175 0-.096-.043-.175-.095-.175-.052 0-.094-.119-.094-.263 0-.145-.043-.263-.095-.263-.052 0-.094-.118-.094-.263 0-.144-.043-.262-.095-.262-.052 0-.094-.08-.094-.176 0-.096-.043-.175-.095-.175-.051 0-.094-.118-.094-.263 0-.144-.042-.262-.094-.262s-.095-.119-.095-.263c0-.145-.042-.263-.094-.263s-.095-.079-.095-.175c0-.096-.042-.175-.094-.175s-.095-.118-.095-.263c0-.145-.042-.263-.094-.263s-.095-.079-.095-.175c0-.096-.042-.175-.094-.175s-.094-.079-.094-.175c0-.097-.043-.176-.095-.176-.052 0-.094-.157-.094-.35 0-.193-.043-.35-.095-.35-.052 0-.094-.11-.094-.244a.466.466 0 00-.189-.37.466.466 0 01-.189-.37c0-.133-.043-.242-.095-.242-.052 0-.094-.08-.094-.176 0-.096-.043-.175-.094-.175-.052 0-.095-.079-.095-.175 0-.096-.042-.175-.094-.175s-.095-.07-.095-.156-.085-.213-.189-.282c-.104-.07-.189-.188-.189-.263 0-.075-.085-.193-.189-.263-.103-.07-.188-.188-.188-.262 0-.076-.085-.194-.189-.263-.104-.07-.189-.197-.189-.282 0-.086-.043-.156-.095-.156-.052 0-.094-.07-.094-.156s-.085-.213-.189-.282c-.104-.07-.189-.188-.189-.263 0-.075-.085-.193-.189-.263s-.189-.188-.189-.262c0-.076-.085-.194-.189-.263-.104-.07-.189-.188-.189-.263 0-.075-.085-.193-.189-.263-.103-.07-.188-.188-.188-.263 0-.075-.085-.193-.189-.262-.104-.07-.189-.188-.189-.263 0-.075-.085-.194-.189-.263-.104-.07-.189-.188-.189-.263 0-.075-.085-.193-.189-.262-.104-.07-.189-.197-.189-.283 0-.085-.042-.155-.094-.155s-.095-.07-.095-.156-.085-.213-.189-.282c-.104-.07-.189-.181-.189-.247 0-.067-.127-.232-.283-.367-.156-.134-.283-.3-.283-.366s-.085-.177-.189-.247-.189-.18-.189-.247c0-.066-.128-.23-.283-.366-.156-.135-.284-.293-.284-.35 0-.058-.127-.216-.283-.35-.156-.136-.284-.29-.284-.345 0-.054-.51-.57-1.133-1.145-.623-.575-1.133-1.09-1.133-1.143 0-.053-.17-.248-.378-.433s-.378-.38-.378-.434c0-.053-.553-.607-1.228-1.23-.675-.624-1.228-1.175-1.228-1.225 0-.122-2.331-2.28-2.462-2.28-.057 0-.266-.157-.466-.35-.199-.192-.413-.35-.474-.35s-.23-.118-.376-.263c-.145-.144-.333-.262-.416-.262-.083 0-.151-.04-.151-.088 0-.048-.068-.088-.151-.088-.083 0-.27-.118-.415-.262-.146-.145-.324-.263-.395-.263-.072 0-.192-.079-.266-.175-.075-.097-.203-.175-.284-.175-.081 0-.208-.08-.283-.176-.075-.096-.195-.175-.267-.175-.071 0-.249-.118-.394-.263-.146-.144-.333-.262-.416-.262-.083 0-.151-.04-.151-.088 0-.048-.068-.088-.151-.088-.083 0-.27-.118-.416-.262-.145-.145-.323-.263-.395-.263-.071 0-.191-.079-.266-.175-.075-.097-.195-.175-.266-.175-.072 0-.25-.119-.395-.263-.146-.145-.323-.263-.395-.263-.072 0-.191-.079-.266-.175-.075-.097-.212-.175-.304-.175-.093 0-.169-.04-.169-.088 0-.048-.067-.088-.15-.088-.084 0-.27-.118-.416-.262-.146-.145-.324-.263-.395-.263-.072 0-.192-.079-.266-.175-.075-.097-.212-.176-.305-.176-.092 0-.168-.039-.168-.087 0-.048-.068-.088-.15-.088-.084 0-.27-.118-.416-.262-.146-.145-.324-.263-.395-.263-.072 0-.192-.08-.267-.175-.075-.097-.211-.176-.304-.176-.092 0-.168-.039-.168-.087 0-.048-.076-.088-.168-.088-.092 0-.23-.079-.304-.175a.536.536 0 00-.378-.175.536.536 0 01-.378-.175.532.532 0 00-.398-.176c-.145 0-.263-.039-.263-.087 0-.048-.118-.088-.262-.088a.532.532 0 01-.4-.175c-.074-.096-.21-.175-.303-.175s-.168-.04-.168-.088c0-.048-.085-.087-.19-.087-.103 0-.188-.04-.188-.088 0-.048-.085-.087-.19-.087-.103 0-.188-.04-.188-.088 0-.048-.085-.088-.189-.088s-.189-.039-.189-.087c0-.048-.085-.088-.189-.088s-.189-.04-.189-.087c0-.049-.085-.088-.189-.088-.103 0-.188-.04-.188-.088 0-.048-.085-.087-.19-.087-.103 0-.188-.04-.188-.088 0-.048-.085-.087-.19-.087-.103 0-.188-.04-.188-.088 0-.048-.085-.088-.189-.088s-.189-.039-.189-.087c0-.048-.118-.088-.262-.088a.532.532 0 01-.399-.175.532.532 0 00-.399-.175c-.144 0-.262-.04-.262-.088 0-.048-.128-.087-.284-.087-.155 0-.283-.04-.283-.088 0-.048-.076-.087-.168-.087-.092 0-.23-.08-.304-.176-.095-.122-.245-.175-.493-.175-.197 0-.357-.04-.357-.087 0-.049-.128-.088-.284-.088-.156 0-.283-.04-.283-.088 0-.048-.127-.087-.283-.087-.156 0-.284-.04-.284-.088 0-.048-.127-.087-.283-.087-.156 0-.283-.04-.283-.088 0-.048-.128-.088-.284-.088-.156 0-.283-.039-.283-.087 0-.048-.17-.088-.378-.088s-.378-.04-.378-.087c0-.048-.17-.088-.378-.088-.207 0-.377-.04-.377-.087 0-.049-.128-.088-.284-.088-.156 0-.283-.04-.283-.088 0-.048-.17-.087-.378-.087s-.378-.04-.378-.088c0-.048-.085-.087-.189-.087-.103 0-.189-.04-.189-.088 0-.048-.212-.088-.472-.088s-.472-.039-.472-.087c0-.048-.213-.088-.472-.088-.26 0-.473-.04-.473-.087 0-.049-.085-.088-.188-.088-.104 0-.19-.04-.19-.088 0-.048-.17-.087-.377-.087-.208 0-.378-.04-.378-.088 0-.048-.213-.087-.472-.087-.26 0-.473-.04-.473-.088 0-.048-.084-.088-.188-.088s-.19-.039-.19-.087c0-.05-.283-.088-.66-.088-.378 0-.662-.037-.662-.087 0-.052-.346-.088-.85-.088s-.85-.036-.85-.087c0-.049-.212-.088-.472-.088s-.472-.04-.472-.088c0-.053-.41-.087-1.04-.087-.63 0-1.038-.035-1.038-.088 0-.05-.284-.087-.661-.087-.378 0-.662-.038-.662-.088 0-.05-.283-.088-.66-.088-.379 0-.662-.037-.662-.087 0-.054-.472-.088-1.228-.088S65.55.141 65.55.088c0-.055-.535-.088-1.417-.088-.881 0-1.416.033-1.416.088zm3.022 3.854c0 .05.315.087.756.087.44 0 .755.037.755.088 0 .048.252.087.567.087.315 0 .567.04.567.088 0 .053.41.088 1.039.088.63 0 1.039.034 1.039.087 0 .049.252.088.566.088.315 0 .567.039.567.087 0 .049.213.088.472.088.26 0 .473.04.473.088 0 .052.377.087.944.087s.945.035.945.088c0 .048.127.087.283.087.156 0 .284.04.284.088 0 .052.377.087.944.087s.945.036.945.088c0 .048.17.088.377.088.208 0 .378.04.378.087 0 .048.085.088.19.088.103 0 .188.04.188.087 0 .049.213.088.472.088.26 0 .473.04.473.088 0 .048.127.087.283.087.156 0 .283.04.283.088 0 .048.128.087.284.087.155 0 .283.04.283.088 0 .048.17.088.378.088s.378.039.378.087c0 .048.17.088.377.088.208 0 .378.04.378.087 0 .049.128.088.284.088.155 0 .283.04.283.088 0 .048.085.087.189.087s.189.04.189.088c0 .048.17.087.377.087.208 0 .378.04.378.088 0 .048.085.087.19.087.103 0 .188.04.188.088 0 .048.17.088.378.088s.378.04.378.087c0 .048.127.088.283.088.156 0 .283.04.283.087 0 .049.085.088.19.088.103 0 .188.04.188.088 0 .048.128.087.284.087.156 0 .283.04.283.088 0 .048.085.087.189.087s.189.04.189.088c0 .048.085.088.189.088s.189.039.189.087c0 .048.127.088.283.088.156 0 .283.04.283.087 0 .049.085.088.19.088.103 0 .188.04.188.088 0 .048.128.087.284.087.155 0 .283.04.283.088 0 .048.127.087.283.087.156 0 .284.04.284.088 0 .048.085.087.189.087.103 0 .188.04.188.088 0 .048.128.088.284.088.156 0 .283.04.283.087 0 .048.085.088.189.088s.189.04.189.087c0 .049.085.088.189.088s.189.04.189.088c0 .048.118.087.262.087.154 0 .319.073.399.175.075.097.212.176.304.176.093 0 .168.039.168.087 0 .048.118.088.263.088a.53.53 0 01.398.175c.075.096.203.175.284.175.08 0 .208.079.283.175.075.097.212.175.304.175.093 0 .168.04.168.088 0 .048.085.088.19.088.103 0 .188.04.188.087 0 .048.076.088.168.088.093 0 .23.079.304.175.08.103.245.175.4.175.143 0 .262.04.262.088 0 .048.075.087.168.087.092 0 .229.08.304.176.075.096.212.175.304.175.093 0 .168.04.168.087 0 .049.076.088.168.088.093 0 .23.079.304.175.075.097.212.175.305.175.092 0 .168.04.168.088 0 .048.085.088.189.088.103 0 .188.039.188.087 0 .048.068.088.152.088.083 0 .27.118.415.263.146.144.316.262.378.262s.232.119.378.263c.145.145.315.263.378.263.062 0 .232.118.377.263.146.144.333.262.416.262.088 0 .151.073.151.175 0 .117.063.176.189.176.104 0 .189.04.189.087 0 .048.067.088.149.088.082 0 .312.158.512.35.2.193.413.35.474.35s.231.119.376.263c.146.145.324.263.395.263.072 0 .191.079.266.175.075.097.193.175.261.175.069 0 .462.316.873.701.411.386.792.701.846.701.129 0 5.482 4.964 5.482 5.084 0 .05.34.403.756.785.415.38.755.754.755.828 0 .077.082.135.189.135.109 0 .189.059.189.138 0 .076.17.29.378.475s.378.381.378.436c0 .055.255.332.567.615.311.284.566.578.566.652 0 .078.081.137.189.137.126 0 .189.058.189.175 0 .096.043.175.095.175.051 0 .094.079.094.175 0 .096.042.175.094.175s.095.08.095.176c0 .096.042.175.094.175s.095.079.095.175c0 .096.042.175.094.175s.095.07.095.156.085.213.189.282c.103.07.188.196.188.282 0 .086.043.156.095.156.052 0 .094.079.094.175 0 .097.043.175.095.175.052 0 .094.08.094.176 0 .096.043.175.095.175.052 0 .094.07.094.156 0 .085.085.212.189.282.104.07.189.196.189.282 0 .085.043.156.094.156.052 0 .095.11.095.243 0 .143.078.296.189.37.104.07.189.196.189.282 0 .086.042.156.094.156s.095.07.095.156c0 .085.085.212.189.282.103.07.188.196.188.282 0 .086.043.156.095.156.052 0 .094.11.094.243 0 .143.078.296.189.37a.466.466 0 01.189.37c0 .133.043.243.095.243.052 0 .094.118.094.263 0 .144.043.262.095.262.051 0 .094.08.094.176 0 .096.042.175.094.175s.095.079.095.175c0 .096.042.175.094.175s.095.08.095.175c0 .097.042.176.094.176s.095.078.095.175c0 .096.042.175.094.175s.095.079.095.175c0 .096.042.175.094.175s.094.119.094.263c0 .145.043.263.095.263.052 0 .094.079.094.175 0 .096.043.175.095.175.052 0 .094.118.094.263 0 .145.043.263.095.263.052 0 .094.079.094.175 0 .096.043.175.095.175.052 0 .094.079.094.175 0 .097.043.175.095.175.052 0 .094.08.094.176 0 .096.043.175.094.175.052 0 .095.118.095.263 0 .144.042.262.094.262s.095.22.095.488c0 .503-.134.739-.418.739-.082 0-.149.04-.149.087 0 .049-.076.088-.168.088-.092 0-.229.079-.304.175-.075.096-.212.175-.304.175-.093 0-.168.04-.168.088 0 .048-.085.087-.189.087s-.189.04-.189.088c0 .048-.085.088-.189.088s-.189.039-.189.087c0 .048-.128.088-.283.088-.156 0-.284.04-.284.087 0 .049-.127.088-.283.088-.156 0-.283.04-.283.088 0 .048-.085.087-.189.087-.126 0-.189-.058-.189-.175 0-.096-.043-.175-.095-.175-.052 0-.094-.079-.094-.175 0-.097-.043-.176-.095-.176-.052 0-.094-.118-.094-.262 0-.145-.043-.263-.095-.263-.051 0-.094-.118-.094-.263 0-.144-.042-.263-.094-.263s-.095-.079-.095-.175c0-.096-.042-.175-.094-.175s-.095-.118-.095-.263c0-.144-.042-.263-.094-.263s-.095-.118-.095-.262c0-.145-.042-.263-.094-.263s-.095-.079-.095-.175c0-.097-.042-.175-.094-.175s-.095-.119-.095-.263c0-.145-.042-.263-.094-.263s-.094-.149-.094-.331c0-.23-.058-.37-.189-.457-.132-.088-.189-.227-.189-.458 0-.182-.043-.33-.095-.33-.052 0-.094-.11-.094-.244a.466.466 0 00-.189-.37.473.473 0 01-.189-.35.473.473 0 00-.189-.35c-.104-.07-.189-.197-.189-.283 0-.085-.042-.156-.094-.156s-.095-.078-.095-.175c0-.096-.042-.175-.094-.175s-.095-.07-.095-.156c0-.085-.085-.212-.188-.282-.104-.07-.189-.188-.189-.263 0-.075-.085-.193-.189-.262-.104-.07-.189-.197-.189-.282 0-.086-.043-.156-.095-.156-.052 0-.094-.07-.094-.156s-.085-.213-.189-.282c-.104-.07-.189-.197-.189-.282 0-.086-.042-.156-.094-.156s-.095-.07-.095-.156-.085-.213-.189-.282c-.104-.07-.189-.197-.189-.282 0-.086-.042-.156-.094-.156s-.095-.063-.095-.14c0-.077-.127-.25-.283-.386-.156-.135-.283-.3-.283-.366s-.085-.177-.189-.247-.189-.196-.189-.282c0-.086-.043-.156-.095-.156-.051 0-.094-.07-.094-.156 0-.085-.085-.212-.189-.282-.104-.07-.189-.188-.189-.262 0-.076-.085-.194-.189-.263-.104-.07-.189-.197-.189-.282 0-.086-.042-.156-.094-.156s-.094-.063-.094-.14c0-.077-.128-.25-.284-.386-.156-.135-.283-.29-.283-.345 0-.055-.383-.451-.85-.881-.468-.43-.85-.823-.85-.874 0-.05-.978-.998-2.173-2.104-1.195-1.107-2.172-2.072-2.172-2.145 0-.074-.083-.133-.189-.133-.126 0-.189-.058-.189-.175 0-.102-.063-.175-.151-.175-.083 0-.27-.118-.416-.263-.145-.144-.332-.262-.415-.262-.088 0-.151-.073-.151-.176 0-.102-.063-.175-.151-.175-.083 0-.271-.118-.416-.263-.146-.144-.314-.262-.375-.262-.06 0-.317-.197-.57-.438-.253-.241-.517-.438-.587-.438-.07 0-.188-.08-.263-.176-.075-.096-.194-.175-.264-.175s-.292-.157-.491-.35c-.2-.193-.413-.35-.473-.35s-.272-.158-.472-.35c-.2-.193-.42-.351-.491-.351-.07 0-.19-.079-.264-.175-.075-.097-.195-.175-.267-.175-.071 0-.25-.119-.395-.263-.145-.145-.323-.263-.395-.263-.071 0-.191-.079-.266-.175-.075-.097-.202-.175-.283-.175-.081 0-.209-.08-.284-.176-.075-.096-.202-.175-.283-.175-.08 0-.208-.079-.283-.175-.075-.096-.212-.175-.304-.175-.093 0-.169-.04-.169-.088 0-.048-.118-.087-.262-.087a.532.532 0 01-.399-.176c-.075-.096-.202-.175-.283-.175-.081 0-.209-.079-.284-.175-.074-.096-.211-.175-.304-.175-.092 0-.168-.04-.168-.088 0-.048-.118-.087-.262-.087a.532.532 0 01-.399-.175c-.075-.097-.212-.176-.304-.176-.093 0-.168-.039-.168-.087 0-.048-.085-.088-.19-.088-.103 0-.188-.04-.188-.087 0-.049-.085-.088-.189-.088s-.189-.04-.189-.088c0-.048-.085-.087-.189-.087s-.189-.04-.189-.088c0-.048-.085-.087-.188-.087-.104 0-.19-.04-.19-.088 0-.048-.084-.088-.188-.088s-.19-.039-.19-.087c0-.048-.117-.088-.262-.088a.532.532 0 01-.398-.175c-.075-.096-.212-.175-.305-.175-.092 0-.168-.04-.168-.088 0-.048-.127-.087-.283-.087-.156 0-.283-.04-.283-.088 0-.048-.085-.087-.19-.087-.103 0-.188-.04-.188-.088 0-.048-.085-.088-.19-.088-.103 0-.188-.039-.188-.087 0-.048-.127-.088-.283-.088-.156 0-.284-.04-.284-.087 0-.049-.085-.088-.189-.088-.103 0-.189-.04-.189-.087 0-.049-.212-.088-.472-.088s-.472-.04-.472-.088c0-.048-.085-.087-.189-.087s-.189-.04-.189-.088c0-.048-.127-.088-.283-.088-.156 0-.284-.039-.284-.087 0-.048-.17-.088-.377-.088-.208 0-.378-.04-.378-.087 0-.048-.085-.088-.19-.088-.103 0-.188-.04-.188-.088 0-.048-.17-.087-.378-.087s-.378-.04-.378-.088c0-.048-.085-.087-.189-.087-.103 0-.188-.04-.188-.088 0-.048-.17-.087-.378-.087s-.378-.04-.378-.088c0-.048-.17-.088-.378-.088s-.378-.039-.378-.087c0-.048-.17-.088-.377-.088-.208 0-.378-.04-.378-.087 0-.049-.085-.088-.19-.088-.103 0-.188-.04-.188-.088 0-.048-.17-.087-.378-.087s-.378-.04-.378-.088c0-.048-.127-.087-.283-.087-.156 0-.283-.04-.283-.088 0-.048-.128-.088-.284-.088-.156 0-.283-.039-.283-.087 0-.048-.213-.088-.472-.088-.26 0-.473-.04-.473-.087 0-.048-.212-.088-.472-.088s-.472-.04-.472-.087c0-.052-.347-.088-.85-.088-.504 0-.85-.036-.85-.088 0-.05-.315-.087-.756-.087-.44 0-.756-.037-.756-.088 0-.052-.346-.087-.85-.087-.503 0-.85-.036-.85-.088 0-.054-.44-.088-1.133-.088-.693 0-1.134-.034-1.134-.087 0-.052-.346-.088-.85-.088-.503 0-.85-.035-.85-.087 0-.056-.66-.088-1.794-.088s-1.795.032-1.795.088c0 .054-.504.087-1.322.087-.819 0-1.323.034-1.323.088 0 .055-.63.087-1.7.087-1.07 0-1.7.033-1.7.088 0 .053-.378.088-.944.088-.567 0-.945.035-.945.087 0 .048-.212.088-.472.088s-.472.04-.472.087c0 .049-.252.088-.567.088-.315 0-.567.039-.567.088 0 .048-.17.087-.378.087s-.378.04-.378.088c0 .048-.17.087-.377.087-.208 0-.378.04-.378.088 0 .049-.252.087-.567.087-.315 0-.567.04-.567.088 0 .048-.127.088-.283.088-.156 0-.283.04-.283.087 0 .048-.213.088-.473.088s-.472.04-.472.087c0 .05-.252.088-.567.088-.314 0-.566.039-.566.088 0 .048-.128.087-.284.087-.155 0-.283.04-.283.088 0 .048-.17.087-.378.087s-.378.04-.378.088c0 .048-.085.088-.189.088s-.189.039-.189.087c0 .048-.17.088-.377.088-.208 0-.378.04-.378.087 0 .049-.128.088-.284.088-.155 0-.283.04-.283.088 0 .048-.085.087-.189.087s-.189.04-.189.088c0 .048-.127.087-.283.087-.156 0-.283.04-.283.088 0 .048-.161.088-.357.088-.249 0-.399.053-.493.175-.095.122-.245.175-.494.175-.196 0-.356.04-.356.088 0 .048-.086.087-.19.087-.103 0-.188.04-.188.088 0 .048-.085.087-.19.087-.103 0-.188.04-.188.088 0 .048-.16.087-.357.087-.249 0-.398.054-.493.176-.095.122-.245.175-.493.175-.197 0-.357.04-.357.087 0 .049-.118.088-.263.088a.532.532 0 00-.398.175c-.075.097-.212.175-.305.175-.092 0-.168.04-.168.088 0 .048-.118.088-.262.088a.532.532 0 00-.399.175c-.075.096-.212.175-.304.175-.093 0-.168.04-.168.088 0 .048-.118.087-.263.087a.532.532 0 00-.398.175c-.075.097-.212.175-.305.175-.092 0-.168.04-.168.088 0 .048-.118.088-.262.088a.532.532 0 00-.399.175c-.075.096-.202.175-.283.175-.081 0-.209.079-.284.175a.532.532 0 01-.398.175c-.145 0-.263.04-.263.088 0 .048-.075.087-.168.087-.092 0-.229.08-.304.176a.532.532 0 01-.399.175c-.144 0-.262.04-.262.088 0 .048-.076.087-.168.087-.093 0-.23.079-.304.175-.075.097-.212.175-.305.175-.092 0-.168.04-.168.088 0 .048-.075.088-.168.088-.092 0-.229.078-.304.175-.075.096-.195.175-.266.175-.072 0-.25.118-.395.263-.146.144-.323.262-.395.262-.071 0-.191.08-.266.176-.075.096-.212.175-.304.175-.093 0-.169.04-.169.088 0 .048-.067.087-.15.087-.083 0-.27.118-.416.263-.146.144-.323.263-.395.263-.072 0-.191.078-.266.175-.075.096-.195.175-.267.175-.071 0-.249.118-.395.263-.145.144-.323.262-.394.262-.072 0-.192.08-.267.176-.075.096-.192.175-.26.175-.069 0-.504.355-.968.788-.463.434-.908.789-.988.789a.142.142 0 00-.145.137c0 .177-.227.388-.418.388-.086 0-.149.074-.149.175 0 .098-.063.175-.142.175-.158 0-4.77 4.238-4.77 4.384 0 .05-.297.364-.66.697-.364.332-.662.648-.662.7 0 .053-.297.369-.66.701-.364.333-.662.657-.662.721 0 .064-.085.173-.189.243s-.189.18-.189.245-.17.27-.378.455c-.207.186-.377.4-.377.475 0 .076-.043.139-.095.139-.052 0-.094.07-.094.155 0 .086-.085.213-.19.282-.103.07-.188.188-.188.263 0 .075-.085.194-.189.263-.104.07-.189.188-.189.263 0 .075-.085.193-.189.263s-.189.187-.189.262c0 .075-.085.194-.189.263-.104.07-.189.197-.189.282 0 .086-.042.156-.094.156s-.094.07-.094.156-.085.213-.19.282c-.103.07-.188.188-.188.263 0 .075-.085.193-.19.263a.466.466 0 00-.188.37c0 .133-.043.243-.095.243-.051 0-.094.118-.094.263 0 .144-.043.262-.094.262-.052 0-.095.07-.095.156s-.085.213-.189.282a.466.466 0 00-.189.37c0 .134-.042.243-.094.243s-.095.08-.095.176c0 .096-.042.175-.094.175s-.095.079-.095.175c0 .096-.042.175-.094.175s-.094.079-.094.175c0 .097-.043.176-.095.176-.052 0-.094.078-.094.175 0 .096-.043.175-.095.175-.052 0-.094.079-.094.175 0 .096-.043.175-.095.175-.052 0-.094.11-.094.244a.466.466 0 01-.189.37.466.466 0 00-.189.37c0 .133-.042.242-.094.242s-.095.119-.095.263c0 .145-.042.263-.094.263s-.095.079-.095.175c0 .097-.042.175-.094.175s-.095.062-.095.138c0 .076-.06.194-.135.263-.152.141-.81.172-.81.037 0-.048-.084-.087-.188-.087s-.189-.04-.189-.088c0-.048-.085-.087-.189-.087s-.189-.04-.189-.088c0-.048-.068-.088-.15-.088-.084 0-.27-.118-.416-.262-.146-.145-.356-.263-.466-.263-.273 0-1.046-.728-1.046-.986a.45.45 0 01.19-.328c.103-.07.188-.188.188-.263 0-.075.085-.193.189-.263a.466.466 0 00.189-.37c0-.133.042-.243.094-.243s.095-.07.095-.155c0-.086.085-.213.189-.283a.466.466 0 00.189-.37c0-.133.042-.243.094-.243s.095-.079.095-.175c0-.096.042-.175.094-.175s.094-.079.094-.175c0-.097.043-.176.095-.176.052 0 .094-.078.094-.175 0-.096.043-.175.095-.175.052 0 .094-.11.094-.243 0-.143.078-.296.19-.37.103-.07.188-.196.188-.282 0-.086.043-.156.094-.156.052 0 .095-.11.095-.243 0-.143.078-.296.189-.37.104-.07.189-.188.189-.263 0-.075.085-.193.189-.263s.189-.196.189-.282c0-.085.042-.156.094-.156s.094-.078.094-.175c0-.096.043-.175.095-.175.052 0 .094-.079.094-.175 0-.097.043-.175.095-.175.052 0 .094-.08.094-.175 0-.097.043-.176.095-.176.052 0 .094-.07.094-.155 0-.086.085-.213.19-.283.103-.07.188-.196.188-.282 0-.085.043-.156.094-.156.052 0 .095-.063.095-.14 0-.077.127-.25.283-.385.156-.135.284-.293.284-.35 0-.058.127-.216.283-.35.156-.136.283-.3.283-.367 0-.066.085-.178.19-.247.103-.07.188-.188.188-.263 0-.075.085-.193.189-.263.104-.069.189-.18.189-.245s.17-.27.378-.455.378-.383.378-.44c0-.057.127-.214.283-.349.156-.135.283-.292.283-.35 0-.058.128-.215.284-.35.155-.135.283-.309.283-.386 0-.077.043-.14.095-.14.051 0 .094-.063.094-.14 0-.077.127-.25.283-.386.156-.134.284-.29.284-.347 0-.056.212-.294.472-.528.26-.235.472-.47.472-.521 0-.123 2.329-2.282 2.462-2.282.151 0 .372-.23.372-.388 0-.076.066-.138.148-.138.191 0 .418-.21.418-.388 0-.075.067-.137.149-.137.19 0 .418-.211.418-.388 0-.076.066-.138.146-.138.08 0 .44-.276.799-.613.358-.337.698-.613.755-.613.155 0 .567-.41.567-.566 0-.074.076-.135.168-.135.093 0 .23-.079.304-.175.075-.096.212-.175.304-.175.106 0 .169-.066.169-.175 0-.11.063-.176.168-.176.092 0 .229-.078.304-.175.075-.096.195-.175.266-.175.072 0 .25-.118.395-.263.146-.144.333-.263.416-.263.083 0 .15-.039.15-.087 0-.048.076-.088.169-.088.092 0 .23-.079.304-.175.075-.096.195-.175.266-.175.072 0 .25-.118.395-.263.146-.144.316-.263.378-.263s.232-.118.378-.262c.145-.145.323-.263.395-.263.071 0 .191-.08.266-.175.075-.097.195-.176.266-.176.072 0 .25-.118.395-.262.146-.145.323-.263.395-.263.071 0 .191-.079.266-.175.075-.097.212-.175.305-.175.092 0 .168-.04.168-.088 0-.048.085-.088.189-.088.103 0 .188-.04.188-.087 0-.048.076-.088.168-.088.093 0 .23-.079.305-.175.075-.096.194-.175.266-.175.072 0 .25-.118.395-.263.145-.145.323-.263.395-.263.071 0 .191-.079.266-.175.075-.096.212-.175.304-.175.093 0 .168-.04.168-.088 0-.048.118-.087.263-.087a.532.532 0 00.398-.175c.075-.097.212-.176.305-.176.092 0 .168-.04.168-.087 0-.048.127-.088.283-.088.156 0 .283-.04.283-.088 0-.048.085-.087.19-.087.103 0 .188-.04.188-.088 0-.048.085-.087.19-.087.103 0 .188-.04.188-.088 0-.048.085-.087.189-.087s.189-.04.189-.088c0-.048.085-.088.189-.088s.189-.039.189-.087c0-.048.085-.088.188-.088.104 0 .19-.04.19-.087 0-.049.118-.088.262-.088a.532.532 0 00.399-.175.536.536 0 01.377-.175.536.536 0 00.378-.176.532.532 0 01.399-.175c.144 0 .262-.04.262-.087 0-.048.119-.088.263-.088a.532.532 0 00.399-.175c.075-.096.211-.175.304-.175.092 0 .168-.04.168-.088 0-.048.118-.087.262-.087a.532.532 0 00.399-.176.532.532 0 01.399-.175c.144 0 .262-.04.262-.087 0-.049.17-.088.378-.088s.378-.04.378-.088c0-.048.127-.087.283-.087.156 0 .283-.04.283-.088 0-.048.17-.087.378-.087s.378-.04.378-.088c0-.048.085-.088.189-.088s.189-.039.189-.087c0-.048.127-.088.283-.088.156 0 .284-.04.284-.087 0-.048.17-.088.378-.088.207 0 .377-.04.377-.087 0-.049.128-.088.284-.088.156 0 .283-.04.283-.088 0-.048.127-.087.283-.087.156 0 .284-.04.284-.088 0-.048.212-.087.472-.087s.472-.04.472-.088c0-.048.085-.088.19-.088.103 0 .188-.039.188-.087 0-.048.17-.088.378-.088s.378-.04.378-.087c0-.049.212-.088.472-.088s.472-.04.472-.088c0-.048.085-.087.19-.087.103 0 .188-.04.188-.088 0-.048.17-.087.378-.087s.378-.04.378-.088c0-.051.314-.088.755-.088s.756-.036.756-.087c0-.048.17-.088.378-.088.207 0 .377-.04.377-.087 0-.05.284-.088.662-.088.378 0 .66-.037.66-.087 0-.05.253-.088.568-.088.314 0 .566-.039.566-.088 0-.048.213-.087.472-.087.26 0 .473-.04.473-.088 0-.052.346-.087.85-.087s.85-.036.85-.088c0-.054.472-.088 1.228-.088s1.228-.033 1.228-.087c0-.055.63-.088 1.7-.088 1.07 0 1.7-.032 1.7-.087 0-.056.693-.088 1.89-.088 1.195 0 1.888.032 1.888.088zm1.322 7.708c0 .054.536.087 1.417.087.882 0 1.417.033 1.417.088 0 .048.128.087.283.087.156 0 .284.04.284.088 0 .049.252.088.566.088.315 0 .567.039.567.087 0 .049.252.088.567.088.315 0 .567.039.567.087 0 .049.127.088.283.088.156 0 .283.04.283.087 0 .052.315.088.756.088.44 0 .756.037.756.088 0 .048.212.087.472.087s.472.04.472.088c0 .048.128.088.283.088.156 0 .284.039.284.087 0 .048.17.088.378.088.207 0 .377.04.377.087 0 .048.17.088.378.088s.378.04.378.088c0 .048.085.087.189.087s.189.04.189.088c0 .048.212.087.472.087s.472.04.472.088c0 .048.128.087.284.087.156 0 .283.04.283.088 0 .048.085.088.19.088.103 0 .188.039.188.087 0 .048.17.088.378.088s.378.04.378.087c0 .049.085.088.188.088.104 0 .19.04.19.088 0 .048.17.087.377.087.208 0 .378.04.378.088 0 .048.17.087.378.087s.378.04.378.088c0 .048.085.087.189.087.103 0 .188.04.188.088 0 .048.128.088.284.088.156 0 .283.04.283.087 0 .048.085.088.19.088.103 0 .188.04.188.088 0 .048.085.087.189.087s.189.04.189.088c0 .048.085.087.189.087s.189.04.189.088c0 .048.085.087.188.087.104 0 .19.04.19.088 0 .048.084.088.188.088s.19.039.19.087c0 .048.084.088.188.088s.189.04.189.087c0 .049.076.088.168.088.093 0 .23.079.304.175a.536.536 0 00.378.175.54.54 0 01.378.175c.075.097.212.176.304.176.093 0 .168.04.168.087 0 .049.128.088.284.088.155 0 .283.04.283.088 0 .048.076.087.168.087.092 0 .23.079.304.175.075.097.212.175.304.175.093 0 .168.04.168.088 0 .048.085.088.19.088.103 0 .188.039.188.087 0 .048.076.088.168.088.093 0 .23.079.304.175.075.096.212.175.305.175.092 0 .168.04.168.088 0 .048.085.087.189.087s.189.04.189.088c0 .048.075.087.168.087.092 0 .229.08.304.176.075.096.212.175.304.175s.168.04.168.088c0 .048.076.087.168.087.093 0 .23.079.304.175.075.097.195.175.267.175.071 0 .249.119.395.263.145.145.314.263.376.263.06 0 .274.158.474.35.2.193.43.35.512.35.082 0 .149.04.149.088 0 .049.068.088.15.088.084 0 .27.118.416.263.146.144.333.262.416.262.083 0 .151.04.151.088 0 .048.085.088.19.088.106 0 .188.058.188.135 0 .175.42.565.61.565.08 0 .146.04.146.088 0 .048.066.088.148.088.08 0 .354.197.607.438.253.24.508.438.567.438.059 0 .314.197.567.437.253.241.506.438.561.438.158 0 2.083 1.82 2.083 1.97 0 .073.065.133.145.133.162 0 .989.733.989.877 0 .05.382.445.85.874.467.43.85.825.85.878 0 .052.255.328.567.611.311.284.566.569.566.633 0 .064.085.174.189.243.104.07.189.197.189.283 0 .085.043.155.095.155.052 0 .094.07.094.156s.085.213.189.282c.104.07.189.188.189.263 0 .075.085.193.189.263s.189.187.189.263c0 .075.085.193.189.262.104.07.189.188.189.263 0 .075.085.193.188.263.104.07.189.196.189.282 0 .086.043.156.095.156.052 0 .094.07.094.156 0 .085.085.212.189.282.104.07.189.18.189.247 0 .066.128.231.283.366.156.135.284.308.284.385 0 .078.042.14.094.14s.095.07.095.156.085.213.189.282c.103.07.189.197.189.283 0 .085.042.155.094.155s.094.07.094.156.085.213.189.282c.104.07.189.197.189.282 0 .086.043.156.095.156.052 0 .094.119.094.263 0 .145.043.263.095.263.052 0 .094.079.094.175 0 .096.043.175.094.175.052 0 .095.118.095.263 0 .145.042.263.094.263s.095.11.095.243c0 .143.078.296.189.37a.466.466 0 01.189.37c0 .133.042.243.094.243s.095.118.095.263c0 .144.042.263.094.263s.094.078.094.175c0 .096.043.175.095.175.052 0 .094.118.094.263 0 .144.043.263.095.263.052 0 .094.078.094.175 0 .096.043.175.095.175.052 0 .094.079.094.175 0 .096.043.175.095.175.052 0 .094.118.094.263 0 .145.043.263.095.263.051 0 .094.079.094.175 0 .096.042.175.094.175s.095.118.095.263c0 .145.042.263.094.263s.095.118.095.262c0 .145.042.263.094.263s.095.14.095.31c0 .236-.078.381-.328.613-.18.167-.392.303-.472.303-.08 0-.145.04-.145.088 0 .048-.085.088-.189.088s-.189.04-.189.087c0 .049-.085.088-.189.088-.103 0-.188.04-.188.087 0 .049-.085.088-.189.088s-.189.04-.189.088c0 .048-.111.087-.246.087-.151 0-.347.101-.51.263-.163.162-.359.263-.51.263-.135 0-.245.04-.245.087 0 .049-.086.088-.189.088-.104 0-.189.04-.189.088 0 .048-.085.087-.189.087s-.189.04-.189.088c0 .048-.111.087-.246.087-.151 0-.347.102-.51.263-.145.145-.332.263-.415.263-.084 0-.151.04-.151.087 0 .049-.085.088-.189.088s-.189.04-.189.088c0 .048-.085.087-.189.087s-.189.04-.189.088c0 .048-.085.087-.189.087s-.189.04-.189.088c0 .048-.118.088-.262.088a.532.532 0 00-.399.175c-.075.096-.212.175-.304.175-.093 0-.168.04-.168.088 0 .048-.118.087-.263.087a.53.53 0 00-.398.175.533.533 0 01-.399.175c-.144 0-.263.04-.263.088 0 .048-.075.088-.168.088-.092 0-.229.079-.304.175-.075.096-.212.175-.304.175-.093 0-.168.04-.168.088 0 .048-.118.087-.263.087a.53.53 0 00-.398.175c-.075.097-.212.176-.305.176-.092 0-.168.04-.168.087 0 .048-.118.088-.262.088a.533.533 0 00-.399.175c-.075.096-.212.175-.304.175s-.168.04-.168.088c0 .048-.085.087-.189.087s-.189.04-.189.088c0 .048-.085.088-.189.088s-.189.039-.189.087c0 .048-.085.088-.189.088-.103 0-.188.04-.188.087 0 .048-.076.088-.168.088-.093 0-.23.079-.305.175a.536.536 0 01-.378.175.537.537 0 00-.377.175c-.075.097-.212.176-.305.176-.092 0-.168.04-.168.087 0 .048-.118.088-.262.088a.532.532 0 00-.399.175c-.075.096-.212.175-.304.175s-.168.04-.168.088c0 .048-.118.087-.263.087a.532.532 0 00-.398.176.532.532 0 01-.399.175c-.144 0-.262.04-.262.087 0 .048-.076.088-.168.088-.093 0-.23.079-.305.175a.536.536 0 01-.377.175.536.536 0 00-.378.175c-.075.097-.212.176-.304.176-.093 0-.169.04-.169.087 0 .048-.127.088-.283.088-.156 0-.283.04-.283.087 0 .049-.085.088-.19.088-.103 0-.188.04-.188.088 0 .048-.085.087-.189.087s-.189.04-.189.088c0 .048-.076.087-.168.087-.092 0-.23.08-.304.176a.532.532 0 01-.399.175c-.144 0-.262.04-.262.087 0 .048-.085.088-.19.088-.103 0-.188.04-.188.088 0 .048-.085.087-.19.087-.103 0-.188.04-.188.088 0 .048-.085.087-.189.087s-.189.04-.189.088c0 .048-.075.087-.168.087-.092 0-.23.08-.304.176a.532.532 0 01-.399.175c-.144 0-.262.04-.262.087 0 .049-.085.088-.19.088-.103 0-.188.04-.188.088 0 .048-.085.087-.189.087s-.189.04-.189.088c0 .048-.085.087-.189.087s-.189.04-.189.088c0 .048-.085.088-.189.088-.103 0-.188.039-.188.087 0 .048-.086.088-.19.088-.103 0-.188.04-.188.087 0 .048-.085.088-.19.088-.103 0-.188.04-.188.087 0 .049-.085.088-.189.088s-.189.04-.189.088c0 .048-.085.087-.189.087s-.189.04-.189.088c0 .048-.085.087-.189.087-.103 0-.189.04-.189.088 0 .048-.085.088-.188.088-.104 0-.19.04-.19.087 0 .048-.084.088-.188.088s-.19.04-.19.087c0 .049-.084.088-.188.088s-.189.04-.189.088c0 .048-.085.087-.189.087s-.189.04-.189.088c0 .048-.085.087-.189.087-.103 0-.189.04-.189.088 0 .048-.118.088-.262.088a.532.532 0 00-.399.175c-.075.096-.211.175-.304.175-.092 0-.168.04-.168.087 0 .049-.118.088-.263.088a.532.532 0 00-.398.175c-.075.097-.212.175-.304.175-.093 0-.168.04-.168.088 0 .048-.085.088-.19.088-.103 0-.188.04-.188.087 0 .048-.085.088-.19.088-.103 0-.188.04-.188.087 0 .049-.085.088-.189.088s-.189.04-.189.088c0 .048-.085.087-.189.087s-.189.04-.189.088c0 .048-.085.087-.189.087-.103 0-.188.04-.188.088 0 .048-.119.088-.263.088a.532.532 0 00-.399.175c-.075.096-.211.175-.304.175-.092 0-.168.04-.168.087 0 .049-.085.088-.189.088s-.189.04-.189.088c0 .048-.085.087-.189.087-.103 0-.189.04-.189.088 0 .048-.118.088-.262.088a.532.532 0 00-.399.175c-.075.096-.212.175-.304.175s-.168.04-.168.087c0 .049-.118.088-.262.088a.532.532 0 00-.4.175c-.074.097-.21.175-.303.175s-.168.04-.168.088c0 .048-.119.088-.263.088a.532.532 0 00-.399.175.532.532 0 01-.398.175c-.145 0-.263.04-.263.088 0 .048-.075.087-.168.087-.092 0-.23.079-.304.175-.075.097-.212.175-.304.175-.093 0-.168.04-.168.088 0 .048-.118.088-.263.088a.532.532 0 00-.398.175.532.532 0 01-.4.175c-.143 0-.262.04-.262.088 0 .048-.075.087-.168.087-.092 0-.229.08-.304.175a.532.532 0 01-.399.176c-.144 0-.262.039-.262.087 0 .048-.076.088-.168.088-.093 0-.23.079-.304.175a.536.536 0 01-.378.175.536.536 0 00-.378.175c-.075.097-.212.175-.304.175-.093 0-.168.04-.168.088 0 .048-.118.088-.263.088a.532.532 0 00-.398.175.532.532 0 01-.399.175c-.144 0-.263.04-.263.088 0 .048-.075.087-.168.087-.092 0-.229.08-.304.175-.095.122-.244.176-.493.176-.196 0-.357.039-.357.087 0 .048-.085.088-.189.088s-.189.04-.189.087c0 .049-.085.088-.189.088-.103 0-.188.04-.188.088 0 .048-.128.087-.284.087-.22 0-.283.04-.283.175 0 .137-.063.175-.284.175-.155 0-.283.04-.283.088 0 .048-.085.088-.189.088s-.189.04-.189.087c0 .048-.085.088-.189.088s-.189.04-.189.088c0 .048-.127.087-.283.087-.156 0-.283.04-.283.088 0 .048-.213.087-.472.087-.26 0-.473-.04-.473-.087 0-.049-.075-.088-.168-.088-.092 0-.23-.079-.304-.175-.075-.096-.212-.175-.304-.175-.093 0-.168-.04-.168-.088 0-.048-.119-.087-.263-.087a.532.532 0 01-.398-.176c-.075-.096-.212-.175-.305-.175-.092 0-.168-.04-.168-.087 0-.049-.075-.088-.168-.088-.092 0-.23-.079-.304-.175-.075-.097-.212-.175-.304-.175-.093 0-.168-.04-.168-.088 0-.048-.076-.088-.168-.088-.093 0-.23-.078-.304-.175a.537.537 0 00-.378-.175.537.537 0 01-.378-.175c-.075-.097-.212-.175-.304-.175-.093 0-.168-.04-.168-.088 0-.048-.076-.088-.168-.088-.093 0-.23-.078-.305-.175-.075-.096-.212-.175-.304-.175s-.168-.04-.168-.087c0-.049-.085-.088-.189-.088s-.189-.04-.189-.088c0-.048-.085-.087-.189-.087s-.189-.04-.189-.088c0-.048-.085-.087-.188-.087-.104 0-.19-.04-.19-.088 0-.048-.075-.088-.167-.088-.093 0-.23-.078-.305-.175a.536.536 0 00-.378-.175.537.537 0 01-.377-.175c-.075-.096-.212-.175-.304-.175-.093 0-.168-.04-.168-.088 0-.048-.076-.087-.169-.087-.092 0-.229-.08-.304-.176a.536.536 0 00-.378-.175.536.536 0 01-.377-.175c-.075-.096-.212-.175-.305-.175-.092 0-.168-.04-.168-.088 0-.048-.085-.087-.189-.087-.103 0-.188-.04-.188-.088 0-.048-.076-.088-.169-.088-.092 0-.229-.078-.304-.175-.075-.096-.211-.175-.304-.175-.092 0-.168-.04-.168-.087 0-.049-.085-.088-.189-.088s-.189-.04-.189-.088c0-.048-.085-.087-.189-.087s-.189-.04-.189-.088c0-.048-.075-.087-.168-.087-.092 0-.229-.08-.304-.176a.532.532 0 00-.399-.175c-.144 0-.262-.04-.262-.087 0-.049-.076-.088-.168-.088-.093 0-.23-.079-.304-.175-.075-.097-.212-.175-.305-.175-.092 0-.168-.04-.168-.088 0-.048-.075-.088-.168-.088-.092 0-.229-.078-.304-.175a.536.536 0 00-.378-.175.536.536 0 01-.377-.175c-.075-.096-.212-.175-.305-.175-.092 0-.168-.04-.168-.088 0-.048-.075-.088-.168-.088-.092 0-.23-.078-.304-.175a.532.532 0 00-.399-.175c-.144 0-.262-.04-.262-.087 0-.049-.076-.088-.168-.088-.093 0-.23-.079-.305-.175-.074-.097-.211-.175-.304-.175-.092 0-.168-.04-.168-.088 0-.048-.075-.088-.168-.088-.092 0-.23-.078-.304-.175-.075-.096-.212-.175-.304-.175-.093 0-.168-.04-.168-.088 0-.048-.118-.087-.263-.087a.532.532 0 01-.398-.175c-.075-.097-.203-.175-.284-.175-.08 0-.208-.08-.283-.176-.075-.096-.212-.175-.304-.175-.093 0-.168-.04-.168-.087 0-.049-.119-.088-.263-.088a.532.532 0 01-.399-.175c-.075-.097-.211-.175-.304-.175-.092 0-.168-.04-.168-.088 0-.048-.085-.088-.189-.088s-.189-.039-.189-.087c0-.048-.075-.088-.168-.088-.092 0-.229-.079-.304-.175a.536.536 0 00-.378-.175.536.536 0 01-.377-.175c-.075-.097-.212-.175-.305-.175-.092 0-.168-.04-.168-.088 0-.048-.075-.088-.168-.088-.092 0-.23-.078-.304-.175a.536.536 0 00-.378-.175.536.536 0 01-.378-.175c-.075-.097-.211-.175-.304-.175-.092 0-.168-.04-.168-.088 0-.048-.085-.088-.189-.088s-.189-.039-.189-.087c0-.048-.075-.088-.168-.088-.092 0-.23-.079-.304-.175a.537.537 0 00-.378-.175.536.536 0 01-.378-.175c-.075-.097-.211-.175-.304-.175-.092 0-.168-.04-.168-.088 0-.048-.076-.088-.168-.088-.092 0-.23-.078-.304-.175-.075-.096-.212-.175-.304-.175-.093 0-.168-.04-.168-.088 0-.048-.085-.087-.19-.087-.103 0-.188-.04-.188-.088 0-.048-.085-.087-.19-.087-.103 0-.188-.04-.188-.088 0-.048-.085-.088-.189-.088s-.189-.039-.189-.087c0-.048-.085-.088-.189-.088s-.189-.04-.189-.087c0-.049-.085-.088-.189-.088s-.189-.04-.189-.088c0-.048-.085-.087-.188-.087-.104 0-.19-.04-.19-.088 0-.048-.075-.087-.167-.087-.093 0-.23-.08-.305-.175-.075-.097-.202-.176-.283-.176-.08 0-.208-.078-.283-.175-.075-.096-.212-.175-.305-.175-.092 0-.168-.04-.168-.088 0-.048-.118-.087-.262-.087a.532.532 0 01-.399-.175c-.075-.097-.212-.176-.304-.176s-.168-.039-.168-.087c0-.048-.076-.088-.168-.088-.092 0-.23-.079-.304-.175-.075-.096-.212-.175-.305-.175-.092 0-.168-.04-.168-.088 0-.048-.085-.087-.188-.087-.104 0-.19-.04-.19-.088 0-.048-.084-.087-.188-.087s-.19-.04-.19-.088c0-.048-.075-.088-.167-.088-.093 0-.23-.079-.304-.175-.075-.096-.212-.175-.305-.175-.092 0-.168-.04-.168-.088 0-.048-.085-.087-.189-.087s-.188-.04-.188-.088c0-.048-.085-.087-.19-.087-.103 0-.188-.04-.188-.088 0-.048-.085-.088-.19-.088-.103 0-.188-.04-.188-.087 0-.048-.085-.088-.189-.088s-.189-.04-.189-.087c0-.049-.076-.088-.168-.088-.092 0-.23-.079-.304-.175-.075-.097-.212-.175-.304-.175-.093 0-.168-.04-.168-.088 0-.048-.085-.087-.19-.087-.103 0-.188-.04-.188-.088 0-.048-.085-.088-.19-.088-.103 0-.188-.04-.188-.087 0-.049-.076-.088-.168-.088-.093 0-.23-.079-.304-.175-.075-.096-.212-.175-.304-.175-.093 0-.169-.04-.169-.088 0-.048-.075-.087-.168-.087-.092 0-.229-.08-.304-.176a.532.532 0 00-.398-.175c-.145 0-.263-.04-.263-.087 0-.049-.076-.088-.168-.088-.093 0-.23-.079-.304-.175-.075-.097-.203-.175-.284-.175-.08 0-.208-.08-.283-.176a.532.532 0 00-.399-.175c-.144 0-.262-.04-.262-.087 0-.048-.085-.088-.19-.088-.103 0-.188-.04-.188-.088 0-.048-.085-.087-.189-.087s-.189-.04-.189-.088c0-.048-.068-.087-.15-.087-.084 0-.27-.119-.416-.263-.163-.162-.36-.263-.51-.263-.136 0-.246-.04-.246-.087 0-.049-.076-.088-.168-.088-.093 0-.23-.079-.304-.175-.075-.096-.212-.175-.305-.175-.092 0-.168-.04-.168-.088 0-.048-.085-.088-.189-.088s-.188-.039-.188-.087c0-.048-.085-.088-.19-.088-.103 0-.188-.04-.188-.087 0-.048-.076-.088-.168-.088-.093 0-.23-.079-.305-.175-.094-.122-.244-.175-.493-.175-.353 0-.357-.004-.357-.35 0-.193.043-.351.095-.351.052 0 .094-.118.094-.263 0-.144.043-.263.095-.263.052 0 .094-.118.094-.262 0-.145.043-.263.095-.263.052 0 .094-.079.094-.175 0-.097.043-.175.095-.175.052 0 .094-.08.094-.176 0-.096.043-.175.095-.175.051 0 .094-.11.094-.243 0-.143.078-.296.189-.37a.466.466 0 00.189-.37c0-.134.042-.243.094-.243s.095-.079.095-.175c0-.097.042-.175.094-.175s.095-.08.095-.176c0-.096.042-.175.094-.175s.094-.079.094-.175c0-.096.043-.175.095-.175.052 0 .094-.11.094-.244 0-.143.078-.295.19-.37.103-.069.188-.196.188-.282 0-.085.043-.155.095-.155.052 0 .094-.08.094-.175 0-.097.043-.176.095-.176.052 0 .094-.078.094-.175 0-.096.043-.175.094-.175.052 0 .095-.11.095-.244a.47.47 0 01.189-.37.466.466 0 00.189-.369c0-.134.042-.243.094-.243s.095-.07.095-.156.085-.213.189-.282a.466.466 0 00.188-.37c0-.134.043-.243.095-.243.052 0 .094-.07.094-.156s.085-.213.19-.282c.103-.07.188-.188.188-.263 0-.075.085-.194.189-.263.104-.07.189-.18.189-.247 0-.066.127-.231.283-.366.156-.135.284-.3.284-.366 0-.067.085-.178.189-.247.104-.07.189-.188.189-.263 0-.075.085-.193.188-.263.104-.07.19-.179.19-.244 0-.064.212-.31.472-.544.26-.235.472-.488.472-.564 0-.075.042-.137.094-.137s.095-.06.095-.134c0-.075.382-.487.85-.917.467-.43.85-.842.85-.916 0-.077.082-.135.189-.135.105 0 .189-.058.189-.132 0-.148 4.759-4.598 4.917-4.598.055 0 .308-.197.56-.438.27-.256.545-.438.663-.438.113 0 .364-.155.566-.35.2-.193.413-.35.474-.35s.23-.119.376-.263c.145-.145.316-.263.378-.263s.232-.118.377-.263c.146-.144.315-.263.376-.263s.275-.157.475-.35c.2-.193.42-.35.49-.35.071 0 .19-.08.265-.176.075-.096.203-.175.284-.175.08 0 .208-.079.283-.175a.537.537 0 01.378-.175.536.536 0 00.377-.175c.075-.097.212-.176.305-.176.092 0 .168-.039.168-.087 0-.048.085-.088.189-.088s.189-.04.189-.087c0-.048.075-.088.168-.088.092 0 .229-.079.304-.175a.536.536 0 01.378-.175.536.536 0 00.377-.175c.075-.097.203-.176.284-.176.08 0 .208-.078.283-.175.075-.096.212-.175.305-.175.092 0 .168-.04.168-.087 0-.049.084-.088.188-.088s.19-.04.19-.088c0-.048.084-.087.188-.087s.19-.04.19-.088c0-.048.084-.088.188-.088s.189-.039.189-.087c0-.048.085-.088.189-.088s.189-.04.189-.087c0-.048.075-.088.168-.088.092 0 .23-.079.304-.175.095-.122.245-.175.493-.175.196 0 .357-.04.357-.088 0-.048.118-.087.263-.087a.532.532 0 00.398-.176.532.532 0 01.399-.175c.144 0 .262-.04.262-.087 0-.048.085-.088.19-.088.103 0 .188-.04.188-.088 0-.048.128-.087.284-.087.155 0 .283-.04.283-.088 0-.048.127-.087.283-.087.156 0 .284-.04.284-.088 0-.048.085-.088.189-.088s.189-.039.189-.087c0-.048.127-.088.283-.088.156 0 .283-.04.283-.087 0-.048.085-.088.19-.088.103 0 .188-.04.188-.087 0-.049.127-.088.283-.088.156 0 .284-.04.284-.088 0-.048.127-.087.283-.087.156 0 .283-.04.283-.088 0-.048.128-.087.284-.087.156 0 .283-.04.283-.088 0-.048.085-.088.189-.088s.189-.039.189-.087c0-.048.212-.088.472-.088s.473-.04.473-.087c0-.049.085-.088.188-.088.104 0 .19-.04.19-.088 0-.048.17-.087.377-.087.208 0 .378-.04.378-.088 0-.048.252-.087.567-.087.314 0 .566-.04.566-.088 0-.048.085-.088.19-.088.103 0 .188-.039.188-.087 0-.048.17-.088.378-.088s.378-.04.378-.087c0-.049.252-.088.566-.088.315 0 .567-.039.567-.088 0-.048.085-.087.19-.087.103 0 .188-.04.188-.088 0-.05.283-.087.661-.087.378 0 .661-.038.661-.088 0-.054.504-.087 1.323-.087.818 0 1.322-.034 1.322-.088 0-.048.128-.088.283-.088.156 0 .284-.039.284-.087 0-.055.66-.088 1.794-.088s1.795-.032 1.795-.087c0-.057 1.228-.088 3.495-.088 2.267 0 3.494.03 3.494.088zM52.445 23.78c-.09.096-.118 1.03-.118 4.026 0 2.543-.033 3.902-.095 3.902-.052 0-.094.234-.094.526 0 .291.042.525.094.525s.095.197.095.438-.043.438-.095.438c-.056 0-.094.35-.094.876 0 .525.038.876.094.876.052 0 .095.079.095.175 0 .096-.043.175-.095.175-.058 0-.094.484-.094 1.276 0 .99-.03 1.305-.135 1.402-.116.107-2.265.125-15.166.125-12.902 0-15.051.018-15.167.125-.108.1-.135.47-.135 1.84v1.714h1.795c1.133 0 1.794.032 1.794.088 0 .048.128.087.284.087.156 0 .283-.04.283-.087 0-.053.378-.088.945-.088.566 0 .944.035.944.088 0 .05.284.087.661.087.378 0 .662-.037.662-.087 0-.049.085-.088.189-.088.103 0 .188.04.188.088 0 .056 1.291.087 3.684.087 2.393 0 3.684.03 3.684.088 0 .048.127.087.283.087.156 0 .283-.04.283-.087 0-.048.213-.088.473-.088s.472.04.472.088c0 .057 2.235.087 6.517.087s6.517.03 6.517.088c0 .048.085.088.19.088.125 0 .188.058.188.175 0 .096.043.175.095.175.056 0 .094.321.094.788s.039.788.095.788c.052 0 .094.119.094.263 0 .145-.042.263-.094.263-.06 0-.095.555-.095 1.49 0 .934-.035 1.488-.094 1.488-.052 0-.095.158-.095.35 0 .193.043.35.095.35.06 0 .094.79.094 2.19 0 1.402-.034 2.19-.094 2.19-.052 0-.095.158-.095.35 0 .194.043.351.095.351.056 0 .094.321.094.788 0 .468-.038.789-.094.789-.058 0-.095.409-.095 1.05 0 .994.01 1.052.19 1.052.103 0 .188.04.188.088 0 .138 3.37.116 3.44-.022.044-.088.066-.088.11 0 .039.077.345.11 1.046.11 1.02 0 1.26-.074 1.26-.389 0-.075.043-.137.095-.137.062 0 .094-2.16.094-6.307 0-4.146.032-6.306.095-6.306.061 0 .094-1.548.094-4.468s.033-4.467.094-4.467.095-.905.095-2.54.033-2.54.094-2.54c.062 0 .095-1.185.095-3.378 0-2.812-.023-3.4-.135-3.504-.2-.185-5.805-.18-5.981.006zm15.68.351c-.088.092-.119.662-.119 2.186 0 1.317-.034 2.063-.094 2.063-.062 0-.095 1.43-.095 4.116s-.033 4.117-.094 4.117c-.052 0-.095.197-.095.438s.043.438.095.438c.052 0 .094.234.094.526 0 .291-.042.525-.094.525-.062 0-.095 1.314-.095 3.767 0 2.452-.033 3.766-.094 3.766-.062 0-.095 1.226-.095 3.504 0 2.277-.033 3.503-.094 3.503-.06 0-.095.847-.095 2.365v2.365h2.456c1.574 0 2.456.032 2.456.088 0 .136.845.104.998-.038.094-.086.135-.33.135-.788 0-.384.04-.663.095-.663.061 0 .094-1.197.094-3.416 0-2.22.033-3.416.095-3.416.06 0 .094-.876.094-2.453s.034-2.453.095-2.453c.054 0 .094-.279.094-.663 0-.458.042-.702.135-.788.112-.104.696-.125 3.4-.125 2.114 0 3.266.03 3.266.087 0 .052.346.088.85.088.503 0 .85-.036.85-.088 0-.048.17-.087.378-.087.207 0 .377.04.377.087 0 .057.913.088 2.55.088 1.638 0 2.55.031 2.55.088 0 .057 2.52.087 7.368.087 4.849 0 7.368.03 7.368.088 0 .139 1.032.106 1.187-.038.104-.096.135-.4.135-1.314 0-.734.036-1.188.094-1.188.15 0 .115-.957-.04-1.101-.111-.103-.608-.126-2.739-.126-1.673 0-2.604-.03-2.604-.087 0-.056-.914-.088-2.55-.088-1.638 0-2.55-.031-2.55-.087 0-.057-1.229-.088-3.496-.088s-3.494-.03-3.494-.087c0-.049-.213-.088-.473-.088s-.472.04-.472.087c0 .049-.085.088-.189.088s-.189-.04-.189-.087c0-.056-.724-.088-1.983-.088-1.26 0-1.984-.032-1.984-.088 0-.057-1.26-.087-3.589-.087-2.33 0-3.59-.031-3.59-.088 0-.048-.084-.087-.188-.087-.184 0-.189-.059-.189-2.365 0-1.519.034-2.365.094-2.365.137 0 .117-.327-.023-.387-.095-.041-.095-.062 0-.102.09-.04.118-.642.118-2.577s.028-2.538.118-2.577c.094-.04.094-.061 0-.102-.14-.06-.16-.562-.024-.562.06 0 .095-.671.095-1.84v-1.839h-1.606c-1.007 0-1.606-.033-1.606-.087 0-.055-.556-.087-1.487-.085-1.163.003-1.514.03-1.606.128z" fill="#2D4A1A"/></svg>