<svg width="21" height="20" fill="none" xmlns="http://www.w3.org/2000/svg"><path d="M15.595 19.006h-.028a15.33 15.33 0 01-10.272-4.298 15.314 15.314 0 01-4.3-10.267 2 2 0 01.586-1.436L4.295.293a1 1 0 011.414 0l4 4a1 1 0 010 1.414L8.113 7.3a7.5 7.5 0 001.594 2.992 7.485 7.485 0 002.988 1.595l1.6-1.594a1 1 0 011.414 0l4 4a1 1 0 010 1.414l-2.714 2.713c-.37.374-.874.585-1.4.586zM5 2.415h-.005l-2 2.004a13.245 13.245 0 003.712 8.874 13.252 13.252 0 008.873 3.712L17.587 15l-2.592-2.585-1.293 1.292a.987.987 0 01-.909.271 10.2 10.2 0 01-4.5-2.271 10.2 10.2 0 01-2.271-4.5 1 1 0 01.273-.914L7.587 5 5 2.415z" fill="#fff"/></svg>