<svg width="160" height="32" fill="none" xmlns="http://www.w3.org/2000/svg"><g clip-path="url(#clip0)"><path fill-rule="evenodd" clip-rule="evenodd" d="M84.093 2.667h-8.186c-7.471 0-9.24 1.769-9.24 9.24v8.186c0 7.471 1.769 9.24 9.24 9.24h8.186c7.471 0 9.24-1.769 9.24-9.24v-8.186c0-7.471-1.788-9.24-9.24-9.24zm4.103 19.026h-1.939c-.734 0-.96-.584-2.277-1.92-1.148-1.11-1.656-1.26-1.938-1.26-.395 0-.508.112-.508.658v1.75c0 .47-.151.753-1.393.753-2.051 0-4.328-1.242-5.928-3.557-2.409-3.387-3.068-5.928-3.068-6.455 0-.282.113-.546.66-.546h1.938c.489 0 .677.226.865.753.96 2.767 2.56 5.194 3.218 5.194.245 0 .358-.113.358-.734v-2.86c-.075-1.317-.772-1.43-.772-1.9 0-.227.188-.453.49-.453h3.048c.414 0 .565.226.565.716v3.858c0 .414.188.564.3.564.246 0 .453-.15.904-.602 1.393-1.562 2.39-3.97 2.39-3.97.132-.283.358-.547.847-.547h1.938c.584 0 .716.301.584.716-.245 1.129-2.616 4.478-2.616 4.478-.207.34-.282.49 0 .866.207.282.885.866 1.336 1.393.828.94 1.468 1.731 1.637 2.277.189.546-.094.828-.64.828z" fill="#fff"/></g><path d="M2.67 16.003a13.34 13.34 0 0011.249 13.172v-9.319h-3.383v-3.853h3.387v-2.934a4.704 4.704 0 015.03-5.2c1.001.016 2 .106 2.987.267v3.279h-1.685a1.929 1.929 0 00-2.17 2.084v2.504h3.694l-.59 3.854h-3.105v9.318c7.006-1.108 11.919-7.506 11.18-14.56C28.523 7.56 22.39 2.32 15.307 2.69 8.225 3.06 2.67 8.91 2.669 16.003z" fill="#fff"/><path fill-rule="evenodd" clip-rule="evenodd" d="M143.819 8.865c-.34.055-2.803.608-2.803 4.893 0 1.957.49 3.135 1.054 3.843a2.874 2.874 0 002.257 1.057h1.525V8.859h-1.961a.433.433 0 00-.072.006z" fill="#fff"/><path fill-rule="evenodd" clip-rule="evenodd" d="M144.306 20.569l-3.624 8.003c1.708.448 3.489.546 5.236.287v-8.29h-1.612zM144 3c-7.179 0-13 5.82-13 13a13.002 13.002 0 007.294 11.684l4.06-7.33s-3.86-1.782-3.86-6.193c0-4.412 3.076-7.13 5.658-7.13h4.054v21.272A13.007 13.007 0 00157 16c0-7.18-5.821-13-13-13z" fill="#fff"/><defs><clipPath id="clip0"><path fill="#fff" transform="translate(66.666 2.667)" d="M0 0h26.667v26.667H0z"/></clipPath></defs></svg>